<svg width="1192" height="637" viewBox="0 0 1192 637" fill="none" xmlns="http://www.w3.org/2000/svg">
<g clip-path="url(#clip0_283_180)">
<path d="M710.543 382L476.111 517.746" stroke="#E8ECFF" stroke-width="3"/>
<path d="M393.111 382L158.679 517.746" stroke="#E8ECFF" stroke-width="3"/>
<path d="M1027.98 382L793.543 517.746" stroke="#E8ECFF" stroke-width="3"/>
<path d="M259.708 459.284L896.462 459.284" stroke="#E8ECFF" stroke-width="3"/>
<path d="M391.568 382L1028.32 382" stroke="#E8ECFF" stroke-width="3"/>
<path d="M159.245 517.376L793.958 517.376" stroke="#E8ECFF" stroke-width="3"/>
<ellipse cx="568.5" cy="33" rx="32.5" ry="32" stroke="#E8ECFF" stroke-width="2"/>
<path d="M460.578 435H419.964V211.625H460.419L499.605 338.225H501.191V211.625H541.805V435H501.191L462.164 308.4H460.578V435Z" fill="#E8ECFF"/>
<path d="M687.552 249.701V314.428H697.388C706.484 314.428 713.095 314.005 717.219 313.159C724.306 311.679 730.017 308.135 734.353 302.53C738.69 296.924 740.858 290.103 740.858 282.065C740.858 274.026 738.69 267.205 734.353 261.599C730.017 255.994 724.306 252.45 717.219 250.97C712.989 250.124 706.378 249.701 697.388 249.701H687.552ZM646.939 211.625H697.071C712.724 211.625 723.882 212.419 730.546 214.005C745.564 217.601 757.78 225.481 767.193 237.643C776.712 249.701 781.471 264.508 781.471 282.065C781.471 295.285 778.669 307.078 773.063 317.443C767.563 327.702 760.054 335.846 750.535 341.874L785.437 435H742.286L712.777 352.345C709.604 352.451 704.369 352.504 697.071 352.504H687.552V435H646.939V211.625Z" fill="#E8ECFF"/>
<mask id="mask0_283_180" style="mask-type:alpha" maskUnits="userSpaceOnUse" x="520" y="313" width="672" height="478">
<rect x="520.479" y="313.144" width="671.129" height="477.153" fill="#D9D9D9"/>
</mask>
<g mask="url(#mask0_283_180)">
<path d="M999.599 785.894L942.571 676.997L959.049 668.294C974.287 660.246 985.734 655.109 993.389 652.883C1006.56 649.104 1019.25 650.012 1031.46 655.606C1043.66 661.2 1053.3 670.758 1060.38 684.281C1067.47 697.805 1069.84 711.2 1067.52 724.467C1065.19 737.735 1058.75 748.749 1048.18 757.51C1041.84 762.677 1031.14 769.237 1016.08 777.191L999.599 785.894ZM965.108 885.886L1049.09 841.529C1075.31 827.68 1093.31 816.472 1103.07 807.908C1125.06 788.569 1138.59 764.505 1143.64 735.713C1148.96 707.006 1143.89 677.884 1128.42 648.347C1116.77 626.105 1101.69 608.745 1083.17 596.267C1064.91 583.873 1045.16 576.816 1023.9 575.096L799.434 434.979L742.391 434.979L951.423 590.888C946.015 593.517 937.198 598.061 924.972 604.518L909.026 612.94L701.558 435.006L647.033 435.006L965.108 885.886Z" fill="#E8ECFF"/>
</g>
<mask id="mask1_283_180" style="mask-type:alpha" maskUnits="userSpaceOnUse" x="0" y="232" width="631" height="536">
<path d="M54.783 232.141L630.837 299.543L576.069 767.619L0.0144734 700.217L54.783 232.141Z" fill="#D9D9D9"/>
</mask>
<g mask="url(#mask1_283_180)">
<path d="M487.107 434.996L541.808 434.996L252.736 800.808L171.821 752.302L338.261 573.092L335.088 571.19L90.2718 703.416L9.03936 654.72L405.833 435L460.553 435L284.075 555.731L287.249 557.634L487.107 434.996Z" fill="#E8ECFF"/>
</g>
<path d="M446.431 435H405.818V211.625H446.273L485.458 338.225H487.045V211.625H527.658V435H487.045L448.018 308.4H446.431V435Z" fill="#1939FA"/>
<path d="M701.552 249.701V314.428H711.388C720.484 314.428 727.095 314.005 731.219 313.159C738.306 311.679 744.017 308.135 748.353 302.53C752.69 296.924 754.858 290.103 754.858 282.065C754.858 274.026 752.69 267.205 748.353 261.599C744.017 255.994 738.306 252.45 731.219 250.97C726.989 250.124 720.378 249.701 711.388 249.701H701.552ZM660.939 211.625H711.071C726.724 211.625 737.882 212.419 744.546 214.005C759.564 217.601 771.78 225.481 781.193 237.643C790.712 249.701 795.471 264.508 795.471 282.065C795.471 295.285 792.669 307.078 787.063 317.443C781.563 327.702 774.054 335.846 764.535 341.874L799.437 435H756.286L726.777 352.345C723.604 352.451 718.369 352.504 711.071 352.504H701.552V435H660.939V211.625Z" fill="#1939FA"/>
</g>
<defs>
<clipPath id="clip0_283_180">
<rect width="1192" height="637" fill="white"/>
</clipPath>
</defs>
</svg>
