<svg width="1263" height="670" viewBox="0 0 1263 670" fill="none" xmlns="http://www.w3.org/2000/svg">
<g filter="url(#filter0_d_273_166)">
<path d="M30.2556 669.955H0V505H30.2556L52.3563 556.314H53.6563L75.6389 505H105.894V669.955H75.6389V564.984H74.457L59.4474 594.976H46.447L31.4374 564.515H30.2556V669.955Z" fill="#2545FA"/>
</g>
<g filter="url(#filter1_d_273_166)">
<path d="M182.583 669.955H152.327V505H182.583L204.684 556.314H205.984L227.966 505H258.222V669.955H227.966V564.984H226.784L211.775 594.976H198.774L183.765 564.515H182.583V669.955Z" fill="#2545FA"/>
</g>
<g filter="url(#filter2_d_273_166)">
<path d="M334.91 669.955H304.655V505H334.91L357.011 556.314H358.311L380.294 505H410.549V669.955H380.294V564.984H379.112L364.102 594.976H351.102L336.092 564.515H334.91V669.955Z" fill="#2545FA"/>
</g>
<g filter="url(#filter3_d_273_166)">
<path d="M487.238 669.955H456.982V505H487.238L509.338 556.314H510.639L532.621 505H562.877V669.955H532.621V564.984H531.439L516.43 594.976H503.429L488.42 564.515H487.238V669.955Z" fill="#2545FA"/>
</g>
<g filter="url(#filter4_d_273_166)">
<path d="M639.565 669.955H609.31V505H639.565L661.666 556.314H662.966L684.948 505H715.204V669.955H684.948V564.984H683.767L668.757 594.976H655.757L640.747 564.515H639.565V669.955Z" fill="#2545FA"/>
</g>
<g filter="url(#filter5_d_273_166)">
<path d="M791.893 669.955H761.637V505H791.893L813.993 556.314H815.293L837.276 505H867.531V669.955H837.276V564.984H836.094L821.084 594.976H808.084L793.074 564.515H791.893V669.955Z" fill="#2545FA"/>
</g>
<g filter="url(#filter6_d_273_166)">
<path d="M944.22 669.955H913.964V505H944.22L966.321 556.314H967.621L989.603 505H1019.86V669.955H989.603V564.984H988.421L973.412 594.976H960.411L945.402 564.515H944.22V669.955Z" fill="#2545FA"/>
</g>
<rect x="815.094" y="51" width="415.639" height="413" rx="11" stroke="#C0C6D2" stroke-width="2" stroke-dasharray="8.7 8.7"/>
<path d="M10.7232 8.10788H11.4875V18.0715H10.5817V9.25426H10.5109L8.31016 10.8394L7.86434 10.1884L10.7232 8.10788ZM17.9572 16.3661C18.2072 17.003 18.5941 17.3214 19.1178 17.3214C19.4197 17.3214 19.6697 17.22 19.8679 17.0171C20.0707 16.8143 20.2264 16.543 20.3349 16.2033C20.3962 16.0194 20.441 15.7481 20.4694 15.3896C20.4977 15.0263 20.5142 14.6984 20.5189 14.4059C20.5236 14.1134 20.526 13.6747 20.526 13.0897C20.526 12.0943 20.5142 11.4031 20.4906 11.0163L17.9572 16.3661ZM19.1178 8.85798C18.8158 8.85798 18.5634 8.95941 18.3606 9.16227C18.1624 9.36513 18.0091 9.63639 17.9006 9.97606C17.8393 10.16 17.7945 10.4337 17.7661 10.7969C17.7378 11.1555 17.7213 11.481 17.7166 11.7735C17.7119 12.066 17.7095 12.5047 17.7095 13.0897C17.7095 14.0851 17.7213 14.7763 17.7449 15.1631L20.2783 9.8133C20.0283 9.17642 19.6414 8.85798 19.1178 8.85798ZM17.108 9.51609C17.4949 8.49236 18.1648 7.9805 19.1178 7.9805C20.0707 7.9805 20.7406 8.49236 21.1275 9.51609C21.2124 9.74726 21.2761 10.0657 21.3185 10.4714C21.361 10.8771 21.3846 11.2475 21.3893 11.5824C21.3987 11.9127 21.4034 12.4151 21.4034 13.0897C21.4034 13.7643 21.3987 14.2691 21.3893 14.6041C21.3846 14.9343 21.361 15.3023 21.3185 15.708C21.2761 16.1137 21.2124 16.4322 21.1275 16.6633C20.7406 17.687 20.0707 18.1989 19.1178 18.1989C18.1648 18.1989 17.4949 17.687 17.108 16.6633C17.0231 16.4322 16.9594 16.1137 16.917 15.708C16.8745 15.3023 16.8486 14.9343 16.8391 14.6041C16.8344 14.2691 16.8321 13.7643 16.8321 13.0897C16.8321 12.4151 16.8344 11.9127 16.8391 11.5824C16.8486 11.2475 16.8745 10.8771 16.917 10.4714C16.9594 10.0657 17.0231 9.74726 17.108 9.51609ZM26.9462 16.3661C27.1962 17.003 27.583 17.3214 28.1067 17.3214C28.4086 17.3214 28.6587 17.22 28.8568 17.0171C29.0597 16.8143 29.2153 16.543 29.3238 16.2033C29.3852 16.0194 29.43 15.7481 29.4583 15.3896C29.4866 15.0263 29.5031 14.6984 29.5078 14.4059C29.5126 14.1134 29.5149 13.6747 29.5149 13.0897C29.5149 12.0943 29.5031 11.4031 29.4795 11.0163L26.9462 16.3661ZM28.1067 8.85798C27.8048 8.85798 27.5524 8.95941 27.3495 9.16227C27.1514 9.36513 26.9981 9.63639 26.8895 9.97606C26.8282 10.16 26.7834 10.4337 26.7551 10.7969C26.7268 11.1555 26.7103 11.481 26.7056 11.7735C26.7008 12.066 26.6985 12.5047 26.6985 13.0897C26.6985 14.0851 26.7103 14.7763 26.7339 15.1631L29.2672 9.8133C29.0172 9.17642 28.6304 8.85798 28.1067 8.85798ZM26.097 9.51609C26.4838 8.49236 27.1537 7.9805 28.1067 7.9805C29.0597 7.9805 29.7296 8.49236 30.1164 9.51609C30.2013 9.74726 30.265 10.0657 30.3075 10.4714C30.3499 10.8771 30.3735 11.2475 30.3782 11.5824C30.3877 11.9127 30.3924 12.4151 30.3924 13.0897C30.3924 13.7643 30.3877 14.2691 30.3782 14.6041C30.3735 14.9343 30.3499 15.3023 30.3075 15.708C30.265 16.1137 30.2013 16.4322 30.1164 16.6633C29.7296 17.687 29.0597 18.1989 28.1067 18.1989C27.1537 18.1989 26.4838 17.687 26.097 16.6633C26.0121 16.4322 25.9484 16.1137 25.9059 15.708C25.8635 15.3023 25.8375 14.9343 25.8281 14.6041C25.8234 14.2691 25.821 13.7643 25.821 13.0897C25.821 12.4151 25.8234 11.9127 25.8281 11.5824C25.8375 11.2475 25.8635 10.8771 25.9059 10.4714C25.9484 10.0657 26.0121 9.74726 26.097 9.51609ZM34.2368 16.5713L33.614 15.9486L39.9545 9.60809L40.5773 10.2308L34.2368 16.5713ZM36.4729 9.12689C36.2889 8.93818 36.0436 8.84383 35.737 8.84383C35.4303 8.84383 35.1826 8.93818 34.9939 9.12689C34.8099 9.31559 34.718 9.57978 34.718 9.91945C34.718 10.2591 34.8099 10.5233 34.9939 10.712C35.1826 10.9007 35.4303 10.9951 35.737 10.9951C36.0436 10.9951 36.2889 10.9007 36.4729 10.712C36.6616 10.5233 36.756 10.2591 36.756 9.91945C36.756 9.57978 36.6616 9.31559 36.4729 9.12689ZM34.35 8.54662C34.7132 8.17864 35.1756 7.99465 35.737 7.99465C36.2984 7.99465 36.7583 8.17864 37.1169 8.54662C37.4801 8.91459 37.6618 9.3722 37.6618 9.91945C37.6618 10.4667 37.4801 10.9243 37.1169 11.2923C36.7583 11.6603 36.2984 11.8442 35.737 11.8442C35.1756 11.8442 34.7132 11.6603 34.35 11.2923C33.9914 10.9243 33.8122 10.4667 33.8122 9.91945C33.8122 9.3722 33.9914 8.91459 34.35 8.54662ZM39.1903 15.4674C39.0063 15.2787 38.761 15.1843 38.4543 15.1843C38.1477 15.1843 37.9 15.2787 37.7113 15.4674C37.5273 15.6561 37.4353 15.9203 37.4353 16.26C37.4353 16.5996 37.5273 16.8638 37.7113 17.0525C37.9 17.2412 38.1477 17.3356 38.4543 17.3356C38.761 17.3356 39.0063 17.2412 39.1903 17.0525C39.379 16.8638 39.4733 16.5996 39.4733 16.26C39.4733 15.9203 39.379 15.6561 39.1903 15.4674ZM37.0673 14.8871C37.4306 14.5191 37.8929 14.3352 38.4543 14.3352C39.0157 14.3352 39.4757 14.5191 39.8342 14.8871C40.1975 15.2551 40.3791 15.7127 40.3791 16.26C40.3791 16.8072 40.1975 17.2648 39.8342 17.6328C39.4757 18.0008 39.0157 18.1848 38.4543 18.1848C37.8929 18.1848 37.4306 18.0008 37.0673 17.6328C36.7088 17.2648 36.5295 16.8072 36.5295 16.26C36.5295 15.7127 36.7088 15.2551 37.0673 14.8871Z" fill="#C0C6D2"/>
<path d="M1230.97 493.242L1219.01 449.072L1257.98 468.866L1238.43 474.05L1230.97 493.242Z" fill="black" stroke="#E8ECFF" stroke-width="3"/>
<rect x="1071.85" y="76.5" width="56.4659" height="56" rx="11.5" fill="#1939FA" stroke="#E8ECFF" stroke-width="3"/>
<rect x="124.577" y="3.07153" width="20.1934" height="21" rx="5" stroke="#A3A3A3" stroke-width="2"/>
<rect x="102.383" y="3.07153" width="21.2022" height="21" rx="5" stroke="#A3A3A3" stroke-width="2"/>
<rect x="49.422" y="3.07153" width="23.2198" height="21" rx="5" stroke="#A3A3A3" stroke-width="2"/>
<rect x="1" y="3.07153" width="46.422" height="21" rx="5" stroke="#A3A3A3" stroke-width="2"/>
<rect x="165.433" y="51" width="577.046" height="413" rx="15.7347" stroke="#A3A3A3" stroke-width="2"/>
<rect x="165.433" y="1" width="577.046" height="23" rx="5" stroke="#A3A3A3" stroke-width="2"/>
<line y1="-0.388194" x2="5.40525" y2="-0.388194" transform="matrix(0.69498 0.72229 -0.726162 0.684132 57.1086 11.6194)" stroke="#A3A3A3" stroke-width="0.776389"/>
<line y1="-0.388194" x2="5.40525" y2="-0.388194" transform="matrix(-0.69498 0.72229 0.726162 0.684132 64.9547 11.6195)" stroke="#A3A3A3" stroke-width="0.776389"/>
<rect x="20" y="50" width="115" height="415" rx="31.0556" fill="#1939FA"/>
<g filter="url(#filter7_d_273_166)">
<path d="M934.613 225.375C921.262 229.932 910.245 238.14 901.561 249.998C892.877 261.856 887.016 275.26 883.977 290.208C881.263 303.336 879.906 322.157 879.906 346.673C879.906 371.189 881.263 389.084 883.977 400.359C887.124 413.196 893.04 422.579 901.724 428.51C910.407 434.44 921.37 435.145 934.613 430.625C947.964 426.068 958.981 417.86 967.665 406.002C976.348 394.144 982.21 380.741 985.249 365.792C987.963 352.665 989.32 333.843 989.32 309.327C989.32 284.811 987.963 266.916 985.249 255.641C982.101 242.804 976.186 233.421 967.502 227.491C958.818 221.56 947.855 220.855 934.613 225.375ZM888.373 238.593C900.747 222.396 916.16 211.149 934.613 204.85C953.066 198.552 968.479 199.277 980.853 207.027C993.227 214.662 1001.48 227.012 1005.6 244.076C1008.64 256.494 1010.16 275.873 1010.16 302.214C1010.16 328.554 1008.64 348.971 1005.6 363.463C1001.48 383.344 993.227 401.382 980.853 417.578C968.479 433.661 953.066 444.851 934.613 451.15C916.16 457.448 900.747 456.78 888.373 449.145C875.999 441.395 867.749 428.988 863.624 411.924C860.585 399.506 859.066 380.127 859.066 353.786C859.066 327.446 860.585 307.03 863.624 292.537C867.749 272.657 875.999 254.675 888.373 238.593ZM903.352 327.724L965.874 306.383V326.908L903.352 348.249V327.724Z" fill="#2545FA"/>
<path d="M934.613 203.35C953.38 196.945 969.144 197.664 981.806 205.591L981.807 205.59C994.409 213.366 1002.8 225.943 1006.98 243.257L1007.27 244.456C1010.15 257.062 1011.58 276.18 1011.58 301.729C1011.58 328.098 1010.06 348.655 1006.98 363.335L1006.98 363.336C1002.8 383.508 994.411 401.866 981.812 418.357L981.807 418.364C969.144 434.822 953.378 446.245 934.613 452.65C915.848 459.055 900.083 458.395 887.419 450.581L887.414 450.578C874.815 442.688 866.428 430.055 862.243 412.74V412.739C859.165 400.16 857.646 380.64 857.646 354.271C857.646 327.899 859.165 307.341 862.244 292.66C866.429 272.492 874.814 254.192 887.414 237.814L888.01 237.04C900.57 220.882 916.137 209.657 934.613 203.35ZM934.613 226.876C921.589 231.321 910.939 239.281 902.549 250.738C894.084 262.297 888.345 275.391 885.36 290.074L885.358 290.08C882.684 303.02 881.326 321.7 881.326 346.188C881.326 370.672 882.683 388.424 885.357 399.539L885.655 400.711C888.815 412.721 894.509 421.494 902.712 427.095C911.105 432.827 921.701 433.532 934.613 429.125C947.637 424.679 958.287 416.72 966.677 405.263C975.141 393.703 980.881 380.609 983.866 365.927L983.867 365.92C986.542 352.981 987.9 334.299 987.9 309.811C987.9 285.324 986.542 267.57 983.867 256.457V256.456C980.774 243.846 974.98 234.687 966.514 228.905C958.122 223.174 947.525 222.469 934.613 226.876ZM967.293 304.399V327.924L901.932 350.234V326.708L967.293 304.399Z" stroke="#E8ECFF" stroke-width="3"/>
</g>
<defs>
<filter id="filter0_d_273_166" x="0" y="505" width="127.894" height="164.955" filterUnits="userSpaceOnUse" color-interpolation-filters="sRGB">
<feFlood flood-opacity="0" result="BackgroundImageFix"/>
<feColorMatrix in="SourceAlpha" type="matrix" values="0 0 0 0 0 0 0 0 0 0 0 0 0 0 0 0 0 0 127 0" result="hardAlpha"/>
<feOffset dx="22"/>
<feComposite in2="hardAlpha" operator="out"/>
<feColorMatrix type="matrix" values="0 0 0 0 0 0 0 0 0 0 0 0 0 0 0 0 0 0 1 0"/>
<feBlend mode="normal" in2="BackgroundImageFix" result="effect1_dropShadow_273_166"/>
<feBlend mode="normal" in="SourceGraphic" in2="effect1_dropShadow_273_166" result="shape"/>
</filter>
<filter id="filter1_d_273_166" x="152.327" y="505" width="127.894" height="164.955" filterUnits="userSpaceOnUse" color-interpolation-filters="sRGB">
<feFlood flood-opacity="0" result="BackgroundImageFix"/>
<feColorMatrix in="SourceAlpha" type="matrix" values="0 0 0 0 0 0 0 0 0 0 0 0 0 0 0 0 0 0 127 0" result="hardAlpha"/>
<feOffset dx="22"/>
<feComposite in2="hardAlpha" operator="out"/>
<feColorMatrix type="matrix" values="0 0 0 0 0 0 0 0 0 0 0 0 0 0 0 0 0 0 1 0"/>
<feBlend mode="normal" in2="BackgroundImageFix" result="effect1_dropShadow_273_166"/>
<feBlend mode="normal" in="SourceGraphic" in2="effect1_dropShadow_273_166" result="shape"/>
</filter>
<filter id="filter2_d_273_166" x="304.655" y="505" width="127.894" height="164.955" filterUnits="userSpaceOnUse" color-interpolation-filters="sRGB">
<feFlood flood-opacity="0" result="BackgroundImageFix"/>
<feColorMatrix in="SourceAlpha" type="matrix" values="0 0 0 0 0 0 0 0 0 0 0 0 0 0 0 0 0 0 127 0" result="hardAlpha"/>
<feOffset dx="22"/>
<feComposite in2="hardAlpha" operator="out"/>
<feColorMatrix type="matrix" values="0 0 0 0 0 0 0 0 0 0 0 0 0 0 0 0 0 0 1 0"/>
<feBlend mode="normal" in2="BackgroundImageFix" result="effect1_dropShadow_273_166"/>
<feBlend mode="normal" in="SourceGraphic" in2="effect1_dropShadow_273_166" result="shape"/>
</filter>
<filter id="filter3_d_273_166" x="456.982" y="505" width="127.894" height="164.955" filterUnits="userSpaceOnUse" color-interpolation-filters="sRGB">
<feFlood flood-opacity="0" result="BackgroundImageFix"/>
<feColorMatrix in="SourceAlpha" type="matrix" values="0 0 0 0 0 0 0 0 0 0 0 0 0 0 0 0 0 0 127 0" result="hardAlpha"/>
<feOffset dx="22"/>
<feComposite in2="hardAlpha" operator="out"/>
<feColorMatrix type="matrix" values="0 0 0 0 0 0 0 0 0 0 0 0 0 0 0 0 0 0 1 0"/>
<feBlend mode="normal" in2="BackgroundImageFix" result="effect1_dropShadow_273_166"/>
<feBlend mode="normal" in="SourceGraphic" in2="effect1_dropShadow_273_166" result="shape"/>
</filter>
<filter id="filter4_d_273_166" x="609.31" y="505" width="127.894" height="164.955" filterUnits="userSpaceOnUse" color-interpolation-filters="sRGB">
<feFlood flood-opacity="0" result="BackgroundImageFix"/>
<feColorMatrix in="SourceAlpha" type="matrix" values="0 0 0 0 0 0 0 0 0 0 0 0 0 0 0 0 0 0 127 0" result="hardAlpha"/>
<feOffset dx="22"/>
<feComposite in2="hardAlpha" operator="out"/>
<feColorMatrix type="matrix" values="0 0 0 0 0 0 0 0 0 0 0 0 0 0 0 0 0 0 1 0"/>
<feBlend mode="normal" in2="BackgroundImageFix" result="effect1_dropShadow_273_166"/>
<feBlend mode="normal" in="SourceGraphic" in2="effect1_dropShadow_273_166" result="shape"/>
</filter>
<filter id="filter5_d_273_166" x="761.637" y="505" width="127.894" height="164.955" filterUnits="userSpaceOnUse" color-interpolation-filters="sRGB">
<feFlood flood-opacity="0" result="BackgroundImageFix"/>
<feColorMatrix in="SourceAlpha" type="matrix" values="0 0 0 0 0 0 0 0 0 0 0 0 0 0 0 0 0 0 127 0" result="hardAlpha"/>
<feOffset dx="22"/>
<feComposite in2="hardAlpha" operator="out"/>
<feColorMatrix type="matrix" values="0 0 0 0 0 0 0 0 0 0 0 0 0 0 0 0 0 0 1 0"/>
<feBlend mode="normal" in2="BackgroundImageFix" result="effect1_dropShadow_273_166"/>
<feBlend mode="normal" in="SourceGraphic" in2="effect1_dropShadow_273_166" result="shape"/>
</filter>
<filter id="filter6_d_273_166" x="913.964" y="505" width="127.894" height="164.955" filterUnits="userSpaceOnUse" color-interpolation-filters="sRGB">
<feFlood flood-opacity="0" result="BackgroundImageFix"/>
<feColorMatrix in="SourceAlpha" type="matrix" values="0 0 0 0 0 0 0 0 0 0 0 0 0 0 0 0 0 0 127 0" result="hardAlpha"/>
<feOffset dx="22"/>
<feComposite in2="hardAlpha" operator="out"/>
<feColorMatrix type="matrix" values="0 0 0 0 0 0 0 0 0 0 0 0 0 0 0 0 0 0 1 0"/>
<feBlend mode="normal" in2="BackgroundImageFix" result="effect1_dropShadow_273_166"/>
<feBlend mode="normal" in="SourceGraphic" in2="effect1_dropShadow_273_166" result="shape"/>
</filter>
<filter id="filter7_d_273_166" x="846.007" y="197.462" width="166.993" height="265.199" filterUnits="userSpaceOnUse" color-interpolation-filters="sRGB">
<feFlood flood-opacity="0" result="BackgroundImageFix"/>
<feColorMatrix in="SourceAlpha" type="matrix" values="0 0 0 0 0 0 0 0 0 0 0 0 0 0 0 0 0 0 127 0" result="hardAlpha"/>
<feOffset dx="-10.2199" dy="4.08796"/>
<feComposite in2="hardAlpha" operator="out"/>
<feColorMatrix type="matrix" values="0 0 0 0 0 0 0 0 0 0 0 0 0 0 0 0 0 0 1 0"/>
<feBlend mode="normal" in2="BackgroundImageFix" result="effect1_dropShadow_273_166"/>
<feBlend mode="normal" in="SourceGraphic" in2="effect1_dropShadow_273_166" result="shape"/>
</filter>
</defs>
</svg>
