<svg width="1320" height="526" viewBox="0 0 1320 526" fill="none" xmlns="http://www.w3.org/2000/svg">
<g clip-path="url(#clip0_194_415)">
<rect x="837.412" y="319.39" width="167.822" height="167.822" rx="20" fill="#1939FA"/>
<path d="M863.471 411.226C861.556 411.226 858.968 411.042 855.704 410.676V407.679C858.818 408.046 861.407 408.229 863.471 408.229C864.37 408.229 865.169 408.12 865.869 407.904C866.568 407.671 867.126 407.38 867.542 407.03C867.975 406.664 868.324 406.247 868.591 405.781C868.857 405.315 869.04 404.866 869.14 404.433C869.24 404 869.29 403.567 869.29 403.134C869.29 402.152 869.057 401.294 868.591 400.562C868.141 399.829 867.542 399.272 866.793 398.889C866.06 398.506 864.845 398.239 863.146 398.089C861.448 397.923 860.183 397.673 859.35 397.34C858.185 396.891 857.194 396.15 856.379 395.118C855.563 394.085 855.155 392.862 855.155 391.447C855.155 389.598 855.879 388.042 857.328 386.776C858.793 385.494 860.882 384.854 863.596 384.854C865.444 384.854 868.058 385.028 871.438 385.378V388.375C868.025 388.025 865.411 387.85 863.596 387.85C861.748 387.85 860.408 388.208 859.575 388.924C858.759 389.623 858.351 390.464 858.351 391.447C858.351 392.196 858.56 392.837 858.976 393.369C859.392 393.902 859.916 394.293 860.549 394.543C861.182 394.793 862.389 395.009 864.17 395.193C865.952 395.376 867.342 395.725 868.341 396.241C869.573 396.874 870.572 397.798 871.338 399.013C872.104 400.212 872.486 401.586 872.486 403.134C872.486 404.183 872.295 405.182 871.912 406.131C871.529 407.08 870.98 407.937 870.264 408.703C869.548 409.469 868.599 410.085 867.417 410.551C866.251 411.001 864.936 411.226 863.471 411.226ZM889.781 384.854C890.979 384.854 892.078 385.095 893.077 385.578C894.076 386.061 894.9 386.71 895.549 387.526C895.966 388.042 896.299 388.575 896.548 389.124C896.798 389.673 896.965 390.281 897.048 390.947C897.148 391.613 897.206 392.162 897.223 392.595C897.256 393.028 897.273 393.636 897.273 394.418V410.826H894.076V394.418C894.076 393.503 894.059 392.82 894.026 392.371C894.009 391.921 893.91 391.422 893.726 390.872C893.56 390.306 893.302 389.815 892.952 389.399C892.053 388.366 890.83 387.85 889.281 387.85C887.733 387.85 886.509 388.366 885.61 389.399C885.26 389.815 884.994 390.306 884.811 390.872C884.644 391.422 884.545 391.921 884.511 392.371C884.495 392.82 884.486 393.503 884.486 394.418V410.826H881.29V375.663H884.486V388.05H884.736C885.352 387.084 886.11 386.31 887.009 385.728C887.924 385.145 888.848 384.854 889.781 384.854ZM912.044 376.038C912.561 375.522 913.235 375.264 914.067 375.264C914.9 375.264 915.574 375.522 916.09 376.038C916.606 376.554 916.864 377.228 916.864 378.061C916.864 378.893 916.606 379.567 916.09 380.084C915.574 380.6 914.9 380.858 914.067 380.858C913.235 380.858 912.561 380.6 912.044 380.084C911.528 379.567 911.27 378.893 911.27 378.061C911.27 377.228 911.528 376.554 912.044 376.038ZM913.268 410.826V388.25H906.875V385.253H916.465V410.826H913.268ZM938.853 410.826H935.657V391.447H929.264V388.45H935.657V382.631C935.657 381.998 935.665 381.49 935.682 381.107C935.715 380.708 935.832 380.167 936.031 379.484C936.248 378.785 936.556 378.169 936.956 377.636C937.505 376.887 938.262 376.304 939.228 375.888C940.21 375.472 941.318 375.264 942.55 375.264C944.115 375.264 946.079 375.397 948.443 375.663V378.66C946.079 378.394 944.115 378.261 942.55 378.261C941.118 378.261 940.119 378.635 939.553 379.384C939.087 380 938.853 381.083 938.853 382.631V388.45H948.443V391.447H938.853V410.826ZM974.029 410.851C972.247 411.101 970.649 411.226 969.234 411.226C967.902 411.226 966.686 410.984 965.588 410.501C964.505 410.018 963.623 409.361 962.94 408.528C962.408 407.896 962.008 407.155 961.742 406.306C961.475 405.457 961.325 404.749 961.292 404.183C961.259 403.617 961.242 402.834 961.242 401.835V388.4H954.849V385.253H961.242V378.86H964.439V385.253H974.029V388.4H964.439V401.586C964.439 402.501 964.447 403.184 964.464 403.634C964.497 404.083 964.597 404.599 964.763 405.182C964.93 405.765 965.18 406.264 965.513 406.68C966.378 407.713 967.702 408.229 969.483 408.229C970.666 408.229 972.181 408.104 974.029 407.854V410.851Z" fill="#1939FA"/>
<rect x="838.61" y="320.589" width="150.24" height="150.24" rx="18.8013" fill="#E8ECFF" stroke="#1939FA" stroke-width="2.39745"/>
</g>
<rect x="838.61" y="320.589" width="165.424" height="165.424" rx="18.8013" stroke="#1939FA" stroke-width="2.39745"/>
<g clip-path="url(#clip1_194_415)">
<rect x="1015.62" y="319.39" width="167.822" height="167.822" rx="20" fill="#E8ECFF"/>
<path d="M1084.65 435.244H1078.26V364.919H1084.65V405.176L1105.13 384.099H1113.17L1095.04 403.029L1115.52 435.244H1107.73L1090.9 407.274L1084.65 413.517V435.244Z" fill="#021C8B"/>
<rect x="1016.82" y="320.589" width="150.24" height="150.24" rx="18.8013" stroke="#1939FA" stroke-width="2.39745"/>
</g>
<rect x="1016.82" y="320.589" width="165.424" height="165.424" rx="18.8013" stroke="#1939FA" stroke-width="2.39745"/>
<g clip-path="url(#clip2_194_415)">
<rect x="301.98" y="319.39" width="167.822" height="167.822" rx="20" fill="#E8ECFF"/>
<path d="M380.6 370.114C376.504 370.114 373.125 371.412 370.461 374.009C367.797 376.607 365.999 379.936 365.066 383.999C364.234 387.562 363.818 392.923 363.818 400.082C363.818 407.241 364.234 412.602 365.066 416.165C366.032 420.227 367.847 423.557 370.511 426.154C373.175 428.751 376.538 430.05 380.6 430.05C384.696 430.05 388.075 428.751 390.739 426.154C393.403 423.557 395.201 420.227 396.133 416.165C396.966 412.602 397.382 407.241 397.382 400.082C397.382 392.923 396.966 387.562 396.133 383.999C395.168 379.936 393.353 376.607 390.689 374.009C388.025 371.412 384.662 370.114 380.6 370.114ZM366.415 369.364C370.211 365.868 374.939 364.12 380.6 364.12C386.261 364.12 390.989 365.868 394.785 369.364C398.581 372.827 401.112 377.256 402.377 382.65C403.309 386.579 403.775 392.39 403.775 400.082C403.775 407.774 403.309 413.584 402.377 417.513C401.112 422.907 398.581 427.353 394.785 430.849C390.989 434.312 386.261 436.044 380.6 436.044C374.939 436.044 370.211 434.312 366.415 430.849C362.619 427.353 360.088 422.907 358.823 417.513C357.891 413.584 357.425 407.774 357.425 400.082C357.425 392.39 357.891 386.579 358.823 382.65C360.088 377.256 362.619 372.827 366.415 369.364ZM371.01 396.885H390.19V402.879H371.01V396.885Z" fill="#021C8B"/>
<rect x="303.179" y="320.589" width="150.24" height="150.24" rx="18.8013" stroke="#1939FA" stroke-width="2.39745"/>
</g>
<rect x="303.179" y="320.589" width="165.424" height="165.424" rx="18.8013" stroke="#1939FA" stroke-width="2.39745"/>
<g clip-path="url(#clip3_194_415)">
<rect x="837.412" y="127.594" width="167.822" height="167.822" rx="20" fill="#E8ECFF"/>
<path d="M894.003 243.448L870.834 216.827L894.003 190.206H954.84V243.448H894.003ZM896.841 238.001H949.317V195.653H896.841L878.275 216.827L896.841 238.001ZM907.965 235.009L903.899 231.173L917.555 216.827L903.899 202.481L907.889 198.645L921.391 212.838L934.894 198.645L938.883 202.481L925.227 216.827L938.883 231.173L934.817 235.009L921.391 220.893L907.965 235.009Z" fill="#021C8B"/>
<rect x="838.61" y="128.793" width="150.24" height="150.24" rx="18.8013" stroke="#1939FA" stroke-width="2.39745"/>
</g>
<rect x="838.61" y="128.793" width="165.424" height="165.424" rx="18.8013" stroke="#1939FA" stroke-width="2.39745"/>
<g clip-path="url(#clip4_194_415)">
<rect x="479.392" y="127.594" width="167.822" height="167.822" rx="20" fill="#E8ECFF"/>
<path d="M549.82 231.411C551.585 235.906 554.315 238.154 558.012 238.154C560.143 238.154 561.907 237.438 563.306 236.006C564.738 234.574 565.837 232.66 566.602 230.262C567.035 228.964 567.352 227.049 567.551 224.518C567.751 221.954 567.868 219.64 567.901 217.576C567.934 215.511 567.951 212.415 567.951 208.286C567.951 201.26 567.868 196.382 567.701 193.651L549.82 231.411ZM558.012 178.417C555.881 178.417 554.099 179.133 552.667 180.565C551.269 181.997 550.187 183.911 549.421 186.309C548.988 187.608 548.671 189.539 548.472 192.103C548.272 194.633 548.155 196.931 548.122 198.995C548.089 201.06 548.072 204.157 548.072 208.286C548.072 215.311 548.155 220.19 548.322 222.92L566.203 185.16C564.438 180.665 561.708 178.417 558.012 178.417ZM543.827 183.062C546.557 175.837 551.285 172.224 558.012 172.224C564.738 172.224 569.466 175.837 572.197 183.062C572.796 184.694 573.245 186.942 573.545 189.805C573.845 192.669 574.011 195.283 574.045 197.647C574.111 199.978 574.144 203.524 574.144 208.286C574.144 213.047 574.111 216.61 574.045 218.974C574.011 221.305 573.845 223.902 573.545 226.766C573.245 229.63 572.796 231.877 572.197 233.509C569.466 240.734 564.738 244.347 558.012 244.347C551.285 244.347 546.557 240.734 543.827 233.509C543.227 231.877 542.778 229.63 542.478 226.766C542.178 223.902 541.995 221.305 541.929 218.974C541.895 216.61 541.879 213.047 541.879 208.286C541.879 203.524 541.895 199.978 541.929 197.647C541.995 195.283 542.178 192.669 542.478 189.805C542.778 186.942 543.227 184.694 543.827 183.062Z" fill="#021C8B"/>
<rect x="480.591" y="128.793" width="150.24" height="150.24" rx="18.8013" stroke="#1939FA" stroke-width="2.39745"/>
</g>
<rect x="480.591" y="128.793" width="165.424" height="165.424" rx="18.8013" stroke="#1939FA" stroke-width="2.39745"/>
<g clip-path="url(#clip5_194_415)">
<rect x="658.402" y="127.594" width="167.822" height="167.822" rx="20" fill="#E8ECFF"/>
<path d="M760.197 201.892C760.197 210.85 759.498 217.859 758.099 222.92C756.8 227.715 754.503 232.393 751.206 236.955V237.455H759.398V243.448H743.714V238.653C747.71 233.692 750.507 227.998 752.105 221.571C753.238 217.01 753.804 210.45 753.804 201.892C753.804 196.432 753.288 192.153 752.255 189.056C751.123 185.693 749.275 183.062 746.711 181.164C744.181 179.266 740.951 178.317 737.021 178.317C733.092 178.317 729.846 179.266 727.282 181.164C724.751 183.062 722.92 185.693 721.788 189.056C720.755 192.153 720.239 196.432 720.239 201.892C720.239 210.45 720.805 217.01 721.937 221.571C723.536 227.998 726.333 233.692 730.329 238.653V243.448H714.645V237.455H722.837V236.955C719.54 232.393 717.242 227.715 715.944 222.92C714.545 217.859 713.846 210.85 713.846 201.892C713.846 195.899 714.462 191.037 715.694 187.308C717.193 182.779 719.773 179.15 723.436 176.419C727.132 173.689 731.66 172.324 737.021 172.324C742.382 172.324 746.894 173.689 750.557 176.419C754.253 179.15 756.85 182.779 758.349 187.308C759.581 191.037 760.197 195.899 760.197 201.892Z" fill="#021C8B"/>
<rect x="659.6" y="128.793" width="150.24" height="150.24" rx="18.8013" stroke="#1939FA" stroke-width="2.39745"/>
</g>
<rect x="659.6" y="128.793" width="165.424" height="165.424" rx="18.8013" stroke="#1939FA" stroke-width="2.39745"/>
<g clip-path="url(#clip6_194_415)">
<rect x="658.402" y="319.39" width="167.822" height="167.822" rx="20" fill="#E8ECFF"/>
<path d="M737.421 416.864C739.552 416.864 741.4 416.514 742.965 415.815C744.53 415.116 745.696 414.217 746.461 413.118C747.227 411.986 747.777 410.87 748.11 409.771C748.476 408.639 748.659 407.507 748.659 406.375C748.659 402.979 747.544 400.448 745.313 398.783C743.115 397.118 740.168 396.286 736.472 396.286C734.374 396.286 732.543 396.635 730.978 397.335C729.446 398.001 728.297 398.9 727.532 400.032C726.766 401.131 726.216 402.229 725.883 403.328C725.55 404.427 725.384 405.559 725.384 406.725C725.384 409.056 725.967 411.02 727.132 412.618C728.331 414.183 729.796 415.282 731.527 415.915C733.292 416.548 735.257 416.864 737.421 416.864ZM727.382 420.81C724.818 419.444 722.77 417.53 721.238 415.066C719.74 412.602 718.991 409.821 718.991 406.725C718.991 403.994 719.707 401.43 721.138 399.033C722.57 396.602 724.635 394.638 727.332 393.139C725.001 391.674 723.17 389.843 721.838 387.645C720.539 385.414 719.89 382.95 719.89 380.253C719.89 378.188 720.273 376.224 721.038 374.359C721.804 372.461 722.903 370.746 724.335 369.215C725.767 367.683 727.648 366.467 729.979 365.568C732.343 364.669 734.99 364.22 737.921 364.22C741.417 364.22 745.779 364.686 751.007 365.618V371.762C745.845 370.73 741.483 370.213 737.921 370.213C736.122 370.213 734.524 370.447 733.126 370.913C731.727 371.346 730.595 371.912 729.729 372.611C728.897 373.31 728.214 374.126 727.681 375.058C727.149 375.957 726.782 376.84 726.583 377.705C726.383 378.538 726.283 379.387 726.283 380.253C726.283 383.649 727.681 386.396 730.478 388.494C731.677 389.36 733.209 389.909 735.074 390.142C736.972 390.342 738.986 390.559 741.117 390.792C743.281 390.991 745.163 391.507 746.761 392.34C749.225 393.639 751.223 395.52 752.755 397.984C754.286 400.415 755.052 403.212 755.052 406.375C755.052 409.105 754.336 411.686 752.905 414.117C751.473 416.548 749.408 418.496 746.711 419.961C748.975 421.359 750.774 423.174 752.105 425.405C753.471 427.636 754.153 430.133 754.153 432.897C754.153 434.961 753.77 436.926 753.004 438.791C752.239 440.655 751.14 442.337 749.708 443.835C748.276 445.367 746.378 446.582 744.014 447.481C741.683 448.38 739.053 448.83 736.122 448.83C732.26 448.83 727.232 448.181 721.038 446.882V440.739C727.065 442.137 732.093 442.836 736.122 442.836C737.921 442.836 739.519 442.603 740.917 442.137C742.316 441.704 743.431 441.138 744.264 440.439C745.13 439.773 745.829 438.974 746.362 438.041C746.894 437.142 747.261 436.277 747.46 435.444C747.66 434.612 747.76 433.763 747.76 432.897C747.76 430.866 747.294 429.084 746.362 427.553C745.462 426.021 744.264 424.872 742.765 424.106C741.367 423.407 738.903 422.924 735.373 422.658C731.877 422.391 729.213 421.775 727.382 420.81Z" fill="#021C8B"/>
<rect x="659.6" y="320.589" width="150.24" height="150.24" rx="18.8013" stroke="#1939FA" stroke-width="2.39745"/>
</g>
<rect x="659.6" y="320.589" width="165.424" height="165.424" rx="18.8013" stroke="#1939FA" stroke-width="2.39745"/>
<g clip-path="url(#clip7_194_415)">
<rect x="122.171" y="319.39" width="167.822" height="167.822" rx="20" fill="#1939FA"/>
<rect x="123.37" y="320.589" width="150.24" height="150.24" rx="18.8013" fill="#E8ECFF" stroke="#1939FA" stroke-width="2.39745"/>
<path d="M183.209 412.275C183.209 414.939 183.726 417.32 184.758 419.418C185.823 421.482 187.372 422.515 189.403 422.515C191.035 422.515 192.516 421.882 193.848 420.617C195.213 419.318 196.162 417.853 196.695 416.221C197.295 414.356 197.594 411.177 197.594 406.681V402.136H190.851C189.286 402.136 188.138 402.286 187.405 402.586C186.706 402.885 186.023 403.501 185.357 404.434C183.925 406.498 183.209 409.112 183.209 412.275ZM200.691 420.317C199.492 422.881 197.927 424.895 195.996 426.36C194.065 427.792 191.867 428.508 189.403 428.508C186.672 428.508 184.325 427.726 182.36 426.161C180.429 424.562 179.014 422.564 178.115 420.167C177.249 417.77 176.816 415.139 176.816 412.275C176.816 408.846 177.499 405.766 178.864 403.035C180.229 400.271 182.161 398.324 184.658 397.191C186.19 396.492 188.138 396.143 190.502 396.143H197.594V390.349C197.594 388.784 197.494 387.518 197.295 386.553C197.128 385.554 196.762 384.655 196.196 383.856C195.663 383.056 194.847 382.474 193.748 382.107C192.683 381.741 191.301 381.558 189.603 381.558C187.205 381.558 183.476 381.891 178.415 382.557V376.463C183.409 375.864 187.139 375.564 189.603 375.564C190.935 375.564 192.067 375.631 192.999 375.764C193.931 375.897 194.964 376.18 196.096 376.613C197.228 377.013 198.26 377.712 199.193 378.711C200.125 379.677 200.941 380.909 201.64 382.407H202.139C204.337 377.978 207.45 375.764 211.479 375.764C214.676 375.764 217.307 376.93 219.371 379.26C221.469 381.591 222.917 384.388 223.716 387.652C224.349 390.215 224.665 393.961 224.665 398.89V402.136H203.987V404.284C203.987 406.015 204.021 407.514 204.087 408.779C204.154 410.044 204.287 411.443 204.487 412.975C204.687 414.506 205.003 415.788 205.436 416.821C205.902 417.853 206.468 418.835 207.134 419.767C207.8 420.666 208.682 421.349 209.781 421.815C210.88 422.281 212.145 422.515 213.577 422.515C214.809 422.515 218.006 422.098 223.167 421.266V427.359C218.339 428.125 215.092 428.508 213.427 428.508C207.767 428.508 203.688 425.778 201.19 420.317H200.691ZM218.322 396.143C218.222 390.548 217.357 386.536 215.725 384.105C214.493 382.54 213.078 381.758 211.479 381.758C209.815 381.758 208.433 382.474 207.334 383.906C206.235 385.337 205.419 387.069 204.886 389.1C204.387 390.965 204.104 393.312 204.037 396.143H218.322Z" fill="#021C8B"/>
</g>
<rect x="123.37" y="320.589" width="165.424" height="165.424" rx="18.8013" stroke="#1939FA" stroke-width="2.39745"/>
<g clip-path="url(#clip8_194_415)">
<rect x="122.171" y="127.594" width="167.822" height="167.822" rx="20" fill="#E8ECFF"/>
<path d="M201.79 191.503C204.187 191.503 206.385 191.986 208.383 192.952C210.381 193.918 212.029 195.216 213.328 196.848C214.16 197.88 214.826 198.946 215.325 200.044C215.825 201.143 216.158 202.359 216.324 203.69C216.524 205.022 216.641 206.121 216.674 206.987C216.741 207.853 216.774 209.068 216.774 210.633V243.448H210.381V210.633C210.381 208.802 210.347 207.436 210.281 206.537C210.247 205.638 210.048 204.639 209.681 203.541C209.348 202.408 208.832 201.426 208.133 200.594C206.335 198.529 203.888 197.497 200.791 197.497C197.694 197.497 195.247 198.529 193.449 200.594C192.749 201.426 192.217 202.408 191.85 203.541C191.517 204.639 191.318 205.638 191.251 206.537C191.218 207.436 191.201 208.802 191.201 210.633V243.448H184.808V173.123H191.201V197.897H191.701C192.933 195.965 194.448 194.417 196.246 193.252C198.077 192.086 199.925 191.503 201.79 191.503Z" fill="#021C8B"/>
<rect x="123.37" y="128.793" width="150.24" height="150.24" rx="18.8013" stroke="#1939FA" stroke-width="2.39745"/>
</g>
<rect x="123.37" y="128.793" width="165.424" height="165.424" rx="18.8013" stroke="#1939FA" stroke-width="2.39745"/>
<mask id="path-37-inside-1_194_415" fill="white">
<path d="M863.927 411.692C862.013 411.692 859.424 411.509 856.161 411.143V408.146C859.274 408.512 861.863 408.695 863.927 408.695C864.826 408.695 865.625 408.587 866.325 408.371C867.024 408.138 867.582 407.846 867.998 407.497C868.431 407.13 868.78 406.714 869.047 406.248C869.313 405.782 869.496 405.332 869.596 404.899C869.696 404.467 869.746 404.034 869.746 403.601C869.746 402.619 869.513 401.761 869.047 401.029C868.597 400.296 867.998 399.738 867.249 399.355C866.516 398.972 865.301 398.706 863.603 398.556C861.904 398.39 860.639 398.14 859.807 397.807C858.641 397.358 857.651 396.617 856.835 395.584C856.019 394.552 855.611 393.328 855.611 391.913C855.611 390.065 856.335 388.509 857.784 387.243C859.249 385.961 861.338 385.32 864.052 385.32C865.9 385.32 868.514 385.495 871.894 385.845V388.842C868.481 388.492 865.867 388.317 864.052 388.317C862.204 388.317 860.864 388.675 860.031 389.391C859.216 390.09 858.808 390.931 858.808 391.913C858.808 392.662 859.016 393.303 859.432 393.836C859.848 394.369 860.373 394.76 861.005 395.01C861.638 395.26 862.845 395.476 864.627 395.659C866.408 395.842 867.798 396.192 868.797 396.708C870.029 397.341 871.028 398.265 871.794 399.48C872.56 400.679 872.943 402.053 872.943 403.601C872.943 404.65 872.751 405.649 872.368 406.598C871.985 407.547 871.436 408.404 870.72 409.17C870.004 409.936 869.055 410.552 867.873 411.018C866.708 411.468 865.392 411.692 863.927 411.692Z"/>
<path d="M890.237 385.32C891.436 385.32 892.534 385.562 893.533 386.045C894.532 386.527 895.356 387.177 896.006 387.992C896.422 388.509 896.755 389.041 897.005 389.591C897.254 390.14 897.421 390.748 897.504 391.414C897.604 392.08 897.662 392.629 897.679 393.062C897.712 393.495 897.729 394.103 897.729 394.885V411.293H894.532V394.885C894.532 393.969 894.516 393.287 894.482 392.837C894.466 392.388 894.366 391.888 894.183 391.339C894.016 390.773 893.758 390.282 893.408 389.865C892.509 388.833 891.286 388.317 889.737 388.317C888.189 388.317 886.965 388.833 886.066 389.865C885.717 390.282 885.45 390.773 885.267 391.339C885.101 391.888 885.001 392.388 884.967 392.837C884.951 393.287 884.942 393.969 884.942 394.885V411.293H881.746V376.13H884.942V388.517H885.192C885.808 387.551 886.566 386.777 887.465 386.194C888.38 385.612 889.304 385.32 890.237 385.32Z"/>
<path d="M912.501 376.505C913.017 375.989 913.691 375.73 914.524 375.73C915.356 375.73 916.03 375.989 916.546 376.505C917.062 377.021 917.321 377.695 917.321 378.527C917.321 379.36 917.062 380.034 916.546 380.55C916.03 381.066 915.356 381.325 914.524 381.325C913.691 381.325 913.017 381.066 912.501 380.55C911.985 380.034 911.726 379.36 911.726 378.527C911.726 377.695 911.985 377.021 912.501 376.505ZM913.724 411.293V388.717H907.331V385.72H916.921V411.293H913.724Z"/>
<path d="M939.31 411.293H936.113V391.913H929.72V388.916H936.113V383.098C936.113 382.465 936.121 381.957 936.138 381.574C936.171 381.175 936.288 380.634 936.488 379.951C936.704 379.252 937.012 378.636 937.412 378.103C937.961 377.354 938.719 376.771 939.684 376.355C940.667 375.939 941.774 375.73 943.006 375.73C944.571 375.73 946.535 375.864 948.9 376.13V379.127C946.535 378.86 944.571 378.727 943.006 378.727C941.574 378.727 940.575 379.102 940.009 379.851C939.543 380.467 939.31 381.549 939.31 383.098V388.916H948.9V391.913H939.31V411.293Z"/>
<path d="M974.485 411.318C972.703 411.567 971.105 411.692 969.69 411.692C968.358 411.692 967.143 411.451 966.044 410.968C964.962 410.485 964.079 409.828 963.397 408.995C962.864 408.362 962.464 407.622 962.198 406.773C961.932 405.923 961.782 405.216 961.748 404.65C961.715 404.084 961.698 403.301 961.698 402.302V388.867H955.305V385.72H961.698V379.327H964.895V385.72H974.485V388.867H964.895V402.053C964.895 402.968 964.903 403.651 964.92 404.1C964.953 404.55 965.053 405.066 965.22 405.649C965.386 406.231 965.636 406.731 965.969 407.147C966.835 408.179 968.158 408.695 969.94 408.695C971.122 408.695 972.637 408.571 974.485 408.321V411.318Z"/>
</mask>
<path d="M863.927 411.692C862.013 411.692 859.424 411.509 856.161 411.143V408.146C859.274 408.512 861.863 408.695 863.927 408.695C864.826 408.695 865.625 408.587 866.325 408.371C867.024 408.138 867.582 407.846 867.998 407.497C868.431 407.13 868.78 406.714 869.047 406.248C869.313 405.782 869.496 405.332 869.596 404.899C869.696 404.467 869.746 404.034 869.746 403.601C869.746 402.619 869.513 401.761 869.047 401.029C868.597 400.296 867.998 399.738 867.249 399.355C866.516 398.972 865.301 398.706 863.603 398.556C861.904 398.39 860.639 398.14 859.807 397.807C858.641 397.358 857.651 396.617 856.835 395.584C856.019 394.552 855.611 393.328 855.611 391.913C855.611 390.065 856.335 388.509 857.784 387.243C859.249 385.961 861.338 385.32 864.052 385.32C865.9 385.32 868.514 385.495 871.894 385.845V388.842C868.481 388.492 865.867 388.317 864.052 388.317C862.204 388.317 860.864 388.675 860.031 389.391C859.216 390.09 858.808 390.931 858.808 391.913C858.808 392.662 859.016 393.303 859.432 393.836C859.848 394.369 860.373 394.76 861.005 395.01C861.638 395.26 862.845 395.476 864.627 395.659C866.408 395.842 867.798 396.192 868.797 396.708C870.029 397.341 871.028 398.265 871.794 399.48C872.56 400.679 872.943 402.053 872.943 403.601C872.943 404.65 872.751 405.649 872.368 406.598C871.985 407.547 871.436 408.404 870.72 409.17C870.004 409.936 869.055 410.552 867.873 411.018C866.708 411.468 865.392 411.692 863.927 411.692Z" fill="#021C8B"/>
<path d="M890.237 385.32C891.436 385.32 892.534 385.562 893.533 386.045C894.532 386.527 895.356 387.177 896.006 387.992C896.422 388.509 896.755 389.041 897.005 389.591C897.254 390.14 897.421 390.748 897.504 391.414C897.604 392.08 897.662 392.629 897.679 393.062C897.712 393.495 897.729 394.103 897.729 394.885V411.293H894.532V394.885C894.532 393.969 894.516 393.287 894.482 392.837C894.466 392.388 894.366 391.888 894.183 391.339C894.016 390.773 893.758 390.282 893.408 389.865C892.509 388.833 891.286 388.317 889.737 388.317C888.189 388.317 886.965 388.833 886.066 389.865C885.717 390.282 885.45 390.773 885.267 391.339C885.101 391.888 885.001 392.388 884.967 392.837C884.951 393.287 884.942 393.969 884.942 394.885V411.293H881.746V376.13H884.942V388.517H885.192C885.808 387.551 886.566 386.777 887.465 386.194C888.38 385.612 889.304 385.32 890.237 385.32Z" fill="#021C8B"/>
<path d="M912.501 376.505C913.017 375.989 913.691 375.73 914.524 375.73C915.356 375.73 916.03 375.989 916.546 376.505C917.062 377.021 917.321 377.695 917.321 378.527C917.321 379.36 917.062 380.034 916.546 380.55C916.03 381.066 915.356 381.325 914.524 381.325C913.691 381.325 913.017 381.066 912.501 380.55C911.985 380.034 911.726 379.36 911.726 378.527C911.726 377.695 911.985 377.021 912.501 376.505ZM913.724 411.293V388.717H907.331V385.72H916.921V411.293H913.724Z" fill="#021C8B"/>
<path d="M939.31 411.293H936.113V391.913H929.72V388.916H936.113V383.098C936.113 382.465 936.121 381.957 936.138 381.574C936.171 381.175 936.288 380.634 936.488 379.951C936.704 379.252 937.012 378.636 937.412 378.103C937.961 377.354 938.719 376.771 939.684 376.355C940.667 375.939 941.774 375.73 943.006 375.73C944.571 375.73 946.535 375.864 948.9 376.13V379.127C946.535 378.86 944.571 378.727 943.006 378.727C941.574 378.727 940.575 379.102 940.009 379.851C939.543 380.467 939.31 381.549 939.31 383.098V388.916H948.9V391.913H939.31V411.293Z" fill="#021C8B"/>
<path d="M974.485 411.318C972.703 411.567 971.105 411.692 969.69 411.692C968.358 411.692 967.143 411.451 966.044 410.968C964.962 410.485 964.079 409.828 963.397 408.995C962.864 408.362 962.464 407.622 962.198 406.773C961.932 405.923 961.782 405.216 961.748 404.65C961.715 404.084 961.698 403.301 961.698 402.302V388.867H955.305V385.72H961.698V379.327H964.895V385.72H974.485V388.867H964.895V402.053C964.895 402.968 964.903 403.651 964.92 404.1C964.953 404.55 965.053 405.066 965.22 405.649C965.386 406.231 965.636 406.731 965.969 407.147C966.835 408.179 968.158 408.695 969.94 408.695C971.122 408.695 972.637 408.571 974.485 408.321V411.318Z" fill="#021C8B"/>
<path d="M863.927 411.692C862.013 411.692 859.424 411.509 856.161 411.143V408.146C859.274 408.512 861.863 408.695 863.927 408.695C864.826 408.695 865.625 408.587 866.325 408.371C867.024 408.138 867.582 407.846 867.998 407.497C868.431 407.13 868.78 406.714 869.047 406.248C869.313 405.782 869.496 405.332 869.596 404.899C869.696 404.467 869.746 404.034 869.746 403.601C869.746 402.619 869.513 401.761 869.047 401.029C868.597 400.296 867.998 399.738 867.249 399.355C866.516 398.972 865.301 398.706 863.603 398.556C861.904 398.39 860.639 398.14 859.807 397.807C858.641 397.358 857.651 396.617 856.835 395.584C856.019 394.552 855.611 393.328 855.611 391.913C855.611 390.065 856.335 388.509 857.784 387.243C859.249 385.961 861.338 385.32 864.052 385.32C865.9 385.32 868.514 385.495 871.894 385.845V388.842C868.481 388.492 865.867 388.317 864.052 388.317C862.204 388.317 860.864 388.675 860.031 389.391C859.216 390.09 858.808 390.931 858.808 391.913C858.808 392.662 859.016 393.303 859.432 393.836C859.848 394.369 860.373 394.76 861.005 395.01C861.638 395.26 862.845 395.476 864.627 395.659C866.408 395.842 867.798 396.192 868.797 396.708C870.029 397.341 871.028 398.265 871.794 399.48C872.56 400.679 872.943 402.053 872.943 403.601C872.943 404.65 872.751 405.649 872.368 406.598C871.985 407.547 871.436 408.404 870.72 409.17C870.004 409.936 869.055 410.552 867.873 411.018C866.708 411.468 865.392 411.692 863.927 411.692Z" stroke="#021C8B" stroke-width="4.79491" mask="url(#path-37-inside-1_194_415)"/>
<path d="M890.237 385.32C891.436 385.32 892.534 385.562 893.533 386.045C894.532 386.527 895.356 387.177 896.006 387.992C896.422 388.509 896.755 389.041 897.005 389.591C897.254 390.14 897.421 390.748 897.504 391.414C897.604 392.08 897.662 392.629 897.679 393.062C897.712 393.495 897.729 394.103 897.729 394.885V411.293H894.532V394.885C894.532 393.969 894.516 393.287 894.482 392.837C894.466 392.388 894.366 391.888 894.183 391.339C894.016 390.773 893.758 390.282 893.408 389.865C892.509 388.833 891.286 388.317 889.737 388.317C888.189 388.317 886.965 388.833 886.066 389.865C885.717 390.282 885.45 390.773 885.267 391.339C885.101 391.888 885.001 392.388 884.967 392.837C884.951 393.287 884.942 393.969 884.942 394.885V411.293H881.746V376.13H884.942V388.517H885.192C885.808 387.551 886.566 386.777 887.465 386.194C888.38 385.612 889.304 385.32 890.237 385.32Z" stroke="#021C8B" stroke-width="4.79491" mask="url(#path-37-inside-1_194_415)"/>
<path d="M912.501 376.505C913.017 375.989 913.691 375.73 914.524 375.73C915.356 375.73 916.03 375.989 916.546 376.505C917.062 377.021 917.321 377.695 917.321 378.527C917.321 379.36 917.062 380.034 916.546 380.55C916.03 381.066 915.356 381.325 914.524 381.325C913.691 381.325 913.017 381.066 912.501 380.55C911.985 380.034 911.726 379.36 911.726 378.527C911.726 377.695 911.985 377.021 912.501 376.505ZM913.724 411.293V388.717H907.331V385.72H916.921V411.293H913.724Z" stroke="#021C8B" stroke-width="4.79491" mask="url(#path-37-inside-1_194_415)"/>
<path d="M939.31 411.293H936.113V391.913H929.72V388.916H936.113V383.098C936.113 382.465 936.121 381.957 936.138 381.574C936.171 381.175 936.288 380.634 936.488 379.951C936.704 379.252 937.012 378.636 937.412 378.103C937.961 377.354 938.719 376.771 939.684 376.355C940.667 375.939 941.774 375.73 943.006 375.73C944.571 375.73 946.535 375.864 948.9 376.13V379.127C946.535 378.86 944.571 378.727 943.006 378.727C941.574 378.727 940.575 379.102 940.009 379.851C939.543 380.467 939.31 381.549 939.31 383.098V388.916H948.9V391.913H939.31V411.293Z" stroke="#021C8B" stroke-width="4.79491" mask="url(#path-37-inside-1_194_415)"/>
<path d="M974.485 411.318C972.703 411.567 971.105 411.692 969.69 411.692C968.358 411.692 967.143 411.451 966.044 410.968C964.962 410.485 964.079 409.828 963.397 408.995C962.864 408.362 962.464 407.622 962.198 406.773C961.932 405.923 961.782 405.216 961.748 404.65C961.715 404.084 961.698 403.301 961.698 402.302V388.867H955.305V385.72H961.698V379.327H964.895V385.72H974.485V388.867H964.895V402.053C964.895 402.968 964.903 403.651 964.92 404.1C964.953 404.55 965.053 405.066 965.22 405.649C965.386 406.231 965.636 406.731 965.969 407.147C966.835 408.179 968.158 408.695 969.94 408.695C971.122 408.695 972.637 408.571 974.485 408.321V411.318Z" stroke="#021C8B" stroke-width="4.79491" mask="url(#path-37-inside-1_194_415)"/>
<g clip-path="url(#clip9_194_415)">
<rect x="1015.62" y="128.393" width="167.822" height="167.822" rx="20" fill="#1939FA"/>
<rect x="1016.82" y="129.592" width="150.24" height="150.24" rx="18.8013" fill="#E8ECFF" stroke="#1939FA" stroke-width="2.39745"/>
<path d="M1032.45 206.913C1032.36 205.914 1032.31 204.638 1032.31 203.084C1032.31 201.53 1032.36 200.254 1032.45 199.255C1032.56 198.256 1032.81 197.319 1033.2 196.445C1034.47 193.546 1036.82 192.096 1040.26 192.096C1041.83 192.096 1043.77 192.221 1046.09 192.47V197.465C1043.74 197.215 1041.8 197.091 1040.26 197.091C1039.66 197.091 1039.19 197.25 1038.84 197.569C1038.5 197.888 1038.21 198.374 1037.99 199.026C1037.75 199.747 1037.64 201.1 1037.64 203.084C1037.64 205.068 1037.75 206.421 1037.99 207.142C1038.21 207.794 1038.5 208.28 1038.84 208.599C1039.19 208.918 1039.66 209.078 1040.26 209.078C1041.88 209.078 1043.89 208.897 1046.29 208.537V213.531C1043.91 213.892 1041.9 214.072 1040.26 214.072C1036.82 214.072 1034.47 212.623 1033.2 209.723C1032.81 208.849 1032.56 207.912 1032.45 206.913ZM1068.95 213.76C1067.46 213.968 1066.13 214.072 1064.95 214.072C1063.84 214.072 1062.83 213.871 1061.91 213.469C1061.01 213.067 1060.27 212.519 1059.71 211.825C1059.26 211.298 1058.93 210.68 1058.71 209.973C1058.49 209.265 1058.36 208.675 1058.33 208.204C1058.3 207.732 1058.29 207.08 1058.29 206.247V197.548H1052.96V192.429H1058.29V187.101H1063.62V192.429H1068.95V197.548H1063.62V206.039C1063.62 207.066 1063.72 207.829 1063.93 208.329C1064.15 208.828 1064.56 209.078 1065.16 209.078C1066.14 209.078 1067.41 208.974 1068.95 208.766V213.76ZM1085.19 197.091C1084.04 197.091 1083.12 197.458 1082.42 198.194C1082.07 198.582 1081.79 199.012 1081.57 199.484C1081.36 199.942 1081.21 200.462 1081.13 201.045C1081.05 201.613 1080.99 202.078 1080.96 202.439C1080.95 202.786 1080.94 203.258 1080.94 203.854V213.74H1075.62V192.429H1080.94V194.697H1081.15C1081.71 193.851 1082.31 193.206 1082.96 192.762C1083.63 192.318 1084.44 192.096 1085.4 192.096C1086.37 192.096 1087.55 192.186 1088.94 192.366V197.361C1087.46 197.181 1086.22 197.091 1085.19 197.091ZM1110.26 213.968C1108.49 214.038 1107.22 214.072 1106.43 214.072C1104.4 214.072 1102.8 213.559 1101.62 212.532C1101.15 212.116 1100.76 211.679 1100.45 211.221C1100.16 210.763 1099.96 210.278 1099.85 209.765C1099.74 209.251 1099.67 208.842 1099.64 208.537C1099.62 208.231 1099.6 207.829 1099.6 207.33V184.437H1104.93V206.913C1104.93 207.663 1105.12 208.211 1105.51 208.558C1105.9 208.904 1106.59 209.078 1107.59 209.078C1108.54 209.078 1109.42 209.043 1110.26 208.974V213.968ZM1127.58 197.923H1134.24V202.918H1127.58V209.577H1122.25V202.918H1115.59V197.923H1122.25V191.263H1127.58V197.923ZM1139.06 206.913C1138.96 205.914 1138.91 204.638 1138.91 203.084C1138.91 201.53 1138.96 200.254 1139.06 199.255C1139.17 198.256 1139.42 197.319 1139.81 196.445C1141.07 193.546 1143.42 192.096 1146.86 192.096C1148.43 192.096 1150.37 192.221 1152.69 192.47V197.465C1150.35 197.215 1148.4 197.091 1146.86 197.091C1146.27 197.091 1145.8 197.25 1145.45 197.569C1145.1 197.888 1144.82 198.374 1144.6 199.026C1144.36 199.747 1144.24 201.1 1144.24 203.084C1144.24 205.068 1144.36 206.421 1144.6 207.142C1144.82 207.794 1145.1 208.28 1145.45 208.599C1145.8 208.918 1146.27 209.078 1146.86 209.078C1148.49 209.078 1150.5 208.897 1152.9 208.537V213.531C1150.51 213.892 1148.5 214.072 1146.86 214.072C1143.42 214.072 1141.07 212.623 1139.81 209.723C1139.42 208.849 1139.17 207.912 1139.06 206.913Z" fill="#021C8B"/>
</g>
<rect x="1016.82" y="129.592" width="165.424" height="165.424" rx="18.8013" stroke="#1939FA" stroke-width="2.39745"/>
<g clip-path="url(#clip10_194_415)">
<rect x="301.98" y="127.594" width="167.822" height="167.822" rx="20" fill="#1939FA"/>
<rect x="303.179" y="128.793" width="150.24" height="150.24" rx="18.8013" fill="#E8ECFF" stroke="#1939FA" stroke-width="2.39745"/>
<path d="M318.812 206.114C318.714 205.115 318.666 203.839 318.666 202.285C318.666 200.731 318.714 199.455 318.812 198.456C318.923 197.457 319.172 196.52 319.561 195.646C320.823 192.747 323.175 191.297 326.616 191.297C328.184 191.297 330.126 191.422 332.443 191.671V196.666C330.098 196.416 328.156 196.291 326.616 196.291C326.019 196.291 325.548 196.451 325.201 196.77C324.854 197.089 324.569 197.575 324.347 198.227C324.112 198.948 323.994 200.301 323.994 202.285C323.994 204.269 324.112 205.622 324.347 206.343C324.569 206.995 324.854 207.481 325.201 207.8C325.548 208.119 326.019 208.279 326.616 208.279C328.239 208.279 330.251 208.098 332.651 207.738V212.732C330.265 213.093 328.253 213.273 326.616 213.273C323.175 213.273 320.823 211.824 319.561 208.924C319.172 208.05 318.923 207.113 318.812 206.114ZM355.304 212.961C353.82 213.169 352.488 213.273 351.308 213.273C350.198 213.273 349.186 213.072 348.27 212.67C347.368 212.268 346.633 211.72 346.064 211.026C345.62 210.499 345.287 209.881 345.065 209.174C344.843 208.466 344.718 207.876 344.69 207.405C344.663 206.933 344.649 206.281 344.649 205.448V196.749H339.321V191.63H344.649V186.302H349.976V191.63H355.304V196.749H349.976V205.24C349.976 206.267 350.08 207.03 350.289 207.53C350.511 208.029 350.92 208.279 351.516 208.279C352.502 208.279 353.764 208.175 355.304 207.967V212.961ZM371.547 196.291C370.396 196.291 369.473 196.659 368.779 197.394C368.433 197.783 368.148 198.213 367.926 198.685C367.718 199.143 367.572 199.663 367.489 200.246C367.406 200.814 367.35 201.279 367.323 201.64C367.309 201.987 367.302 202.459 367.302 203.055V212.94H361.974V191.63H367.302V193.898H367.51C368.065 193.052 368.668 192.407 369.32 191.963C369.986 191.519 370.798 191.297 371.755 191.297C372.727 191.297 373.906 191.387 375.293 191.567V196.562C373.823 196.382 372.574 196.291 371.547 196.291ZM396.614 213.169C394.852 213.239 393.576 213.273 392.785 213.273C390.76 213.273 389.157 212.76 387.978 211.733C387.506 211.317 387.118 210.88 386.812 210.422C386.521 209.964 386.32 209.479 386.209 208.965C386.098 208.452 386.028 208.043 386.001 207.738C385.973 207.432 385.959 207.03 385.959 206.531V183.638H391.287V206.114C391.287 206.864 391.481 207.412 391.869 207.758C392.258 208.105 392.952 208.279 393.951 208.279C394.894 208.279 395.782 208.244 396.614 208.175V213.169ZM413.94 197.124H420.599V202.119H413.94V208.778H408.612V202.119H401.952V197.124H408.612V190.464H413.94V197.124ZM429.6 191.63C430.377 197.97 431.341 203.568 432.493 208.424H432.701C433.853 203.555 434.817 197.956 435.594 191.63H440.963C439.895 199.802 438.48 206.905 436.718 212.94H428.476C426.714 206.905 425.299 199.802 424.231 191.63H429.6Z" fill="#021C8B"/>
</g>
<rect x="303.179" y="128.793" width="165.424" height="165.424" rx="18.8013" stroke="#1939FA" stroke-width="2.39745"/>
<g clip-path="url(#clip11_194_415)">
<rect x="479.392" y="319.39" width="167.822" height="167.822" rx="20" fill="#1939FA"/>
<rect x="480.591" y="320.589" width="150.24" height="150.24" rx="18.8013" fill="#E8ECFF" stroke="#1939FA" stroke-width="2.39745"/>
<path d="M496.223 397.911C496.126 396.912 496.077 395.635 496.077 394.081C496.077 392.528 496.126 391.251 496.223 390.252C496.334 389.253 496.584 388.317 496.972 387.443C498.235 384.543 500.587 383.093 504.027 383.093C505.595 383.093 507.538 383.218 509.855 383.468V388.462C507.51 388.213 505.567 388.088 504.027 388.088C503.431 388.088 502.959 388.247 502.612 388.566C502.265 388.886 501.981 389.371 501.759 390.023C501.523 390.745 501.405 392.097 501.405 394.081C501.405 396.065 501.523 397.418 501.759 398.14C501.981 398.792 502.265 399.277 502.612 399.596C502.959 399.916 503.431 400.075 504.027 400.075C505.651 400.075 507.662 399.895 510.063 399.534V404.529C507.676 404.889 505.665 405.07 504.027 405.07C500.587 405.07 498.235 403.62 496.972 400.72C496.584 399.846 496.334 398.91 496.223 397.911ZM532.716 404.758C531.231 404.966 529.899 405.07 528.72 405.07C527.61 405.07 526.597 404.869 525.681 404.466C524.78 404.064 524.044 403.516 523.475 402.822C523.031 402.295 522.699 401.678 522.477 400.97C522.255 400.262 522.13 399.673 522.102 399.201C522.074 398.729 522.06 398.077 522.06 397.245V388.546H516.733V383.426H522.06V378.098H527.388V383.426H532.716V388.546H527.388V397.037C527.388 398.063 527.492 398.826 527.7 399.326C527.922 399.825 528.331 400.075 528.928 400.075C529.913 400.075 531.176 399.971 532.716 399.763V404.758ZM548.959 388.088C547.807 388.088 546.885 388.455 546.191 389.191C545.844 389.579 545.56 390.009 545.338 390.481C545.13 390.939 544.984 391.459 544.901 392.042C544.817 392.611 544.762 393.076 544.734 393.436C544.72 393.783 544.713 394.255 544.713 394.851V404.737H539.386V383.426H544.713V385.695H544.921C545.476 384.848 546.08 384.203 546.732 383.759C547.398 383.315 548.21 383.093 549.167 383.093C550.138 383.093 551.317 383.183 552.705 383.364V388.358C551.234 388.178 549.986 388.088 548.959 388.088ZM574.026 404.966C572.264 405.035 570.988 405.07 570.197 405.07C568.171 405.07 566.569 404.556 565.389 403.53C564.918 403.114 564.529 402.677 564.224 402.219C563.933 401.761 563.731 401.275 563.62 400.762C563.509 400.249 563.44 399.839 563.412 399.534C563.384 399.229 563.371 398.826 563.371 398.327V375.435H568.698V397.911C568.698 398.66 568.893 399.208 569.281 399.555C569.669 399.902 570.363 400.075 571.362 400.075C572.306 400.075 573.194 400.04 574.026 399.971V404.966ZM591.351 388.92H598.011V393.915H591.351V400.575H586.024V393.915H579.364V388.92H586.024V382.261H591.351V388.92ZM603.765 388.421V383.426H616.252V387.796L609.28 399.534V399.742H616.668V404.737H603.349V400.325L610.321 388.629V388.421H603.765Z" fill="#021C8B"/>
</g>
<rect x="480.591" y="320.589" width="165.424" height="165.424" rx="18.8013" stroke="#1939FA" stroke-width="2.39745"/>
<defs>
<clipPath id="clip0_194_415">
<rect x="837.412" y="319.39" width="167.822" height="167.822" rx="20" fill="white"/>
</clipPath>
<clipPath id="clip1_194_415">
<rect x="1015.62" y="319.39" width="167.822" height="167.822" rx="20" fill="white"/>
</clipPath>
<clipPath id="clip2_194_415">
<rect x="301.98" y="319.39" width="167.822" height="167.822" rx="20" fill="white"/>
</clipPath>
<clipPath id="clip3_194_415">
<rect x="837.412" y="127.594" width="167.822" height="167.822" rx="20" fill="white"/>
</clipPath>
<clipPath id="clip4_194_415">
<rect x="479.392" y="127.594" width="167.822" height="167.822" rx="20" fill="white"/>
</clipPath>
<clipPath id="clip5_194_415">
<rect x="658.402" y="127.594" width="167.822" height="167.822" rx="20" fill="white"/>
</clipPath>
<clipPath id="clip6_194_415">
<rect x="658.402" y="319.39" width="167.822" height="167.822" rx="20" fill="white"/>
</clipPath>
<clipPath id="clip7_194_415">
<rect x="122.171" y="319.39" width="167.822" height="167.822" rx="20" fill="white"/>
</clipPath>
<clipPath id="clip8_194_415">
<rect x="122.171" y="127.594" width="167.822" height="167.822" rx="20" fill="white"/>
</clipPath>
<clipPath id="clip9_194_415">
<rect x="1015.62" y="128.393" width="167.822" height="167.822" rx="20" fill="white"/>
</clipPath>
<clipPath id="clip10_194_415">
<rect x="301.98" y="127.594" width="167.822" height="167.822" rx="20" fill="white"/>
</clipPath>
<clipPath id="clip11_194_415">
<rect x="479.392" y="319.39" width="167.822" height="167.822" rx="20" fill="white"/>
</clipPath>
</defs>
</svg>
