<svg width="1320" height="680" viewBox="0 0 1320 680" fill="none" xmlns="http://www.w3.org/2000/svg">
<path d="M1320 640C1320 662.091 1302.09 680 1280 680H40C17.9086 680 0 662.091 0 640V318C0 295.909 17.9086 278 40 278H620C642.091 278 660 260.091 660 238V40C660 17.9086 677.909 0 700 0H1280C1302.09 0 1320 17.9086 1320 40V640Z" fill="#1939FA"/>
<path d="M1207.25 364.649L972.821 500.395" stroke="#E8ECFF" stroke-width="3"/>
<path d="M945.449 364.649L711.017 500.395" stroke="#E8ECFF" stroke-width="3"/>
<path d="M1118.83 415.756L597.031 415.756" stroke="#E8ECFF" stroke-width="3"/>
<path d="M685.432 364.649L451 500.395" stroke="#E8ECFF" stroke-width="3"/>
<path d="M451 500.952L972.821 500.952" stroke="#E8ECFF" stroke-width="3"/>
<path d="M685.346 364.649L1207.25 364.649" stroke="#E8ECFF" stroke-width="3"/>
<path d="M907.022 147.238H898.729V101.623H907.022L913.081 115.813H913.437L919.463 101.623H927.757V147.238H919.463V118.211H919.139L915.025 126.504H911.461L907.346 118.081H907.022V147.238Z" fill="#C0C6D2"/>
<path d="M984.828 423.823H970.988V347.706H984.828L994.937 371.384H995.532L1005.59 347.706H1019.43V423.823H1005.59V375.385H1005.05L998.181 389.224H992.234L985.368 375.169H984.828V423.823Z" fill="#202020"/>
<g filter="url(#filter0_d_280_170)">
<path d="M814.085 434.652H766.028V170.339H814.085L849.189 252.562H851.254L886.171 170.339H934.227V434.652H886.171V266.453H884.293L860.453 314.51H839.803L815.963 265.702H814.085V434.652Z" fill="#E8ECFF"/>
</g>
<path d="M1030.49 282.607H1019.59V222.686H1030.49L1038.45 241.326H1038.91L1046.83 222.686H1057.72V282.607H1046.83V244.475H1046.4L1041 255.37H1036.32L1030.91 244.305H1030.49V282.607Z" fill="#C0C6D2"/>
<path d="M1079.39 165.652H1067.78V101.797H1079.39L1087.87 121.661H1088.37L1096.8 101.797H1108.41V165.652H1096.8V125.017H1096.35L1090.59 136.627H1085.6L1079.84 124.836H1079.39V165.652Z" fill="#E8ECFF"/>
<path d="M1010.53 200.238H1002.58V156.512H1010.53L1016.34 170.114H1016.68L1022.45 156.512H1030.4V200.238H1022.45V172.412H1022.14L1018.2 180.363H1014.78L1010.84 172.288H1010.53V200.238Z" fill="#202020"/>
<path d="M1101.4 238.499H1093.45V194.772H1101.4L1107.2 208.375H1107.55L1113.32 194.772H1121.27V238.499H1113.32V210.673H1113.01L1109.07 218.623H1105.65L1101.71 210.548H1101.4V238.499Z" fill="#202020"/>
<path d="M730.313 423.823H722.363V380.096H730.313L736.121 393.699H736.462L742.239 380.096H750.189V423.823H742.239V395.997H741.928L737.984 403.947H734.568L730.624 395.872H730.313V423.823Z" fill="#C0C6D2"/>
<path d="M798.9 488.387H790.95V444.661H798.9L804.708 458.263H805.049L810.826 444.661H818.776V488.387H810.826V460.561H810.515L806.571 468.511H803.155L799.211 460.437H798.9V488.387Z" fill="#202020"/>
<path d="M751.539 357.802H737.699V281.686H751.539L761.648 305.364H762.243L772.298 281.686H786.137V357.802H772.298V309.364H771.757L764.892 323.204H758.945L752.079 309.148H751.539V357.802Z" fill="#202020"/>
<path d="M652.613 468.583H639.363V395.706H652.613L662.292 418.376H662.862L672.489 395.706H685.739V468.583H672.489V422.207H671.971L665.398 435.457H659.704L653.131 422H652.613V468.583Z" fill="#E8ECFF"/>
<path d="M1240.07 31.0532V46.1333H1224.96V31.0532H1240.07Z" stroke="#E8ECFF" stroke-width="2"/>
<path d="M1234.63 36.488V51.5681H1219.52V36.488H1234.63Z" fill="#1939FA" stroke="#E8ECFF" stroke-width="2"/>
<line y1="-1" x2="31.8971" y2="-1" transform="matrix(0.707738 0.706475 -0.707738 0.706475 1257.06 30.0339)" stroke="#E8ECFF" stroke-width="2"/>
<line y1="-1" x2="31.8971" y2="-1" transform="matrix(-0.707738 0.706475 0.707738 0.706475 1280.18 30.0339)" stroke="#E8ECFF" stroke-width="2"/>
<line x1="1179.81" y1="40.3013" x2="1202.93" y2="40.3013" stroke="#E8ECFF" stroke-width="2"/>
<rect x="1279.37" y="104.462" width="20.38" height="21.38" rx="5.19" transform="rotate(90 1279.37 104.462)" stroke="#C0C6D2" stroke-width="1.62"/>
<rect x="1280.84" y="207.183" width="157.466" height="22.1033" rx="6" transform="rotate(90 1280.84 207.183)" fill="#E8ECFF"/>
<rect x="1279.37" y="82.4619" width="21.38" height="21.38" rx="5.19" transform="rotate(90 1279.37 82.4619)" stroke="#C0C6D2" stroke-width="1.62"/>
<rect x="926" y="575.385" width="176" height="36" rx="10" fill="#E8ECFF"/>
<path d="M993.01 584.552C994.01 584.552 995.056 584.629 996.146 584.781V586.031C995.007 585.879 993.962 585.802 993.01 585.802C991.851 585.802 990.917 586.07 990.208 586.604C989.507 587.132 989.035 587.865 988.792 588.802C988.597 589.559 988.5 590.642 988.5 592.052C988.5 593.462 988.597 594.545 988.792 595.302C989.035 596.24 989.479 596.976 990.125 597.51C990.771 598.038 991.628 598.302 992.698 598.302C993.51 598.302 994.389 598.219 995.333 598.052V592.635H992.667V591.385H996.667V599.031C995.215 599.379 993.892 599.552 992.698 599.552C991.302 599.552 990.16 599.195 989.271 598.479C988.389 597.764 987.795 596.802 987.49 595.594C987.274 594.747 987.167 593.566 987.167 592.052C987.167 590.538 987.274 589.358 987.49 588.51C987.795 587.302 988.42 586.34 989.365 585.625C990.316 584.91 991.531 584.552 993.01 584.552ZM1006.65 599.5C1005.99 599.535 1005.51 599.552 1005.21 599.552C1004.46 599.552 1003.86 599.316 1003.41 598.844C1003.17 598.601 1002.99 598.32 1002.87 598C1002.76 597.674 1002.69 597.417 1002.67 597.229C1002.65 597.035 1002.65 596.785 1002.65 596.479V584.719H1003.98V596.479C1003.98 596.695 1003.98 596.861 1003.99 596.979C1004 597.097 1004.02 597.24 1004.06 597.406C1004.11 597.573 1004.18 597.719 1004.27 597.844C1004.5 598.149 1004.85 598.302 1005.31 598.302C1005.78 598.302 1006.23 598.285 1006.65 598.25V599.5ZM1016.62 594.052H1014.58C1014.33 594.052 1014.12 594.059 1013.98 594.073C1013.84 594.087 1013.66 594.139 1013.45 594.229C1013.23 594.313 1013.04 594.441 1012.87 594.615C1012.48 595.024 1012.29 595.563 1012.29 596.229C1012.29 596.82 1012.46 597.313 1012.79 597.708C1013.13 598.104 1013.59 598.302 1014.17 598.302C1014.5 598.302 1014.79 598.254 1015.05 598.156C1015.31 598.059 1015.53 597.938 1015.7 597.792C1015.87 597.646 1016.02 597.455 1016.13 597.219C1016.26 596.983 1016.35 596.764 1016.41 596.563C1016.47 596.354 1016.52 596.108 1016.55 595.823C1016.59 595.538 1016.61 595.306 1016.61 595.125C1016.62 594.945 1016.62 594.729 1016.62 594.479V594.052ZM1014.96 588.552C1015.55 588.552 1016.08 588.646 1016.53 588.833C1016.98 589.014 1017.35 589.361 1017.64 589.875C1017.85 590.243 1017.96 590.813 1017.96 591.583V599.385H1016.62V598.104H1016.52C1015.82 599.07 1014.95 599.552 1013.92 599.552C1013.08 599.552 1012.38 599.24 1011.81 598.615C1011.24 597.99 1010.96 597.201 1010.96 596.25C1010.96 595.25 1011.26 594.445 1011.87 593.833C1012.1 593.618 1012.33 593.441 1012.58 593.302C1012.83 593.163 1013.09 593.07 1013.36 593.021C1013.64 592.965 1013.86 592.934 1014.01 592.927C1014.17 592.913 1014.37 592.906 1014.6 592.906H1016.62V591.635C1016.62 591.031 1016.56 590.622 1016.44 590.406C1016.32 590.205 1016.15 590.056 1015.93 589.958C1015.71 589.854 1015.39 589.802 1014.96 589.802C1014.12 589.802 1013.12 589.875 1011.96 590.021V588.75C1013.1 588.618 1014.1 588.552 1014.96 588.552ZM1025.84 599.552C1025.04 599.552 1023.96 599.476 1022.6 599.323V598.073C1023.9 598.226 1024.98 598.302 1025.84 598.302C1026.22 598.302 1026.55 598.257 1026.84 598.167C1027.13 598.07 1027.37 597.948 1027.54 597.802C1027.72 597.649 1027.87 597.476 1027.98 597.281C1028.09 597.087 1028.16 596.899 1028.21 596.719C1028.25 596.538 1028.27 596.358 1028.27 596.177C1028.27 595.767 1028.17 595.41 1027.98 595.104C1027.79 594.799 1027.54 594.566 1027.23 594.406C1026.92 594.247 1026.41 594.135 1025.71 594.073C1025 594.004 1024.47 593.899 1024.12 593.76C1023.64 593.573 1023.22 593.264 1022.88 592.833C1022.54 592.403 1022.37 591.892 1022.37 591.302C1022.37 590.531 1022.68 589.882 1023.28 589.354C1023.89 588.82 1024.76 588.552 1025.89 588.552C1026.66 588.552 1027.76 588.625 1029.16 588.771V590.021C1027.74 589.875 1026.65 589.802 1025.89 589.802C1025.12 589.802 1024.56 589.951 1024.22 590.25C1023.88 590.542 1023.71 590.892 1023.71 591.302C1023.71 591.615 1023.79 591.882 1023.97 592.104C1024.14 592.326 1024.36 592.49 1024.62 592.594C1024.89 592.698 1025.39 592.788 1026.13 592.865C1026.88 592.941 1027.46 593.087 1027.87 593.302C1028.39 593.566 1028.8 593.951 1029.12 594.458C1029.44 594.958 1029.6 595.531 1029.6 596.177C1029.6 596.615 1029.52 597.031 1029.36 597.427C1029.2 597.823 1028.97 598.181 1028.68 598.5C1028.38 598.82 1027.98 599.076 1027.49 599.271C1027 599.458 1026.45 599.552 1025.84 599.552ZM1037.15 599.552C1036.36 599.552 1035.28 599.476 1033.91 599.323V598.073C1035.21 598.226 1036.29 598.302 1037.15 598.302C1037.53 598.302 1037.86 598.257 1038.15 598.167C1038.45 598.07 1038.68 597.948 1038.85 597.802C1039.03 597.649 1039.18 597.476 1039.29 597.281C1039.4 597.087 1039.48 596.899 1039.52 596.719C1039.56 596.538 1039.58 596.358 1039.58 596.177C1039.58 595.767 1039.48 595.41 1039.29 595.104C1039.1 594.799 1038.85 594.566 1038.54 594.406C1038.23 594.247 1037.73 594.135 1037.02 594.073C1036.31 594.004 1035.78 593.899 1035.44 593.76C1034.95 593.573 1034.54 593.264 1034.2 592.833C1033.86 592.403 1033.69 591.892 1033.69 591.302C1033.69 590.531 1033.99 589.882 1034.59 589.354C1035.2 588.82 1036.07 588.552 1037.21 588.552C1037.98 588.552 1039.07 588.625 1040.48 588.771V590.021C1039.05 589.875 1037.96 589.802 1037.21 589.802C1036.44 589.802 1035.88 589.951 1035.53 590.25C1035.19 590.542 1035.02 590.892 1035.02 591.302C1035.02 591.615 1035.11 591.882 1035.28 592.104C1035.45 592.326 1035.67 592.49 1035.94 592.594C1036.2 592.698 1036.7 592.788 1037.45 592.865C1038.19 592.941 1038.77 593.087 1039.19 593.302C1039.7 593.566 1040.12 593.951 1040.44 594.458C1040.75 594.958 1040.91 595.531 1040.91 596.177C1040.91 596.615 1040.83 597.031 1040.67 597.427C1040.51 597.823 1040.29 598.181 1039.99 598.5C1039.69 598.82 1039.29 599.076 1038.8 599.271C1038.31 599.458 1037.76 599.552 1037.15 599.552Z" fill="black"/>
<rect x="169.445" y="299.767" width="97.1096" height="22.0496" rx="6" fill="#E8ECFF"/>
<rect x="690" y="575.385" width="176" height="36" rx="10" fill="#E8ECFF"/>
<path d="M760.854 590.052H762.146L763.958 597.198H764.062C764.639 593.927 764.927 589.767 764.927 584.719H766.26C766.26 589.608 765.778 594.497 764.812 599.385H763.521L761.552 591.719H761.448L759.479 599.385H758.188C757.222 594.497 756.74 589.608 756.74 584.719H758.073C758.073 589.712 758.361 593.872 758.938 597.198H759.042L760.854 590.052ZM771.072 589C771.586 588.701 772.166 588.552 772.812 588.552C773.458 588.552 774.034 588.701 774.541 589C775.055 589.292 775.475 589.698 775.801 590.219C776.072 590.663 776.253 591.191 776.343 591.802C776.433 592.406 776.479 593.156 776.479 594.052C776.479 594.948 776.433 595.701 776.343 596.313C776.253 596.917 776.072 597.441 775.801 597.885C775.475 598.406 775.055 598.816 774.541 599.115C774.034 599.406 773.458 599.552 772.812 599.552C772.166 599.552 771.586 599.406 771.072 599.115C770.565 598.816 770.149 598.406 769.822 597.885C769.551 597.441 769.371 596.917 769.281 596.313C769.19 595.701 769.145 594.948 769.145 594.052C769.145 593.156 769.19 592.406 769.281 591.802C769.371 591.191 769.551 590.663 769.822 590.219C770.149 589.698 770.565 589.292 771.072 589ZM774.645 590.823C774.242 590.142 773.631 589.802 772.812 589.802C771.992 589.802 771.381 590.142 770.979 590.823C770.826 591.08 770.711 591.403 770.635 591.792C770.558 592.174 770.513 592.517 770.499 592.823C770.485 593.129 770.479 593.538 770.479 594.052C770.479 594.566 770.485 594.976 770.499 595.281C770.513 595.587 770.558 595.934 770.635 596.323C770.711 596.705 770.826 597.024 770.979 597.281C771.381 597.962 771.992 598.302 772.812 598.302C773.631 598.302 774.242 597.962 774.645 597.281C774.798 597.024 774.913 596.705 774.989 596.323C775.065 595.934 775.11 595.587 775.124 595.281C775.138 594.976 775.145 594.566 775.145 594.052C775.145 593.538 775.138 593.129 775.124 592.823C775.11 592.517 775.065 592.174 774.989 591.792C774.913 591.403 774.798 591.08 774.645 590.823ZM782.384 589C782.898 588.701 783.478 588.552 784.124 588.552C784.77 588.552 785.346 588.701 785.853 589C786.367 589.292 786.787 589.698 787.113 590.219C787.384 590.663 787.565 591.191 787.655 591.802C787.745 592.406 787.79 593.156 787.79 594.052C787.79 594.948 787.745 595.701 787.655 596.313C787.565 596.917 787.384 597.441 787.113 597.885C786.787 598.406 786.367 598.816 785.853 599.115C785.346 599.406 784.77 599.552 784.124 599.552C783.478 599.552 782.898 599.406 782.384 599.115C781.877 598.816 781.461 598.406 781.134 597.885C780.863 597.441 780.683 596.917 780.593 596.313C780.502 595.701 780.457 594.948 780.457 594.052C780.457 593.156 780.502 592.406 780.593 591.802C780.683 591.191 780.863 590.663 781.134 590.219C781.461 589.698 781.877 589.292 782.384 589ZM785.957 590.823C785.554 590.142 784.943 589.802 784.124 589.802C783.304 589.802 782.693 590.142 782.29 590.823C782.138 591.08 782.023 591.403 781.947 591.792C781.87 592.174 781.825 592.517 781.811 592.823C781.797 593.129 781.79 593.538 781.79 594.052C781.79 594.566 781.797 594.976 781.811 595.281C781.825 595.587 781.87 595.934 781.947 596.323C782.023 596.705 782.138 597.024 782.29 597.281C782.693 597.962 783.304 598.302 784.124 598.302C784.943 598.302 785.554 597.962 785.957 597.281C786.11 597.024 786.224 596.705 786.301 596.323C786.377 595.934 786.422 595.587 786.436 595.281C786.45 594.976 786.457 594.566 786.457 594.052C786.457 593.538 786.45 593.129 786.436 592.823C786.422 592.517 786.377 592.174 786.301 591.792C786.224 591.403 786.11 591.08 785.957 590.823ZM795.061 588.552C795.526 588.552 795.96 588.674 796.363 588.917C796.765 589.153 797.088 589.521 797.331 590.021H797.436V584.719H798.769V599.385H797.436V598.083H797.331C797.088 598.583 796.765 598.955 796.363 599.198C795.96 599.434 795.526 599.552 795.061 599.552C794.373 599.552 793.762 599.337 793.227 598.906C792.693 598.469 792.304 597.861 792.061 597.083C791.97 596.792 791.901 596.465 791.852 596.104C791.811 595.743 791.786 595.438 791.779 595.188C791.772 594.931 791.769 594.552 791.769 594.052C791.769 593.552 791.772 593.177 791.779 592.927C791.786 592.67 791.811 592.361 791.852 592C791.901 591.639 791.97 591.313 792.061 591.021C792.304 590.243 792.693 589.639 793.227 589.208C793.762 588.771 794.373 588.552 795.061 588.552ZM796.446 590.26C796.127 589.955 795.734 589.802 795.269 589.802C794.804 589.802 794.408 589.955 794.081 590.26C793.762 590.559 793.526 590.934 793.373 591.385C793.193 591.934 793.102 592.823 793.102 594.052C793.102 595.281 793.193 596.17 793.373 596.719C793.526 597.17 793.762 597.549 794.081 597.854C794.408 598.153 794.804 598.302 795.269 598.302C795.734 598.302 796.127 598.153 796.446 597.854C796.772 597.549 797.012 597.17 797.165 596.719C797.345 596.17 797.436 595.281 797.436 594.052C797.436 592.823 797.345 591.934 797.165 591.385C797.012 590.934 796.772 590.559 796.446 590.26Z" fill="black"/>
<rect x="454" y="575.385" width="176" height="36" rx="10" fill="#1B1B1C"/>
<path d="M520.458 599.552C519.319 599.552 518.035 599.441 516.604 599.219V597.938C518.146 598.181 519.431 598.302 520.458 598.302C521.438 598.302 522.212 598.038 522.781 597.51C523.358 596.983 523.646 596.271 523.646 595.375C523.646 594.868 523.528 594.406 523.292 593.99C523.063 593.573 522.743 593.243 522.333 593C521.972 592.792 521.389 592.632 520.583 592.521C519.778 592.403 519.198 592.281 518.844 592.156C518.087 591.879 517.483 591.427 517.031 590.802C516.58 590.17 516.354 589.403 516.354 588.5C516.354 587.361 516.736 586.42 517.5 585.677C518.264 584.927 519.25 584.552 520.458 584.552C521.396 584.552 522.681 584.639 524.312 584.813V586.073C522.625 585.892 521.34 585.802 520.458 585.802C519.618 585.802 518.944 586.059 518.438 586.573C517.938 587.08 517.688 587.722 517.688 588.5C517.688 589.049 517.806 589.528 518.042 589.938C518.285 590.34 518.611 590.646 519.021 590.854C519.34 591.021 519.948 591.167 520.844 591.292C521.74 591.417 522.41 591.597 522.854 591.833C523.5 592.174 524.014 592.656 524.396 593.281C524.785 593.906 524.979 594.604 524.979 595.375C524.979 596.618 524.563 597.625 523.729 598.396C522.896 599.167 521.806 599.552 520.458 599.552ZM529.624 588.552C530.041 588.552 530.413 588.66 530.739 588.875C531.072 589.083 531.336 589.361 531.531 589.708C532.121 588.938 532.819 588.552 533.624 588.552C534.388 588.552 534.992 588.851 535.437 589.448C535.604 589.677 535.729 589.931 535.812 590.208C535.895 590.486 535.944 590.726 535.958 590.927C535.972 591.122 535.979 591.406 535.979 591.781V599.385H534.645V591.781C534.645 591.483 534.642 591.264 534.635 591.125C534.628 590.986 534.6 590.83 534.551 590.656C534.503 590.483 534.43 590.34 534.333 590.229C534.083 589.945 533.742 589.802 533.312 589.802C532.881 589.802 532.541 589.945 532.291 590.229C532.194 590.34 532.121 590.483 532.072 590.656C532.024 590.83 531.996 590.986 531.989 591.125C531.982 591.264 531.979 591.483 531.979 591.781V599.385H530.645V591.781C530.645 591.483 530.642 591.264 530.635 591.125C530.628 590.986 530.6 590.83 530.551 590.656C530.503 590.483 530.43 590.34 530.333 590.229C530.083 589.945 529.742 589.802 529.312 589.802C528.881 589.802 528.541 589.945 528.291 590.229C528.194 590.34 528.121 590.483 528.072 590.656C528.024 590.83 527.996 590.986 527.989 591.125C527.982 591.264 527.979 591.483 527.979 591.781V599.385H526.645V588.719H527.979V589.5H528.083C528.513 588.868 529.027 588.552 529.624 588.552ZM540.884 589C541.398 588.701 541.978 588.552 542.624 588.552C543.27 588.552 543.846 588.701 544.353 589C544.867 589.292 545.287 589.698 545.613 590.219C545.884 590.663 546.065 591.191 546.155 591.802C546.245 592.406 546.29 593.156 546.29 594.052C546.29 594.948 546.245 595.701 546.155 596.313C546.065 596.917 545.884 597.441 545.613 597.885C545.287 598.406 544.867 598.816 544.353 599.115C543.846 599.406 543.27 599.552 542.624 599.552C541.978 599.552 541.398 599.406 540.884 599.115C540.377 598.816 539.961 598.406 539.634 597.885C539.363 597.441 539.183 596.917 539.093 596.313C539.002 595.701 538.957 594.948 538.957 594.052C538.957 593.156 539.002 592.406 539.093 591.802C539.183 591.191 539.363 590.663 539.634 590.219C539.961 589.698 540.377 589.292 540.884 589ZM544.457 590.823C544.054 590.142 543.443 589.802 542.624 589.802C541.804 589.802 541.193 590.142 540.79 590.823C540.638 591.08 540.523 591.403 540.447 591.792C540.37 592.174 540.325 592.517 540.311 592.823C540.297 593.129 540.29 593.538 540.29 594.052C540.29 594.566 540.297 594.976 540.311 595.281C540.325 595.587 540.37 595.934 540.447 596.323C540.523 596.705 540.638 597.024 540.79 597.281C541.193 597.962 541.804 598.302 542.624 598.302C543.443 598.302 544.054 597.962 544.457 597.281C544.61 597.024 544.724 596.705 544.801 596.323C544.877 595.934 544.922 595.587 544.936 595.281C544.95 594.976 544.957 594.566 544.957 594.052C544.957 593.538 544.95 593.129 544.936 592.823C544.922 592.517 544.877 592.174 544.801 591.792C544.724 591.403 544.61 591.08 544.457 590.823ZM551.936 599.385H550.602V584.719H551.936V593.115L556.206 588.719H557.884L554.102 592.667L558.373 599.385H556.748L553.238 593.552L551.936 594.854V599.385ZM566.518 590.135C566.171 589.913 565.748 589.802 565.248 589.802C564.748 589.802 564.32 589.913 563.966 590.135C563.619 590.358 563.369 590.667 563.216 591.063C563.07 591.396 562.977 591.976 562.935 592.802H567.56C567.518 591.976 567.425 591.396 567.279 591.063C567.126 590.667 566.873 590.358 566.518 590.135ZM563.164 589.135C563.741 588.747 564.435 588.552 565.248 588.552C566.06 588.552 566.751 588.747 567.32 589.135C567.897 589.524 568.3 590.028 568.529 590.646C568.647 590.945 568.734 591.295 568.789 591.698C568.852 592.101 568.886 592.458 568.893 592.771C568.907 593.076 568.914 593.504 568.914 594.052H562.914C562.914 594.524 562.918 594.889 562.925 595.146C562.932 595.396 562.959 595.698 563.008 596.052C563.063 596.406 563.143 596.701 563.248 596.938C563.65 597.847 564.386 598.302 565.456 598.302C566.261 598.302 567.303 598.229 568.581 598.083V599.333C567.317 599.479 566.275 599.552 565.456 599.552C564.595 599.552 563.869 599.351 563.279 598.948C562.688 598.545 562.261 598.021 561.998 597.375C561.817 596.938 561.702 596.469 561.654 595.969C561.605 595.469 561.581 594.83 561.581 594.052C561.581 593.504 561.584 593.076 561.591 592.771C561.605 592.458 561.64 592.101 561.695 591.698C561.758 591.295 561.848 590.945 561.966 590.646C562.195 590.028 562.595 589.524 563.164 589.135Z" fill="#E8ECFF"/>
<rect x="218" y="575.385" width="176" height="36" rx="10" fill="#E8ECFF"/>
<path d="M283.354 590.052H284.646L286.458 597.198H286.562C287.139 593.927 287.427 589.767 287.427 584.719H288.76C288.76 589.608 288.278 594.497 287.312 599.385H286.021L284.052 591.719H283.948L281.979 599.385H280.688C279.722 594.497 279.24 589.608 279.24 584.719H280.573C280.573 589.712 280.861 593.872 281.438 597.198H281.542L283.354 590.052ZM297.312 594.052H295.27C295.013 594.052 294.812 594.059 294.666 594.073C294.527 594.087 294.35 594.139 294.135 594.229C293.92 594.313 293.729 594.441 293.562 594.615C293.173 595.024 292.979 595.563 292.979 596.229C292.979 596.82 293.145 597.313 293.479 597.708C293.819 598.104 294.277 598.302 294.854 598.302C295.187 598.302 295.482 598.254 295.739 598.156C296.003 598.059 296.218 597.938 296.385 597.792C296.558 597.646 296.704 597.455 296.822 597.219C296.947 596.983 297.038 596.764 297.093 596.563C297.156 596.354 297.204 596.108 297.239 595.823C297.274 595.538 297.295 595.306 297.301 595.125C297.308 594.945 297.312 594.729 297.312 594.479V594.052ZM295.645 588.552C296.242 588.552 296.767 588.646 297.218 588.833C297.67 589.014 298.041 589.361 298.333 589.875C298.541 590.243 298.645 590.813 298.645 591.583V599.385H297.312V598.104H297.208C296.506 599.07 295.638 599.552 294.604 599.552C293.77 599.552 293.069 599.24 292.499 598.615C291.93 597.99 291.645 597.201 291.645 596.25C291.645 595.25 291.951 594.445 292.562 593.833C292.784 593.618 293.02 593.441 293.27 593.302C293.52 593.163 293.781 593.07 294.051 593.021C294.329 592.965 294.545 592.934 294.697 592.927C294.857 592.913 295.055 592.906 295.291 592.906H297.312V591.635C297.312 591.031 297.249 590.622 297.124 590.406C297.006 590.205 296.836 590.056 296.614 589.958C296.399 589.854 296.076 589.802 295.645 589.802C294.812 589.802 293.812 589.875 292.645 590.021V588.75C293.791 588.618 294.791 588.552 295.645 588.552ZM309.957 599.396C309.214 599.5 308.547 599.552 307.957 599.552C307.402 599.552 306.895 599.451 306.436 599.25C305.985 599.049 305.617 598.774 305.332 598.427C305.11 598.163 304.943 597.854 304.832 597.5C304.721 597.146 304.658 596.851 304.645 596.615C304.631 596.379 304.624 596.052 304.624 595.635V590.031H301.957V588.719H304.624V586.052H305.957V588.719H309.957V590.031H305.957V595.531C305.957 595.913 305.961 596.198 305.968 596.385C305.981 596.573 306.023 596.788 306.093 597.031C306.162 597.274 306.266 597.483 306.405 597.656C306.766 598.087 307.318 598.302 308.061 598.302C308.554 598.302 309.186 598.25 309.957 598.146V599.396ZM319.206 590.135C318.859 589.913 318.436 589.802 317.936 589.802C317.436 589.802 317.009 589.913 316.654 590.135C316.307 590.358 316.057 590.667 315.904 591.063C315.759 591.396 315.665 591.976 315.623 592.802H320.248C320.206 591.976 320.113 591.396 319.967 591.063C319.814 590.667 319.561 590.358 319.206 590.135ZM315.852 589.135C316.429 588.747 317.123 588.552 317.936 588.552C318.748 588.552 319.439 588.747 320.009 589.135C320.585 589.524 320.988 590.028 321.217 590.646C321.335 590.945 321.422 591.295 321.477 591.698C321.54 592.101 321.575 592.458 321.581 592.771C321.595 593.076 321.602 593.504 321.602 594.052H315.602C315.602 594.524 315.606 594.889 315.613 595.146C315.62 595.396 315.647 595.698 315.696 596.052C315.752 596.406 315.831 596.701 315.936 596.938C316.338 597.847 317.075 598.302 318.144 598.302C318.95 598.302 319.991 598.229 321.269 598.083V599.333C320.005 599.479 318.963 599.552 318.144 599.552C317.283 599.552 316.557 599.351 315.967 598.948C315.377 598.545 314.95 598.021 314.686 597.375C314.505 596.938 314.39 596.469 314.342 595.969C314.293 595.469 314.269 594.83 314.269 594.052C314.269 593.504 314.272 593.076 314.279 592.771C314.293 592.458 314.328 592.101 314.384 591.698C314.446 591.295 314.536 590.945 314.654 590.646C314.884 590.028 315.283 589.524 315.852 589.135ZM330.706 589.802C329.761 589.802 329.015 590.056 328.466 590.563C328.182 590.826 327.949 591.118 327.768 591.438C327.588 591.757 327.463 592.115 327.393 592.51C327.324 592.899 327.282 593.215 327.268 593.458C327.254 593.701 327.248 594.028 327.248 594.438V599.385H325.914V588.719H327.248V590.375H327.352C327.782 589.792 328.258 589.344 328.779 589.031C329.307 588.712 329.949 588.552 330.706 588.552C331.22 588.552 331.845 588.597 332.581 588.688V589.938C331.845 589.847 331.22 589.802 330.706 589.802Z" fill="black"/>
<rect x="627.19" y="322.59" width="521.28" height="23.38" rx="5.19" transform="rotate(-180 627.19 322.59)" stroke="#C0C6D2" stroke-width="1.62"/>
<rect x="1281.55" y="144.962" width="457.614" height="23.38" rx="5.19" transform="rotate(90 1281.55 144.962)" stroke="#C0C6D2" stroke-width="1.62"/>
<defs>
<filter id="filter0_d_280_170" x="766.028" y="158.339" width="190.199" height="276.312" filterUnits="userSpaceOnUse" color-interpolation-filters="sRGB">
<feFlood flood-opacity="0" result="BackgroundImageFix"/>
<feColorMatrix in="SourceAlpha" type="matrix" values="0 0 0 0 0 0 0 0 0 0 0 0 0 0 0 0 0 0 127 0" result="hardAlpha"/>
<feOffset dx="22" dy="-12"/>
<feComposite in2="hardAlpha" operator="out"/>
<feColorMatrix type="matrix" values="0 0 0 0 0 0 0 0 0 0 0 0 0 0 0 0 0 0 1 0"/>
<feBlend mode="normal" in2="BackgroundImageFix" result="effect1_dropShadow_280_170"/>
<feBlend mode="normal" in="SourceGraphic" in2="effect1_dropShadow_280_170" result="shape"/>
</filter>
</defs>
</svg>
