<svg width="1320" height="629" viewBox="0 0 1320 629" fill="none" xmlns="http://www.w3.org/2000/svg">
<rect x="661" y="1" width="658" height="230" rx="15.7347" stroke="#C0C6D2" stroke-width="2"/>
<g filter="url(#filter0_d_283_199)">
<path d="M890.093 327.733H955.264V352.172H916.162V472.738H955.264V497.177H890.093V327.733ZM983.42 365.206V340.767H1070.59V362.151L1011.42 458.686V459.704H1072.62V484.143H981.384V462.555L1040.55 366.225V365.206H983.42ZM1098.74 327.733H1163.91V497.177H1098.74V472.738H1137.84V352.172H1098.74V327.733Z" fill="black"/>
</g>
<g filter="url(#filter1_d_283_199)">
<path d="M897.093 320.733H962.264V345.172H923.162V465.738H962.264V490.177H897.093V320.733ZM990.42 358.206V333.767H1077.59V355.151L1018.42 451.686V452.704H1079.62V477.143H988.384V455.555L1047.55 359.225V358.206H990.42ZM1105.74 320.733H1170.91V490.177H1105.74V465.738H1144.84V345.172H1105.74V320.733Z" fill="black"/>
</g>
<g filter="url(#filter2_d_283_199)">
<path d="M919.093 305.733H984.264V330.172H945.162V450.738H984.264V475.177H919.093V305.733ZM1012.42 343.206V318.767H1099.59V340.151L1040.42 436.686V437.704H1101.62V462.143H1010.38V440.555L1069.55 344.225V343.206H1012.42ZM1127.74 305.733H1192.91V475.177H1127.74V450.738H1166.84V330.172H1127.74V305.733Z" fill="black"/>
</g>
<g filter="url(#filter3_d_283_199)">
<path d="M905.093 314.733H970.264V339.172H931.162V459.738H970.264V484.177H905.093V314.733ZM998.42 352.206V327.767H1085.59V349.151L1026.42 445.686V446.704H1087.62V471.143H996.384V449.555L1055.55 353.225V352.206H998.42ZM1113.74 314.733H1178.91V484.177H1113.74V459.738H1152.84V339.172H1113.74V314.733Z" fill="black"/>
</g>
<g filter="url(#filter4_d_283_199)">
<path d="M927.093 299.733H992.264V324.172H953.162V444.738H992.264V469.177H927.093V299.733ZM1020.42 337.206V312.767H1107.59V334.151L1048.42 430.686V431.704H1109.62V456.143H1018.38V434.555L1077.55 338.225V337.206H1020.42ZM1135.74 299.733H1200.91V469.177H1135.74V444.738H1174.84V324.172H1135.74V299.733Z" fill="black"/>
</g>
<g filter="url(#filter5_d_283_199)">
<path d="M912.093 309.733H977.264V334.172H938.162V454.738H977.264V479.177H912.093V309.733ZM1005.42 347.206V322.767H1092.59V344.151L1033.42 440.686V441.704H1094.62V466.143H1003.38V444.555L1062.55 348.225V347.206H1005.42ZM1120.74 309.733H1185.91V479.177H1120.74V454.738H1159.84V334.172H1120.74V309.733Z" fill="black"/>
</g>
<g filter="url(#filter6_d_283_199)">
<path d="M934.093 294.733H999.264V319.172H960.162V439.738H999.264V464.177H934.093V294.733ZM1027.42 332.206V307.767H1114.59V329.151L1055.42 425.686V426.704H1116.62V451.143H1025.38V429.555L1084.55 333.225V332.206H1027.42ZM1142.74 294.733H1207.91V464.177H1142.74V439.738H1181.84V319.172H1142.74V294.733Z" fill="black"/>
</g>
<g filter="url(#filter7_d_283_199)">
<path d="M509.386 318.733H574.557V343.172H535.455V463.738H574.557V488.177H509.386V318.733ZM646.805 388.486C656.852 365.405 663.641 346.499 667.171 331.767H694.767C689.472 347.992 684.041 362.689 678.474 375.859C672.908 388.961 666.526 401.147 659.33 412.416V475.143H633.262V412.416C626.066 401.147 619.685 388.961 614.118 375.859C608.551 362.689 603.12 347.992 597.825 331.767H625.421C625.964 334.279 626.609 336.893 627.356 339.608C628.17 342.324 629.121 345.277 630.207 348.467C631.361 351.658 632.312 354.373 633.058 356.614C633.873 358.786 635.027 361.773 636.52 365.575C638.014 369.308 639.032 371.922 639.575 373.415C640.186 374.841 641.306 377.59 642.936 381.664C644.633 385.669 645.583 387.943 645.787 388.486H646.805ZM718.035 318.733H783.206V488.177H718.035V463.738H757.137V343.172H718.035V318.733Z" fill="black"/>
</g>
<g filter="url(#filter8_d_283_199)">
<path d="M525.386 337.733H590.557V362.172H551.455V482.738H590.557V507.177H525.386V337.733ZM662.805 407.486C672.852 384.405 679.641 365.499 683.171 350.767H710.767C705.472 366.992 700.041 381.689 694.474 394.859C688.908 407.961 682.526 420.147 675.33 431.416V494.143H649.262V431.416C642.066 420.147 635.685 407.961 630.118 394.859C624.551 381.689 619.12 366.992 613.825 350.767H641.421C641.964 353.279 642.609 355.893 643.356 358.608C644.17 361.324 645.121 364.277 646.207 367.467C647.361 370.658 648.312 373.373 649.058 375.614C649.873 377.786 651.027 380.773 652.52 384.575C654.014 388.308 655.032 390.922 655.575 392.415C656.186 393.841 657.306 396.59 658.936 400.664C660.633 404.669 661.583 406.943 661.787 407.486H662.805ZM734.035 337.733H799.206V507.177H734.035V482.738H773.137V362.172H734.035V337.733Z" fill="black"/>
</g>
<path d="M140.386 342.733H205.557V367.172H166.455V487.738H205.557V512.177H140.386V342.733ZM276.787 403.016H277.805L296.44 355.767H323.628L292.978 425.724V426.742L326.887 499.143H299.597L277.805 448.432H276.787L254.995 499.143H227.705L261.614 426.742V425.724L230.964 355.767H258.152L276.787 403.016ZM349.035 342.733H414.206V512.177H349.035V487.738H388.137V367.172H349.035V342.733Z" fill="#E8ECFF"/>
<g filter="url(#filter9_d_283_199)">
<path d="M494.033 294.733H559.204V319.172H520.101V439.738H559.204V464.177H494.033V294.733ZM631.452 364.486C641.499 341.405 648.288 322.499 651.818 307.767H679.413C674.118 323.992 668.687 338.689 663.121 351.859C657.554 364.961 651.173 377.147 643.977 388.416V451.143H617.908V388.416C610.712 377.147 604.331 364.961 598.764 351.859C593.198 338.689 587.767 323.992 582.472 307.767H610.068C610.611 310.279 611.256 312.893 612.002 315.608C612.817 318.324 613.767 321.277 614.854 324.467C616.008 327.658 616.958 330.373 617.705 332.614C618.519 334.786 619.673 337.773 621.167 341.575C622.66 345.308 623.679 347.922 624.222 349.415C624.833 350.841 625.953 353.59 627.582 357.664C629.279 361.669 630.23 363.943 630.433 364.486H631.452ZM702.681 294.733H767.852V464.177H702.681V439.738H741.784V319.172H702.681V294.733Z" fill="#E8ECFF"/>
</g>
<g filter="url(#filter10_d_283_199)">
<path d="M869.386 342.733H934.557V367.172H895.455V487.738H934.557V512.177H869.386V342.733ZM962.713 380.206V355.767H1049.88V377.151L990.716 473.686V474.704H1051.92V499.143H960.677V477.555L1019.84 381.225V380.206H962.713ZM1078.03 342.733H1143.21V512.177H1078.03V487.738H1117.14V367.172H1078.03V342.733Z" fill="#E8ECFF"/>
</g>
<defs>
<filter id="filter0_d_283_199" x="890.094" y="327.733" width="280.635" height="180.803" filterUnits="userSpaceOnUse" color-interpolation-filters="sRGB">
<feFlood flood-opacity="0" result="BackgroundImageFix"/>
<feColorMatrix in="SourceAlpha" type="matrix" values="0 0 0 0 0 0 0 0 0 0 0 0 0 0 0 0 0 0 127 0" result="hardAlpha"/>
<feOffset dx="6.81522" dy="11.3587"/>
<feComposite in2="hardAlpha" operator="out"/>
<feColorMatrix type="matrix" values="0 0 0 0 0 0 0 0 0 0 0 0 0 0 0 0 0 0 1 0"/>
<feBlend mode="normal" in2="BackgroundImageFix" result="effect1_dropShadow_283_199"/>
<feBlend mode="normal" in="SourceGraphic" in2="effect1_dropShadow_283_199" result="shape"/>
</filter>
<filter id="filter1_d_283_199" x="897.094" y="320.733" width="280.635" height="180.803" filterUnits="userSpaceOnUse" color-interpolation-filters="sRGB">
<feFlood flood-opacity="0" result="BackgroundImageFix"/>
<feColorMatrix in="SourceAlpha" type="matrix" values="0 0 0 0 0 0 0 0 0 0 0 0 0 0 0 0 0 0 127 0" result="hardAlpha"/>
<feOffset dx="6.81522" dy="11.3587"/>
<feComposite in2="hardAlpha" operator="out"/>
<feColorMatrix type="matrix" values="0 0 0 0 0.12549 0 0 0 0 0.12549 0 0 0 0 0.12549 0 0 0 1 0"/>
<feBlend mode="normal" in2="BackgroundImageFix" result="effect1_dropShadow_283_199"/>
<feBlend mode="normal" in="SourceGraphic" in2="effect1_dropShadow_283_199" result="shape"/>
</filter>
<filter id="filter2_d_283_199" x="919.094" y="305.733" width="280.635" height="180.803" filterUnits="userSpaceOnUse" color-interpolation-filters="sRGB">
<feFlood flood-opacity="0" result="BackgroundImageFix"/>
<feColorMatrix in="SourceAlpha" type="matrix" values="0 0 0 0 0 0 0 0 0 0 0 0 0 0 0 0 0 0 127 0" result="hardAlpha"/>
<feOffset dx="6.81522" dy="11.3587"/>
<feComposite in2="hardAlpha" operator="out"/>
<feColorMatrix type="matrix" values="0 0 0 0 0.12549 0 0 0 0 0.12549 0 0 0 0 0.12549 0 0 0 1 0"/>
<feBlend mode="normal" in2="BackgroundImageFix" result="effect1_dropShadow_283_199"/>
<feBlend mode="normal" in="SourceGraphic" in2="effect1_dropShadow_283_199" result="shape"/>
</filter>
<filter id="filter3_d_283_199" x="905.094" y="314.733" width="280.635" height="180.803" filterUnits="userSpaceOnUse" color-interpolation-filters="sRGB">
<feFlood flood-opacity="0" result="BackgroundImageFix"/>
<feColorMatrix in="SourceAlpha" type="matrix" values="0 0 0 0 0 0 0 0 0 0 0 0 0 0 0 0 0 0 127 0" result="hardAlpha"/>
<feOffset dx="6.81522" dy="11.3587"/>
<feComposite in2="hardAlpha" operator="out"/>
<feColorMatrix type="matrix" values="0 0 0 0 0 0 0 0 0 0 0 0 0 0 0 0 0 0 1 0"/>
<feBlend mode="normal" in2="BackgroundImageFix" result="effect1_dropShadow_283_199"/>
<feBlend mode="normal" in="SourceGraphic" in2="effect1_dropShadow_283_199" result="shape"/>
</filter>
<filter id="filter4_d_283_199" x="927.094" y="299.733" width="280.635" height="180.803" filterUnits="userSpaceOnUse" color-interpolation-filters="sRGB">
<feFlood flood-opacity="0" result="BackgroundImageFix"/>
<feColorMatrix in="SourceAlpha" type="matrix" values="0 0 0 0 0 0 0 0 0 0 0 0 0 0 0 0 0 0 127 0" result="hardAlpha"/>
<feOffset dx="6.81522" dy="11.3587"/>
<feComposite in2="hardAlpha" operator="out"/>
<feColorMatrix type="matrix" values="0 0 0 0 0 0 0 0 0 0 0 0 0 0 0 0 0 0 1 0"/>
<feBlend mode="normal" in2="BackgroundImageFix" result="effect1_dropShadow_283_199"/>
<feBlend mode="normal" in="SourceGraphic" in2="effect1_dropShadow_283_199" result="shape"/>
</filter>
<filter id="filter5_d_283_199" x="912.094" y="309.733" width="280.635" height="180.803" filterUnits="userSpaceOnUse" color-interpolation-filters="sRGB">
<feFlood flood-opacity="0" result="BackgroundImageFix"/>
<feColorMatrix in="SourceAlpha" type="matrix" values="0 0 0 0 0 0 0 0 0 0 0 0 0 0 0 0 0 0 127 0" result="hardAlpha"/>
<feOffset dx="6.81522" dy="11.3587"/>
<feComposite in2="hardAlpha" operator="out"/>
<feColorMatrix type="matrix" values="0 0 0 0 0.12549 0 0 0 0 0.12549 0 0 0 0 0.12549 0 0 0 1 0"/>
<feBlend mode="normal" in2="BackgroundImageFix" result="effect1_dropShadow_283_199"/>
<feBlend mode="normal" in="SourceGraphic" in2="effect1_dropShadow_283_199" result="shape"/>
</filter>
<filter id="filter6_d_283_199" x="934.094" y="294.733" width="280.635" height="180.803" filterUnits="userSpaceOnUse" color-interpolation-filters="sRGB">
<feFlood flood-opacity="0" result="BackgroundImageFix"/>
<feColorMatrix in="SourceAlpha" type="matrix" values="0 0 0 0 0 0 0 0 0 0 0 0 0 0 0 0 0 0 127 0" result="hardAlpha"/>
<feOffset dx="6.81522" dy="11.3587"/>
<feComposite in2="hardAlpha" operator="out"/>
<feColorMatrix type="matrix" values="0 0 0 0 0.12549 0 0 0 0 0.12549 0 0 0 0 0.12549 0 0 0 1 0"/>
<feBlend mode="normal" in2="BackgroundImageFix" result="effect1_dropShadow_283_199"/>
<feBlend mode="normal" in="SourceGraphic" in2="effect1_dropShadow_283_199" result="shape"/>
</filter>
<filter id="filter7_d_283_199" x="509.386" y="318.733" width="280.635" height="180.803" filterUnits="userSpaceOnUse" color-interpolation-filters="sRGB">
<feFlood flood-opacity="0" result="BackgroundImageFix"/>
<feColorMatrix in="SourceAlpha" type="matrix" values="0 0 0 0 0 0 0 0 0 0 0 0 0 0 0 0 0 0 127 0" result="hardAlpha"/>
<feOffset dx="6.81522" dy="11.3587"/>
<feComposite in2="hardAlpha" operator="out"/>
<feColorMatrix type="matrix" values="0 0 0 0 0 0 0 0 0 0 0 0 0 0 0 0 0 0 1 0"/>
<feBlend mode="normal" in2="BackgroundImageFix" result="effect1_dropShadow_283_199"/>
<feBlend mode="normal" in="SourceGraphic" in2="effect1_dropShadow_283_199" result="shape"/>
</filter>
<filter id="filter8_d_283_199" x="525.386" y="337.733" width="280.635" height="180.803" filterUnits="userSpaceOnUse" color-interpolation-filters="sRGB">
<feFlood flood-opacity="0" result="BackgroundImageFix"/>
<feColorMatrix in="SourceAlpha" type="matrix" values="0 0 0 0 0 0 0 0 0 0 0 0 0 0 0 0 0 0 127 0" result="hardAlpha"/>
<feOffset dx="6.81522" dy="11.3587"/>
<feComposite in2="hardAlpha" operator="out"/>
<feColorMatrix type="matrix" values="0 0 0 0 0.12549 0 0 0 0 0.12549 0 0 0 0 0.12549 0 0 0 1 0"/>
<feBlend mode="normal" in2="BackgroundImageFix" result="effect1_dropShadow_283_199"/>
<feBlend mode="normal" in="SourceGraphic" in2="effect1_dropShadow_283_199" result="shape"/>
</filter>
<filter id="filter9_d_283_199" x="494.033" y="294.733" width="280.635" height="180.803" filterUnits="userSpaceOnUse" color-interpolation-filters="sRGB">
<feFlood flood-opacity="0" result="BackgroundImageFix"/>
<feColorMatrix in="SourceAlpha" type="matrix" values="0 0 0 0 0 0 0 0 0 0 0 0 0 0 0 0 0 0 127 0" result="hardAlpha"/>
<feOffset dx="6.81522" dy="11.3587"/>
<feComposite in2="hardAlpha" operator="out"/>
<feColorMatrix type="matrix" values="0 0 0 0 0.12549 0 0 0 0 0.12549 0 0 0 0 0.12549 0 0 0 1 0"/>
<feBlend mode="normal" in2="BackgroundImageFix" result="effect1_dropShadow_283_199"/>
<feBlend mode="normal" in="SourceGraphic" in2="effect1_dropShadow_283_199" result="shape"/>
</filter>
<filter id="filter10_d_283_199" x="869.386" y="342.733" width="280.635" height="180.803" filterUnits="userSpaceOnUse" color-interpolation-filters="sRGB">
<feFlood flood-opacity="0" result="BackgroundImageFix"/>
<feColorMatrix in="SourceAlpha" type="matrix" values="0 0 0 0 0 0 0 0 0 0 0 0 0 0 0 0 0 0 127 0" result="hardAlpha"/>
<feOffset dx="6.81522" dy="11.3587"/>
<feComposite in2="hardAlpha" operator="out"/>
<feColorMatrix type="matrix" values="0 0 0 0 0.12549 0 0 0 0 0.12549 0 0 0 0 0.12549 0 0 0 1 0"/>
<feBlend mode="normal" in2="BackgroundImageFix" result="effect1_dropShadow_283_199"/>
<feBlend mode="normal" in="SourceGraphic" in2="effect1_dropShadow_283_199" result="shape"/>
</filter>
</defs>
</svg>
