<svg width="1320" height="680" viewBox="0 0 1320 680" fill="none" xmlns="http://www.w3.org/2000/svg">
<g clip-path="url(#clip0_283_198)">
<path d="M278.184 388.373H252.239C239.776 388.373 230.746 392.061 225.15 399.437C219.809 406.559 217.138 417.878 217.138 433.394C217.138 442.042 219.173 449.292 223.242 455.142C227.312 460.738 233.162 463.536 240.793 463.536C249.441 463.536 256.436 461.374 261.778 457.05C267.374 452.725 271.189 446.621 273.224 438.736C275.513 430.596 276.912 423.729 277.421 418.133C277.929 412.537 278.184 405.542 278.184 397.148V388.373ZM265.975 152.201C287.849 152.201 307.053 155.635 323.587 162.503C340.12 169.116 353.728 181.834 364.411 200.657C372.042 214.138 375.857 234.995 375.857 263.229V549H278.184V528.779H274.368C260.124 546.329 242.065 555.105 220.19 555.105C193.228 555.105 169.7 543.531 149.606 520.385C129.511 497.238 119.464 468.496 119.464 434.157C119.464 396.767 130.656 365.989 153.04 341.825C161.179 333.177 169.827 326.182 178.984 320.841C188.395 315.245 197.934 311.43 207.599 309.395C217.519 307.36 225.404 306.088 231.255 305.579C237.359 305.071 244.608 304.816 253.002 304.816H278.184V265.136C278.184 260.049 276.022 255.344 271.698 251.02C267.374 246.441 261.778 244.152 254.91 244.152C231.509 244.152 198.57 246.568 156.092 251.401V159.451C198.061 154.618 234.689 152.201 265.975 152.201Z" fill="#202020"/>
<rect width="1320" height="680" rx="40" fill="#1939FA"/>
<path d="M778.47 451.254L544.038 587" stroke="#E8ECFF" stroke-width="3"/>
<path d="M1300.29 451.254L1065.86 587" stroke="#E8ECFF" stroke-width="3"/>
<path d="M516.665 451.254L282.233 587" stroke="#E8ECFF" stroke-width="3"/>
<path d="M1038.49 451.254L804.054 587" stroke="#E8ECFF" stroke-width="3"/>
<path d="M690.044 502.361L168.247 502.361" stroke="#E8ECFF" stroke-width="3"/>
<path d="M1211.87 502.361L690.068 502.361" stroke="#E8ECFF" stroke-width="3"/>
<path d="M256.649 451.254L22.2165 587" stroke="#E8ECFF" stroke-width="3"/>
<path d="M778.47 451.254L544.038 587" stroke="#E8ECFF" stroke-width="3"/>
<path d="M22.2163 587.557L544.037 587.557" stroke="#E8ECFF" stroke-width="3"/>
<path d="M544.037 587.557L1065.86 587.557" stroke="#E8ECFF" stroke-width="3"/>
<path d="M256.562 451.254L778.47 451.254" stroke="#E8ECFF" stroke-width="3"/>
<path d="M778.383 451.254L1300.29 451.254" stroke="#E8ECFF" stroke-width="3"/>
<path d="M310.057 380.085H288.588C278.275 380.085 270.803 383.136 266.172 389.24C261.752 395.134 259.542 404.5 259.542 417.339C259.542 424.495 261.226 430.493 264.594 435.334C267.961 439.965 272.802 442.28 279.117 442.28C286.273 442.28 292.061 440.491 296.481 436.913C301.111 433.335 304.269 428.283 305.952 421.759C307.847 415.024 309.004 409.341 309.425 404.71C309.846 400.08 310.057 394.292 310.057 387.346V380.085ZM299.954 184.658C318.055 184.658 333.946 187.499 347.627 193.182C361.308 198.654 372.568 209.178 381.408 224.753C387.722 235.909 390.879 253.168 390.879 276.53V513H310.057V496.267H306.9C295.113 510.79 280.169 518.051 262.068 518.051C239.758 518.051 220.289 508.475 203.661 489.321C187.034 470.168 178.72 446.384 178.72 417.97C178.72 387.03 187.981 361.563 206.503 341.567C213.238 334.411 220.394 328.623 227.971 324.203C235.759 319.573 243.652 316.416 251.65 314.732C259.858 313.048 266.383 311.996 271.224 311.575C276.275 311.154 282.274 310.943 289.22 310.943H310.057V278.109C310.057 273.899 308.268 270.006 304.69 266.428C301.111 262.639 296.481 260.745 290.798 260.745C271.434 260.745 244.178 262.744 209.028 266.743V190.656C243.757 186.657 274.065 184.658 299.954 184.658Z" fill="#202020"/>
<path d="M482.172 380.085H460.704C450.39 380.085 442.918 383.136 438.288 389.24C433.868 395.134 431.658 404.5 431.658 417.339C431.658 424.495 433.342 430.493 436.709 435.334C440.077 439.965 444.918 442.28 451.232 442.28C458.388 442.28 464.176 440.491 468.596 436.913C473.227 433.335 476.384 428.283 478.068 421.759C479.962 415.024 481.12 409.341 481.541 404.71C481.962 400.08 482.172 394.292 482.172 387.346V380.085ZM472.069 184.658C490.17 184.658 506.061 187.499 519.742 193.182C533.423 198.654 544.683 209.178 553.523 224.753C559.838 235.909 562.995 253.168 562.995 276.53V513H482.172V496.267H479.015C467.228 510.79 452.284 518.051 434.184 518.051C411.873 518.051 392.404 508.475 375.776 489.321C359.149 470.168 350.835 446.384 350.835 417.97C350.835 387.03 360.096 361.563 378.618 341.567C385.353 334.411 392.509 328.623 400.086 324.203C407.874 319.573 415.767 316.416 423.765 314.732C431.974 313.048 438.498 311.996 443.339 311.575C448.391 311.154 454.389 310.943 461.335 310.943H482.172V278.109C482.172 273.899 480.383 270.006 476.805 266.428C473.227 262.639 468.596 260.745 462.913 260.745C443.55 260.745 416.293 262.744 381.144 266.743V190.656C415.872 186.657 446.181 184.658 472.069 184.658Z" fill="#202020"/>
<path d="M654.288 380.085H632.819C622.506 380.085 615.034 383.136 610.403 389.24C605.983 395.134 603.773 404.5 603.773 417.339C603.773 424.495 605.457 430.493 608.825 435.334C612.192 439.965 617.033 442.28 623.348 442.28C630.504 442.28 636.292 440.491 640.712 436.913C645.342 433.335 648.499 428.283 650.183 421.759C652.078 415.024 653.235 409.341 653.656 404.71C654.077 400.08 654.288 394.292 654.288 387.346V380.085ZM644.185 184.658C662.286 184.658 678.177 187.499 691.858 193.182C705.538 198.654 716.799 209.178 725.639 224.753C731.953 235.909 735.11 253.168 735.11 276.53V513H654.288V496.267H651.13C639.344 510.79 624.4 518.051 606.299 518.051C583.989 518.051 564.52 508.475 547.892 489.321C531.264 470.168 522.951 446.384 522.951 417.97C522.951 387.03 532.212 361.563 550.733 341.567C557.469 334.411 564.625 328.623 572.202 324.203C579.99 319.573 587.882 316.416 595.881 314.732C604.089 313.048 610.614 311.996 615.455 311.575C620.506 311.154 626.505 310.943 633.45 310.943H654.288V278.109C654.288 273.899 652.499 270.006 648.92 266.428C645.342 262.639 640.712 260.745 635.029 260.745C615.665 260.745 588.409 262.744 553.259 266.743V190.656C587.988 186.657 618.296 184.658 644.185 184.658Z" fill="#202020"/>
<mask id="path-18-outside-1_283_198" maskUnits="userSpaceOnUse" x="197.535" y="182" width="218" height="339" fill="black">
<rect fill="white" x="197.535" y="182" width="218" height="339"/>
<path d="M331.592 380.085H310.123C299.81 380.085 292.338 383.136 287.707 389.24C283.287 395.134 281.077 404.5 281.077 417.339C281.077 424.495 282.761 430.493 286.129 435.334C289.497 439.965 294.337 442.28 300.652 442.28C307.808 442.28 313.596 440.491 318.016 436.913C322.646 433.335 325.804 428.283 327.487 421.759C329.382 415.024 330.539 409.341 330.96 404.71C331.381 400.08 331.592 394.292 331.592 387.346V380.085ZM321.489 184.658C339.59 184.658 355.481 187.499 369.162 193.182C382.843 198.654 394.103 209.178 402.943 224.753C409.257 235.909 412.414 253.168 412.414 276.53V513H331.592V496.267H328.435C316.648 510.79 301.704 518.051 283.603 518.051C261.293 518.051 241.824 508.475 225.196 489.321C208.569 470.168 200.255 446.384 200.255 417.97C200.255 387.03 209.516 361.563 228.038 341.567C234.773 334.411 241.929 328.623 249.506 324.203C257.294 319.573 265.187 316.416 273.185 314.732C281.393 313.048 287.918 311.996 292.759 311.575C297.81 311.154 303.809 310.943 310.755 310.943H331.592V278.109C331.592 273.899 329.803 270.006 326.225 266.428C322.646 262.639 318.016 260.745 312.333 260.745C292.969 260.745 265.713 262.744 230.563 266.743V190.656C265.292 186.657 295.6 184.658 321.489 184.658Z"/>
</mask>
<path d="M331.592 380.085H310.123C299.81 380.085 292.338 383.136 287.707 389.24C283.287 395.134 281.077 404.5 281.077 417.339C281.077 424.495 282.761 430.493 286.129 435.334C289.497 439.965 294.337 442.28 300.652 442.28C307.808 442.28 313.596 440.491 318.016 436.913C322.646 433.335 325.804 428.283 327.487 421.759C329.382 415.024 330.539 409.341 330.96 404.71C331.381 400.08 331.592 394.292 331.592 387.346V380.085ZM321.489 184.658C339.59 184.658 355.481 187.499 369.162 193.182C382.843 198.654 394.103 209.178 402.943 224.753C409.257 235.909 412.414 253.168 412.414 276.53V513H331.592V496.267H328.435C316.648 510.79 301.704 518.051 283.603 518.051C261.293 518.051 241.824 508.475 225.196 489.321C208.569 470.168 200.255 446.384 200.255 417.97C200.255 387.03 209.516 361.563 228.038 341.567C234.773 334.411 241.929 328.623 249.506 324.203C257.294 319.573 265.187 316.416 273.185 314.732C281.393 313.048 287.918 311.996 292.759 311.575C297.81 311.154 303.809 310.943 310.755 310.943H331.592V278.109C331.592 273.899 329.803 270.006 326.225 266.428C322.646 262.639 318.016 260.745 312.333 260.745C292.969 260.745 265.713 262.744 230.563 266.743V190.656C265.292 186.657 295.6 184.658 321.489 184.658Z" fill="#202020"/>
<path d="M331.592 380.085H333.745V377.931H331.592V380.085ZM287.707 389.24L285.992 387.939L285.985 387.948L287.707 389.24ZM286.129 435.334L284.361 436.564L284.374 436.583L284.387 436.601L286.129 435.334ZM318.016 436.913L316.699 435.209L316.68 435.224L316.661 435.239L318.016 436.913ZM327.487 421.759L325.414 421.176L325.408 421.198L325.402 421.221L327.487 421.759ZM369.162 193.182L368.336 195.171L368.349 195.176L368.362 195.181L369.162 193.182ZM402.943 224.753L404.817 223.693L404.816 223.69L402.943 224.753ZM412.414 513V515.154H414.568V513H412.414ZM331.592 513H329.438V515.154H331.592V513ZM331.592 496.267H333.745V494.114H331.592V496.267ZM328.435 496.267V494.114H327.409L326.762 494.91L328.435 496.267ZM225.196 489.321L223.57 490.733L223.57 490.733L225.196 489.321ZM228.038 341.567L226.469 340.092L226.464 340.098L226.458 340.104L228.038 341.567ZM249.506 324.203L250.591 326.063L250.599 326.059L250.607 326.054L249.506 324.203ZM273.185 314.732L272.752 312.622L272.741 312.624L273.185 314.732ZM292.759 311.575L292.58 309.429L292.572 309.429L292.759 311.575ZM331.592 310.943V313.097H333.745V310.943H331.592ZM326.225 266.428L324.659 267.906L324.68 267.929L324.702 267.95L326.225 266.428ZM230.563 266.743H228.41V269.156L230.807 268.883L230.563 266.743ZM230.563 190.656L230.317 188.517L228.41 188.737V190.656H230.563ZM331.592 380.085V377.931H310.123V380.085V382.238H331.592V380.085ZM310.123 380.085V377.931C299.388 377.931 291.161 381.125 285.992 387.939L287.707 389.24L289.423 390.542C293.515 385.148 300.232 382.238 310.123 382.238V380.085ZM287.707 389.24L285.985 387.948C281.144 394.402 278.924 404.343 278.924 417.339H281.077H283.231C283.231 404.657 285.431 395.865 289.43 390.532L287.707 389.24ZM281.077 417.339H278.924C278.924 424.839 280.693 431.291 284.361 436.564L286.129 435.334L287.897 434.105C284.83 429.696 283.231 424.151 283.231 417.339H281.077ZM286.129 435.334L284.387 436.601C288.206 441.852 293.731 444.434 300.652 444.434V442.28V440.127C294.944 440.127 290.787 438.078 287.871 434.068L286.129 435.334ZM300.652 442.28V444.434C308.171 444.434 314.477 442.548 319.371 438.587L318.016 436.913L316.661 435.239C312.715 438.434 307.445 440.127 300.652 440.127V442.28ZM318.016 436.913L319.333 438.617C324.398 434.703 327.788 429.211 329.573 422.297L327.487 421.759L325.402 421.221C323.819 427.356 320.895 431.967 316.699 435.209L318.016 436.913ZM327.487 421.759L329.56 422.342C331.475 415.536 332.668 409.715 333.105 404.905L330.96 404.71L328.816 404.515C328.411 408.967 327.289 414.511 325.414 421.176L327.487 421.759ZM330.96 404.71L333.105 404.905C333.534 400.187 333.745 394.328 333.745 387.346H331.592H329.438C329.438 394.255 329.229 399.973 328.816 404.515L330.96 404.71ZM331.592 387.346H333.745V380.085H331.592H329.438V387.346H331.592ZM321.489 184.658V186.811C339.367 186.811 354.968 189.618 368.336 195.171L369.162 193.182L369.988 191.193C355.994 185.38 339.812 182.504 321.489 182.504V184.658ZM369.162 193.182L368.362 195.181C381.498 200.436 392.418 210.571 401.07 225.816L402.943 224.753L404.816 223.69C395.788 207.785 384.187 196.873 369.961 191.182L369.162 193.182ZM402.943 224.753L401.069 225.814C407.104 236.477 410.261 253.279 410.261 276.53H412.414H414.568C414.568 253.056 411.41 235.34 404.817 223.693L402.943 224.753ZM412.414 276.53H410.261V513H412.414H414.568V276.53H412.414ZM412.414 513V510.846H331.592V513V515.154H412.414V513ZM331.592 513H333.745V496.267H331.592H329.438V513H331.592ZM331.592 496.267V494.114H328.435V496.267V498.421H331.592V496.267ZM328.435 496.267L326.762 494.91C315.369 508.949 301.031 515.898 283.603 515.898V518.051V520.205C302.378 520.205 317.927 512.631 330.107 497.624L328.435 496.267ZM283.603 518.051V515.898C262.006 515.898 243.103 506.664 226.822 487.91L225.196 489.321L223.57 490.733C240.544 510.286 260.58 520.205 283.603 520.205V518.051ZM225.196 489.321L226.822 487.91C210.576 469.196 202.408 445.932 202.408 417.97H200.255H198.101C198.101 446.836 206.561 471.141 223.57 490.733L225.196 489.321ZM200.255 417.97H202.408C202.408 387.494 211.515 362.574 229.617 343.031L228.038 341.567L226.458 340.104C207.517 360.552 198.101 386.566 198.101 417.97H200.255ZM228.038 341.567L229.606 343.043C236.216 336.02 243.213 330.367 250.591 326.063L249.506 324.203L248.421 322.343C240.645 326.879 233.33 332.803 226.469 340.092L228.038 341.567ZM249.506 324.203L250.607 326.054C258.213 321.532 265.885 318.469 273.628 316.839L273.185 314.732L272.741 312.624C264.488 314.362 256.375 317.614 248.406 322.352L249.506 324.203ZM273.185 314.732L273.617 316.841C281.794 315.164 288.225 314.13 292.945 313.72L292.759 311.575L292.572 309.429C287.61 309.861 280.993 310.932 272.752 312.622L273.185 314.732ZM292.759 311.575L292.938 313.721C297.913 313.306 303.848 313.097 310.755 313.097V310.943V308.79C303.769 308.79 297.708 309.001 292.58 309.429L292.759 311.575ZM310.755 310.943V313.097H331.592V310.943V308.79H310.755V310.943ZM331.592 310.943H333.745V278.109H331.592H329.438V310.943H331.592ZM331.592 278.109H333.745C333.745 273.216 331.642 268.799 327.747 264.905L326.225 266.428L324.702 267.95C327.963 271.212 329.438 274.583 329.438 278.109H331.592ZM326.225 266.428L327.79 264.949C323.766 260.688 318.549 258.591 312.333 258.591V260.745V262.898C317.483 262.898 321.527 264.59 324.659 267.906L326.225 266.428ZM312.333 260.745V258.591C292.847 258.591 265.496 260.602 230.32 264.604L230.563 266.743L230.807 268.883C265.93 264.887 293.091 262.898 312.333 262.898V260.745ZM230.563 266.743H232.717V190.656H230.563H228.41V266.743H230.563ZM230.563 190.656L230.81 192.796C265.483 188.803 295.705 186.811 321.489 186.811V184.658V182.504C295.495 182.504 265.101 184.511 230.317 188.517L230.563 190.656Z" fill="#C0C6D2" mask="url(#path-18-outside-1_283_198)"/>
<mask id="path-20-outside-2_283_198" maskUnits="userSpaceOnUse" x="369.65" y="182" width="218" height="339" fill="black">
<rect fill="white" x="369.65" y="182" width="218" height="339"/>
<path d="M503.707 380.085H482.239C471.925 380.085 464.453 383.136 459.823 389.24C455.403 395.134 453.193 404.5 453.193 417.339C453.193 424.495 454.877 430.493 458.244 435.334C461.612 439.965 466.453 442.28 472.767 442.28C479.923 442.28 485.711 440.491 490.131 436.913C494.762 433.335 497.919 428.283 499.603 421.759C501.497 415.024 502.655 409.341 503.076 404.71C503.497 400.08 503.707 394.292 503.707 387.346V380.085ZM493.604 184.658C511.705 184.658 527.596 187.499 541.277 193.182C554.958 198.654 566.218 209.178 575.058 224.753C581.373 235.909 584.53 253.168 584.53 276.53V513H503.707V496.267H500.55C488.763 510.79 473.82 518.051 455.719 518.051C433.408 518.051 413.939 508.475 397.312 489.321C380.684 470.168 372.37 446.384 372.37 417.97C372.37 387.03 381.631 361.563 400.153 341.567C406.888 334.411 414.044 328.623 421.621 324.203C429.409 319.573 437.302 316.416 445.3 314.732C453.509 313.048 460.033 311.996 464.874 311.575C469.926 311.154 475.924 310.943 482.87 310.943H503.707V278.109C503.707 273.899 501.918 270.006 498.34 266.428C494.762 262.639 490.131 260.745 484.449 260.745C465.085 260.745 437.828 262.744 402.679 266.743V190.656C437.407 186.657 467.716 184.658 493.604 184.658Z"/>
</mask>
<path d="M503.707 380.085H482.239C471.925 380.085 464.453 383.136 459.823 389.24C455.403 395.134 453.193 404.5 453.193 417.339C453.193 424.495 454.877 430.493 458.244 435.334C461.612 439.965 466.453 442.28 472.767 442.28C479.923 442.28 485.711 440.491 490.131 436.913C494.762 433.335 497.919 428.283 499.603 421.759C501.497 415.024 502.655 409.341 503.076 404.71C503.497 400.08 503.707 394.292 503.707 387.346V380.085ZM493.604 184.658C511.705 184.658 527.596 187.499 541.277 193.182C554.958 198.654 566.218 209.178 575.058 224.753C581.373 235.909 584.53 253.168 584.53 276.53V513H503.707V496.267H500.55C488.763 510.79 473.82 518.051 455.719 518.051C433.408 518.051 413.939 508.475 397.312 489.321C380.684 470.168 372.37 446.384 372.37 417.97C372.37 387.03 381.631 361.563 400.153 341.567C406.888 334.411 414.044 328.623 421.621 324.203C429.409 319.573 437.302 316.416 445.3 314.732C453.509 313.048 460.033 311.996 464.874 311.575C469.926 311.154 475.924 310.943 482.87 310.943H503.707V278.109C503.707 273.899 501.918 270.006 498.34 266.428C494.762 262.639 490.131 260.745 484.449 260.745C465.085 260.745 437.828 262.744 402.679 266.743V190.656C437.407 186.657 467.716 184.658 493.604 184.658Z" fill="#202020"/>
<path d="M503.707 380.085H505.861V377.931H503.707V380.085ZM459.823 389.24L458.107 387.939L458.1 387.948L459.823 389.24ZM458.244 435.334L456.476 436.564L456.489 436.583L456.503 436.601L458.244 435.334ZM490.131 436.913L488.815 435.209L488.795 435.224L488.776 435.239L490.131 436.913ZM499.603 421.759L497.53 421.176L497.523 421.198L497.518 421.221L499.603 421.759ZM541.277 193.182L540.451 195.171L540.464 195.176L540.477 195.181L541.277 193.182ZM575.058 224.753L576.932 223.693L576.931 223.69L575.058 224.753ZM584.53 513V515.154H586.683V513H584.53ZM503.707 513H501.554V515.154H503.707V513ZM503.707 496.267H505.861V494.114H503.707V496.267ZM500.55 496.267V494.114H499.524L498.878 494.91L500.55 496.267ZM397.312 489.321L395.685 490.733L395.685 490.733L397.312 489.321ZM400.153 341.567L398.585 340.092L398.579 340.098L398.573 340.104L400.153 341.567ZM421.621 324.203L422.707 326.063L422.714 326.059L422.722 326.054L421.621 324.203ZM445.3 314.732L444.867 312.622L444.856 312.624L445.3 314.732ZM464.874 311.575L464.695 309.429L464.688 309.429L464.874 311.575ZM503.707 310.943V313.097H505.861V310.943H503.707ZM498.34 266.428L496.774 267.906L496.795 267.929L496.817 267.95L498.34 266.428ZM402.679 266.743H400.525V269.156L402.922 268.883L402.679 266.743ZM402.679 190.656L402.432 188.517L400.525 188.737V190.656H402.679ZM503.707 380.085V377.931H482.239V380.085V382.238H503.707V380.085ZM482.239 380.085V377.931C471.503 377.931 463.276 381.125 458.107 387.939L459.823 389.24L461.539 390.542C465.631 385.148 472.347 382.238 482.239 382.238V380.085ZM459.823 389.24L458.1 387.948C453.259 394.402 451.039 404.343 451.039 417.339H453.193H455.346C455.346 404.657 457.546 395.865 461.546 390.532L459.823 389.24ZM453.193 417.339H451.039C451.039 424.839 452.808 431.291 456.476 436.564L458.244 435.334L460.012 434.105C456.945 429.696 455.346 424.151 455.346 417.339H453.193ZM458.244 435.334L456.503 436.601C460.322 441.852 465.846 444.434 472.767 444.434V442.28V440.127C467.06 440.127 462.902 438.078 459.986 434.068L458.244 435.334ZM472.767 442.28V444.434C480.286 444.434 486.593 442.548 491.486 438.587L490.131 436.913L488.776 435.239C484.83 438.434 479.56 440.127 472.767 440.127V442.28ZM490.131 436.913L491.448 438.617C496.513 434.703 499.904 429.211 501.688 422.297L499.603 421.759L497.518 421.221C495.934 427.356 493.011 431.967 488.815 435.209L490.131 436.913ZM499.603 421.759L501.676 422.342C503.59 415.536 504.783 409.715 505.22 404.905L503.076 404.71L500.931 404.515C500.526 408.967 499.404 414.511 497.53 421.176L499.603 421.759ZM503.076 404.71L505.22 404.905C505.649 400.187 505.861 394.328 505.861 387.346H503.707H501.554C501.554 394.255 501.344 399.973 500.931 404.515L503.076 404.71ZM503.707 387.346H505.861V380.085H503.707H501.554V387.346H503.707ZM493.604 184.658V186.811C511.483 186.811 527.083 189.618 540.451 195.171L541.277 193.182L542.103 191.193C528.109 185.38 511.927 182.504 493.604 182.504V184.658ZM541.277 193.182L540.477 195.181C553.613 200.436 564.533 210.571 573.186 225.816L575.058 224.753L576.931 223.69C567.904 207.785 556.303 196.873 542.077 191.182L541.277 193.182ZM575.058 224.753L573.184 225.814C579.22 236.477 582.376 253.279 582.376 276.53H584.53H586.683C586.683 253.056 583.526 235.34 576.932 223.693L575.058 224.753ZM584.53 276.53H582.376V513H584.53H586.683V276.53H584.53ZM584.53 513V510.846H503.707V513V515.154H584.53V513ZM503.707 513H505.861V496.267H503.707H501.554V513H503.707ZM503.707 496.267V494.114H500.55V496.267V498.421H503.707V496.267ZM500.55 496.267L498.878 494.91C487.484 508.949 473.146 515.898 455.719 515.898V518.051V520.205C474.493 520.205 490.042 512.631 502.222 497.624L500.55 496.267ZM455.719 518.051V515.898C434.121 515.898 415.219 506.664 398.938 487.91L397.312 489.321L395.685 490.733C412.66 510.286 432.695 520.205 455.719 520.205V518.051ZM397.312 489.321L398.938 487.91C382.692 469.196 374.524 445.932 374.524 417.97H372.37H370.217C370.217 446.836 378.676 471.141 395.685 490.733L397.312 489.321ZM372.37 417.97H374.524C374.524 387.494 383.63 362.574 401.733 343.031L400.153 341.567L398.573 340.104C379.632 360.552 370.217 386.566 370.217 417.97H372.37ZM400.153 341.567L401.721 343.043C408.331 336.02 415.328 330.367 422.707 326.063L421.621 324.203L420.536 322.343C412.761 326.879 405.445 332.803 398.585 340.092L400.153 341.567ZM421.621 324.203L422.722 326.054C430.328 321.532 438.001 318.469 445.744 316.839L445.3 314.732L444.856 312.624C436.603 314.362 428.49 317.614 420.521 322.352L421.621 324.203ZM445.3 314.732L445.733 316.841C453.909 315.164 460.341 314.13 465.061 313.72L464.874 311.575L464.688 309.429C459.726 309.861 453.108 310.932 444.867 312.622L445.3 314.732ZM464.874 311.575L465.053 313.721C470.028 313.306 475.964 313.097 482.87 313.097V310.943V308.79C475.885 308.79 469.824 309.001 464.695 309.429L464.874 311.575ZM482.87 310.943V313.097H503.707V310.943V308.79H482.87V310.943ZM503.707 310.943H505.861V278.109H503.707H501.554V310.943H503.707ZM503.707 278.109H505.861C505.861 273.216 503.757 268.799 499.863 264.905L498.34 266.428L496.817 267.95C500.079 271.212 501.554 274.583 501.554 278.109H503.707ZM498.34 266.428L499.906 264.949C495.881 260.688 490.664 258.591 484.449 258.591V260.745V262.898C489.598 262.898 493.642 264.59 496.774 267.906L498.34 266.428ZM484.449 260.745V258.591C464.963 258.591 437.611 260.602 402.435 264.604L402.679 266.743L402.922 268.883C438.045 264.887 465.207 262.898 484.449 262.898V260.745ZM402.679 266.743H404.832V190.656H402.679H400.525V266.743H402.679ZM402.679 190.656L402.925 192.796C437.598 188.803 467.821 186.811 493.604 186.811V184.658V182.504C467.611 182.504 437.216 184.511 402.432 188.517L402.679 190.656Z" fill="#C0C6D2" mask="url(#path-20-outside-2_283_198)"/>
<mask id="path-22-outside-3_283_198" maskUnits="userSpaceOnUse" x="541.766" y="182" width="218" height="339" fill="black">
<rect fill="white" x="541.766" y="182" width="218" height="339"/>
<path d="M675.823 380.085H654.354C644.041 380.085 636.569 383.136 631.938 389.24C627.518 395.134 625.308 404.5 625.308 417.339C625.308 424.495 626.992 430.493 630.36 435.334C633.728 439.965 638.568 442.28 644.883 442.28C652.039 442.28 657.827 440.491 662.247 436.913C666.877 433.335 670.035 428.283 671.718 421.759C673.613 415.024 674.77 409.341 675.191 404.71C675.612 400.08 675.823 394.292 675.823 387.346V380.085ZM665.72 184.658C683.821 184.658 699.712 187.499 713.393 193.182C727.074 198.654 738.334 209.178 747.174 224.753C753.488 235.909 756.645 253.168 756.645 276.53V513H675.823V496.267H672.666C660.879 510.79 645.935 518.051 627.834 518.051C605.524 518.051 586.055 508.475 569.427 489.321C552.8 470.168 544.486 446.384 544.486 417.97C544.486 387.03 553.747 361.563 572.269 341.567C579.004 334.411 586.16 328.623 593.737 324.203C601.525 319.573 609.418 316.416 617.416 314.732C625.624 313.048 632.149 311.996 636.99 311.575C642.041 311.154 648.04 310.943 654.986 310.943H675.823V278.109C675.823 273.899 674.034 270.006 670.456 266.428C666.877 262.639 662.247 260.745 656.564 260.745C637.2 260.745 609.944 262.744 574.794 266.743V190.656C609.523 186.657 639.831 184.658 665.72 184.658Z"/>
</mask>
<path d="M675.823 380.085H654.354C644.041 380.085 636.569 383.136 631.938 389.24C627.518 395.134 625.308 404.5 625.308 417.339C625.308 424.495 626.992 430.493 630.36 435.334C633.728 439.965 638.568 442.28 644.883 442.28C652.039 442.28 657.827 440.491 662.247 436.913C666.877 433.335 670.035 428.283 671.718 421.759C673.613 415.024 674.77 409.341 675.191 404.71C675.612 400.08 675.823 394.292 675.823 387.346V380.085ZM665.72 184.658C683.821 184.658 699.712 187.499 713.393 193.182C727.074 198.654 738.334 209.178 747.174 224.753C753.488 235.909 756.645 253.168 756.645 276.53V513H675.823V496.267H672.666C660.879 510.79 645.935 518.051 627.834 518.051C605.524 518.051 586.055 508.475 569.427 489.321C552.8 470.168 544.486 446.384 544.486 417.97C544.486 387.03 553.747 361.563 572.269 341.567C579.004 334.411 586.16 328.623 593.737 324.203C601.525 319.573 609.418 316.416 617.416 314.732C625.624 313.048 632.149 311.996 636.99 311.575C642.041 311.154 648.04 310.943 654.986 310.943H675.823V278.109C675.823 273.899 674.034 270.006 670.456 266.428C666.877 262.639 662.247 260.745 656.564 260.745C637.2 260.745 609.944 262.744 574.794 266.743V190.656C609.523 186.657 639.831 184.658 665.72 184.658Z" fill="#202020"/>
<path d="M675.823 380.085H677.976V377.931H675.823V380.085ZM631.938 389.24L630.223 387.939L630.216 387.948L631.938 389.24ZM630.36 435.334L628.592 436.564L628.605 436.583L628.618 436.601L630.36 435.334ZM662.247 436.913L660.93 435.209L660.911 435.224L660.892 435.239L662.247 436.913ZM671.718 421.759L669.645 421.176L669.639 421.198L669.633 421.221L671.718 421.759ZM713.393 193.182L712.567 195.171L712.58 195.176L712.593 195.181L713.393 193.182ZM747.174 224.753L749.048 223.693L749.047 223.69L747.174 224.753ZM756.645 513V515.154H758.799V513H756.645ZM675.823 513H673.669V515.154H675.823V513ZM675.823 496.267H677.976V494.114H675.823V496.267ZM672.666 496.267V494.114H671.64L670.993 494.91L672.666 496.267ZM569.427 489.321L567.801 490.733L567.801 490.733L569.427 489.321ZM572.269 341.567L570.7 340.092L570.695 340.098L570.689 340.104L572.269 341.567ZM593.737 324.203L594.822 326.063L594.83 326.059L594.838 326.054L593.737 324.203ZM617.416 314.732L616.983 312.622L616.972 312.624L617.416 314.732ZM636.99 311.575L636.811 309.429L636.803 309.429L636.99 311.575ZM675.823 310.943V313.097H677.976V310.943H675.823ZM670.456 266.428L668.89 267.906L668.911 267.929L668.933 267.95L670.456 266.428ZM574.794 266.743H572.641V269.156L575.038 268.883L574.794 266.743ZM574.794 190.656L574.548 188.517L572.641 188.737V190.656H574.794ZM675.823 380.085V377.931H654.354V380.085V382.238H675.823V380.085ZM654.354 380.085V377.931C643.619 377.931 635.392 381.125 630.223 387.939L631.938 389.24L633.654 390.542C637.746 385.148 644.463 382.238 654.354 382.238V380.085ZM631.938 389.24L630.216 387.948C625.375 394.402 623.155 404.343 623.155 417.339H625.308H627.462C627.462 404.657 629.662 395.865 633.661 390.532L631.938 389.24ZM625.308 417.339H623.155C623.155 424.839 624.924 431.291 628.592 436.564L630.36 435.334L632.128 434.105C629.061 429.696 627.462 424.151 627.462 417.339H625.308ZM630.36 435.334L628.618 436.601C632.437 441.852 637.962 444.434 644.883 444.434V442.28V440.127C639.175 440.127 635.018 438.078 632.102 434.068L630.36 435.334ZM644.883 442.28V444.434C652.402 444.434 658.708 442.548 663.602 438.587L662.247 436.913L660.892 435.239C656.946 438.434 651.676 440.127 644.883 440.127V442.28ZM662.247 436.913L663.564 438.617C668.629 434.703 672.019 429.211 673.804 422.297L671.718 421.759L669.633 421.221C668.05 427.356 665.126 431.967 660.93 435.209L662.247 436.913ZM671.718 421.759L673.791 422.342C675.705 415.536 676.899 409.715 677.336 404.905L675.191 404.71L673.047 404.515C672.642 408.967 671.52 414.511 669.645 421.176L671.718 421.759ZM675.191 404.71L677.336 404.905C677.765 400.187 677.976 394.328 677.976 387.346H675.823H673.669C673.669 394.255 673.46 399.973 673.047 404.515L675.191 404.71ZM675.823 387.346H677.976V380.085H675.823H673.669V387.346H675.823ZM665.72 184.658V186.811C683.598 186.811 699.199 189.618 712.567 195.171L713.393 193.182L714.219 191.193C700.225 185.38 684.043 182.504 665.72 182.504V184.658ZM713.393 193.182L712.593 195.181C725.729 200.436 736.649 210.571 745.301 225.816L747.174 224.753L749.047 223.69C740.019 207.785 728.418 196.873 714.192 191.182L713.393 193.182ZM747.174 224.753L745.3 225.814C751.335 236.477 754.492 253.279 754.492 276.53H756.645H758.799C758.799 253.056 755.641 235.34 749.048 223.693L747.174 224.753ZM756.645 276.53H754.492V513H756.645H758.799V276.53H756.645ZM756.645 513V510.846H675.823V513V515.154H756.645V513ZM675.823 513H677.976V496.267H675.823H673.669V513H675.823ZM675.823 496.267V494.114H672.666V496.267V498.421H675.823V496.267ZM672.666 496.267L670.993 494.91C659.6 508.949 645.262 515.898 627.834 515.898V518.051V520.205C646.609 520.205 662.158 512.631 674.338 497.624L672.666 496.267ZM627.834 518.051V515.898C606.237 515.898 587.334 506.664 571.053 487.91L569.427 489.321L567.801 490.733C584.775 510.286 604.811 520.205 627.834 520.205V518.051ZM569.427 489.321L571.053 487.91C554.807 469.196 546.639 445.932 546.639 417.97H544.486H542.332C542.332 446.836 550.792 471.141 567.801 490.733L569.427 489.321ZM544.486 417.97H546.639C546.639 387.494 555.746 362.574 573.848 343.031L572.269 341.567L570.689 340.104C551.748 360.552 542.332 386.566 542.332 417.97H544.486ZM572.269 341.567L573.837 343.043C580.447 336.02 587.444 330.367 594.822 326.063L593.737 324.203L592.652 322.343C584.876 326.879 577.561 332.803 570.7 340.092L572.269 341.567ZM593.737 324.203L594.838 326.054C602.444 321.532 610.116 318.469 617.859 316.839L617.416 314.732L616.972 312.624C608.719 314.362 600.606 317.614 592.636 322.352L593.737 324.203ZM617.416 314.732L617.848 316.841C626.025 315.164 632.456 314.13 637.176 313.72L636.99 311.575L636.803 309.429C631.841 309.861 625.224 310.932 616.983 312.622L617.416 314.732ZM636.99 311.575L637.169 313.721C642.144 313.306 648.079 313.097 654.986 313.097V310.943V308.79C648 308.79 641.939 309.001 636.811 309.429L636.99 311.575ZM654.986 310.943V313.097H675.823V310.943V308.79H654.986V310.943ZM675.823 310.943H677.976V278.109H675.823H673.669V310.943H675.823ZM675.823 278.109H677.976C677.976 273.216 675.873 268.799 671.978 264.905L670.456 266.428L668.933 267.95C672.194 271.212 673.669 274.583 673.669 278.109H675.823ZM670.456 266.428L672.021 264.949C667.997 260.688 662.78 258.591 656.564 258.591V260.745V262.898C661.714 262.898 665.758 264.59 668.89 267.906L670.456 266.428ZM656.564 260.745V258.591C637.078 258.591 609.727 260.602 574.551 264.604L574.794 266.743L575.038 268.883C610.161 264.887 637.322 262.898 656.564 262.898V260.745ZM574.794 266.743H576.948V190.656H574.794H572.641V266.743H574.794ZM574.794 190.656L575.041 192.796C609.714 188.803 639.936 186.811 665.72 186.811V184.658V182.504C639.726 182.504 609.332 184.511 574.548 188.517L574.794 190.656Z" fill="#C0C6D2" mask="url(#path-22-outside-3_283_198)"/>
<rect x="529.831" y="63.5942" width="677.636" height="475.697" rx="40" fill="#E8ECFF"/>
<rect x="555.083" y="138.885" width="485.73" height="374.848" rx="24" fill="#1939FA"/>
<path d="M674.067 321.869H657.733C649.886 321.869 644.201 324.191 640.677 328.835C637.314 333.319 635.633 340.445 635.633 350.214C635.633 355.659 636.914 360.223 639.476 363.907C642.039 367.43 645.722 369.191 650.526 369.191C655.971 369.191 660.375 367.83 663.738 365.108C667.261 362.385 669.664 358.542 670.945 353.577C672.386 348.453 673.267 344.129 673.587 340.606C673.907 337.082 674.067 332.678 674.067 327.394V321.869ZM666.381 173.174C680.153 173.174 692.244 175.336 702.653 179.66C713.063 183.824 721.63 191.831 728.357 203.682C733.161 212.17 735.563 225.301 735.563 243.077V423H674.067V410.268H671.665C662.697 421.318 651.327 426.843 637.554 426.843C620.579 426.843 605.766 419.557 593.114 404.984C580.463 390.411 574.137 372.314 574.137 350.695C574.137 327.153 581.184 307.776 595.276 292.562C600.401 287.117 605.846 282.713 611.611 279.35C617.536 275.827 623.542 273.425 629.627 272.144C635.873 270.863 640.837 270.062 644.521 269.742C648.364 269.421 652.928 269.261 658.213 269.261H674.067V244.279C674.067 241.076 672.706 238.113 669.984 235.391C667.261 232.508 663.738 231.067 659.414 231.067C644.681 231.067 623.942 232.588 597.198 235.631V177.738C623.622 174.696 646.683 173.174 666.381 173.174Z" fill="#202020"/>
<path d="M805.025 321.869H788.69C780.843 321.869 775.158 324.191 771.635 328.835C768.272 333.319 766.59 340.445 766.59 350.214C766.59 355.659 767.872 360.223 770.434 363.907C772.996 367.43 776.68 369.191 781.484 369.191C786.929 369.191 791.333 367.83 794.696 365.108C798.219 362.385 800.621 358.542 801.902 353.577C803.344 348.453 804.224 344.129 804.545 340.606C804.865 337.082 805.025 332.678 805.025 327.394V321.869ZM797.338 173.174C811.111 173.174 823.202 175.336 833.611 179.66C844.02 183.824 852.588 191.831 859.314 203.682C864.119 212.17 866.521 225.301 866.521 243.077V423H805.025V410.268H802.623C793.655 421.318 782.285 426.843 768.512 426.843C751.537 426.843 736.723 419.557 724.072 404.984C711.421 390.411 705.095 372.314 705.095 350.695C705.095 327.153 712.141 307.776 726.234 292.562C731.359 287.117 736.804 282.713 742.569 279.35C748.494 275.827 754.499 273.425 760.585 272.144C766.831 270.863 771.795 270.062 775.478 269.742C779.322 269.421 783.886 269.261 789.171 269.261H805.025V244.279C805.025 241.076 803.664 238.113 800.941 235.391C798.219 232.508 794.696 231.067 790.372 231.067C775.639 231.067 754.9 232.588 728.156 235.631V177.738C754.58 174.696 777.64 173.174 797.338 173.174Z" fill="#202020"/>
<path d="M935.983 321.869H919.648C911.801 321.869 906.116 324.191 902.592 328.835C899.229 333.319 897.548 340.445 897.548 350.214C897.548 355.659 898.829 360.223 901.391 363.907C903.954 367.43 907.637 369.191 912.441 369.191C917.886 369.191 922.29 367.83 925.653 365.108C929.176 362.385 931.579 358.542 932.86 353.577C934.301 348.453 935.182 344.129 935.502 340.606C935.822 337.082 935.983 332.678 935.983 327.394V321.869ZM928.296 173.174C942.068 173.174 954.159 175.336 964.568 179.66C974.978 183.824 983.545 191.831 990.272 203.682C995.076 212.17 997.478 225.301 997.478 243.077V423H935.983V410.268H933.58C924.612 421.318 913.242 426.843 899.47 426.843C882.494 426.843 867.681 419.557 855.029 404.984C842.378 390.411 836.052 372.314 836.052 350.695C836.052 327.153 843.099 307.776 857.191 292.562C862.316 287.117 867.761 282.713 873.526 279.35C879.451 275.827 885.457 273.425 891.542 272.144C897.788 270.863 902.753 270.062 906.436 269.742C910.279 269.421 914.843 269.261 920.128 269.261H935.983V244.279C935.983 241.076 934.621 238.113 931.899 235.391C929.176 232.508 925.653 231.067 921.329 231.067C906.596 231.067 885.857 232.588 859.113 235.631V177.738C885.537 174.696 908.598 173.174 928.296 173.174Z" fill="#202020"/>
<mask id="path-29-outside-4_283_198" maskUnits="userSpaceOnUse" x="588.714" y="171" width="165" height="258" fill="black">
<rect fill="white" x="588.714" y="171" width="165" height="258"/>
<path d="M690.453 321.869H674.118C666.271 321.869 660.586 324.191 657.063 328.835C653.7 333.319 652.018 340.445 652.018 350.214C652.018 355.659 653.299 360.223 655.862 363.907C658.424 367.43 662.107 369.191 666.912 369.191C672.357 369.191 676.761 367.83 680.124 365.108C683.647 362.385 686.049 358.542 687.33 353.577C688.771 348.453 689.652 344.129 689.973 340.606C690.293 337.082 690.453 332.678 690.453 327.394V321.869ZM682.766 173.174C696.538 173.174 708.629 175.336 719.039 179.66C729.448 183.824 738.016 191.831 744.742 203.682C749.546 212.17 751.949 225.301 751.949 243.077V423H690.453V410.268H688.051C679.083 421.318 667.712 426.843 653.94 426.843C636.965 426.843 622.151 419.557 609.5 404.984C596.848 390.411 590.523 372.314 590.523 350.695C590.523 327.153 597.569 307.776 611.662 292.562C616.786 287.117 622.231 282.713 627.997 279.35C633.922 275.827 639.927 273.425 646.013 272.144C652.258 270.863 657.223 270.062 660.906 269.742C664.75 269.421 669.314 269.261 674.599 269.261H690.453V244.279C690.453 241.076 689.092 238.113 686.369 235.391C683.647 232.508 680.124 231.067 675.8 231.067C661.066 231.067 640.328 232.588 613.584 235.631V177.738C640.007 174.696 663.068 173.174 682.766 173.174Z"/>
</mask>
<path d="M690.453 321.869H674.118C666.271 321.869 660.586 324.191 657.063 328.835C653.7 333.319 652.018 340.445 652.018 350.214C652.018 355.659 653.299 360.223 655.862 363.907C658.424 367.43 662.107 369.191 666.912 369.191C672.357 369.191 676.761 367.83 680.124 365.108C683.647 362.385 686.049 358.542 687.33 353.577C688.771 348.453 689.652 344.129 689.973 340.606C690.293 337.082 690.453 332.678 690.453 327.394V321.869ZM682.766 173.174C696.538 173.174 708.629 175.336 719.039 179.66C729.448 183.824 738.016 191.831 744.742 203.682C749.546 212.17 751.949 225.301 751.949 243.077V423H690.453V410.268H688.051C679.083 421.318 667.712 426.843 653.94 426.843C636.965 426.843 622.151 419.557 609.5 404.984C596.848 390.411 590.523 372.314 590.523 350.695C590.523 327.153 597.569 307.776 611.662 292.562C616.786 287.117 622.231 282.713 627.997 279.35C633.922 275.827 639.927 273.425 646.013 272.144C652.258 270.863 657.223 270.062 660.906 269.742C664.75 269.421 669.314 269.261 674.599 269.261H690.453V244.279C690.453 241.076 689.092 238.113 686.369 235.391C683.647 232.508 680.124 231.067 675.8 231.067C661.066 231.067 640.328 232.588 613.584 235.631V177.738C640.007 174.696 663.068 173.174 682.766 173.174Z" fill="#202020"/>
<path d="M690.453 321.869H692.092V320.23H690.453V321.869ZM657.063 328.835L655.757 327.845L655.752 327.852L657.063 328.835ZM655.862 363.907L654.517 364.842L654.526 364.856L654.537 364.87L655.862 363.907ZM680.124 365.108L679.122 363.811L679.107 363.822L679.093 363.834L680.124 365.108ZM687.33 353.577L685.753 353.134L685.748 353.151L685.744 353.168L687.33 353.577ZM719.039 179.66L718.41 181.173L718.42 181.178L718.43 181.182L719.039 179.66ZM744.742 203.682L746.168 202.875L746.167 202.873L744.742 203.682ZM751.949 423V424.639H753.587V423H751.949ZM690.453 423H688.814V424.639H690.453V423ZM690.453 410.268H692.092V408.63H690.453V410.268ZM688.051 410.268V408.63H687.27L686.779 409.236L688.051 410.268ZM609.5 404.984L608.263 406.058L608.263 406.058L609.5 404.984ZM611.662 292.562L610.469 291.439L610.46 291.449L611.662 292.562ZM627.997 279.35L628.822 280.766L628.834 280.759L627.997 279.35ZM646.013 272.144L645.684 270.539L645.675 270.54L646.013 272.144ZM660.906 269.742L660.77 268.109L660.764 268.109L660.906 269.742ZM690.453 269.261V270.9H692.092V269.261H690.453ZM686.369 235.391L685.178 236.516L685.194 236.533L685.211 236.549L686.369 235.391ZM613.584 235.631H611.945V237.466L613.769 237.259L613.584 235.631ZM613.584 177.738L613.396 176.111L611.945 176.278V177.738H613.584ZM690.453 321.869V320.23H674.118V321.869V323.507H690.453V321.869ZM674.118 321.869V320.23C665.95 320.23 659.69 322.661 655.757 327.845L657.063 328.835L658.368 329.825C661.482 325.721 666.592 323.507 674.118 323.507V321.869ZM657.063 328.835L655.752 327.852C652.069 332.763 650.38 340.326 650.38 350.214H652.018H653.657C653.657 340.565 655.331 333.875 658.374 329.818L657.063 328.835ZM652.018 350.214H650.38C650.38 355.921 651.726 360.83 654.517 364.842L655.862 363.907L657.207 362.971C654.873 359.616 653.657 355.397 653.657 350.214H652.018ZM655.862 363.907L654.537 364.87C657.442 368.866 661.646 370.83 666.912 370.83V369.191V367.553C662.569 367.553 659.406 365.994 657.187 362.943L655.862 363.907ZM666.912 369.191V370.83C672.633 370.83 677.431 369.395 681.155 366.381L680.124 365.108L679.093 363.834C676.09 366.265 672.08 367.553 666.912 367.553V369.191ZM680.124 365.108L681.126 366.404C684.979 363.426 687.559 359.248 688.917 353.987L687.33 353.577L685.744 353.168C684.539 357.836 682.314 361.344 679.122 363.811L680.124 365.108ZM687.33 353.577L688.907 354.021C690.364 348.843 691.272 344.413 691.604 340.754L689.973 340.606L688.341 340.457C688.033 343.844 687.179 348.062 685.753 353.134L687.33 353.577ZM689.973 340.606L691.604 340.754C691.931 337.164 692.092 332.706 692.092 327.394H690.453H688.814C688.814 332.65 688.655 337.001 688.341 340.457L689.973 340.606ZM690.453 327.394H692.092V321.869H690.453H688.814V327.394H690.453ZM682.766 173.174V174.813C696.369 174.813 708.239 176.948 718.41 181.173L719.039 179.66L719.667 178.147C709.02 173.724 696.708 171.536 682.766 171.536V173.174ZM719.039 179.66L718.43 181.182C728.425 185.179 736.734 192.891 743.317 204.491L744.742 203.682L746.167 202.873C739.298 190.771 730.471 182.469 719.647 178.139L719.039 179.66ZM744.742 203.682L743.316 204.489C747.908 212.602 750.31 225.386 750.31 243.077H751.949H753.587C753.587 225.217 751.184 211.737 746.168 202.875L744.742 203.682ZM751.949 243.077H750.31V423H751.949H753.587V243.077H751.949ZM751.949 423V421.361H690.453V423V424.639H751.949V423ZM690.453 423H692.092V410.268H690.453H688.814V423H690.453ZM690.453 410.268V408.63H688.051V410.268V411.907H690.453V410.268ZM688.051 410.268L686.779 409.236C678.11 419.917 667.2 425.205 653.94 425.205V426.843V428.482C668.225 428.482 680.056 422.72 689.323 411.301L688.051 410.268ZM653.94 426.843V425.205C637.507 425.205 623.125 418.179 610.737 403.91L609.5 404.984L608.263 406.058C621.178 420.935 636.422 428.482 653.94 428.482V426.843ZM609.5 404.984L610.737 403.91C598.376 389.671 592.161 371.97 592.161 350.695H590.523H588.884C588.884 372.658 595.321 391.15 608.263 406.058L609.5 404.984ZM590.523 350.695H592.161C592.161 327.506 599.09 308.545 612.864 293.676L611.662 292.562L610.46 291.449C596.048 307.007 588.884 326.801 588.884 350.695H590.523ZM611.662 292.562L612.855 293.685C617.885 288.341 623.208 284.04 628.822 280.766L627.997 279.35L627.171 277.935C621.255 281.386 615.688 285.893 610.469 291.439L611.662 292.562ZM627.997 279.35L628.834 280.759C634.621 277.318 640.459 274.987 646.35 273.747L646.013 272.144L645.675 270.54C639.396 271.862 633.223 274.337 627.159 277.942L627.997 279.35ZM646.013 272.144L646.342 273.749C652.563 272.473 657.457 271.686 661.048 271.374L660.906 269.742L660.764 268.109C656.989 268.437 651.954 269.252 645.684 270.539L646.013 272.144ZM660.906 269.742L661.042 271.374C664.828 271.059 669.344 270.9 674.599 270.9V269.261V267.623C669.284 267.623 664.672 267.784 660.77 268.109L660.906 269.742ZM674.599 269.261V270.9H690.453V269.261V267.623H674.599V269.261ZM690.453 269.261H692.092V244.279H690.453H688.814V269.261H690.453ZM690.453 244.279H692.092C692.092 240.555 690.491 237.195 687.528 234.232L686.369 235.391L685.211 236.549C687.692 239.031 688.814 241.596 688.814 244.279H690.453ZM686.369 235.391L687.561 234.265C684.499 231.024 680.529 229.428 675.8 229.428V231.067V232.705C679.718 232.705 682.795 233.992 685.178 236.516L686.369 235.391ZM675.8 231.067V229.428C660.974 229.428 640.163 230.958 613.398 234.003L613.584 235.631L613.769 237.259C640.493 234.218 661.159 232.705 675.8 232.705V231.067ZM613.584 235.631H615.222V177.738H613.584H611.945V235.631H613.584ZM613.584 177.738L613.771 179.366C640.153 176.328 663.148 174.813 682.766 174.813V173.174V171.536C662.988 171.536 639.862 173.063 613.396 176.111L613.584 177.738Z" fill="#E8ECFF" mask="url(#path-29-outside-4_283_198)"/>
<mask id="path-31-outside-5_283_198" maskUnits="userSpaceOnUse" x="719.672" y="171" width="165" height="258" fill="black">
<rect fill="white" x="719.672" y="171" width="165" height="258"/>
<path d="M821.41 321.869H805.076C797.229 321.869 791.543 324.191 788.02 328.835C784.657 333.319 782.976 340.445 782.976 350.214C782.976 355.659 784.257 360.223 786.819 363.907C789.382 367.43 793.065 369.191 797.869 369.191C803.314 369.191 807.718 367.83 811.081 365.108C814.604 362.385 817.006 358.542 818.288 353.577C819.729 348.453 820.61 344.129 820.93 340.606C821.25 337.082 821.41 332.678 821.41 327.394V321.869ZM813.723 173.174C827.496 173.174 839.587 175.336 849.996 179.66C860.406 183.824 868.973 191.831 875.699 203.682C880.504 212.17 882.906 225.301 882.906 243.077V423H821.41V410.268H819.008C810.04 421.318 798.67 426.843 784.897 426.843C767.922 426.843 753.109 419.557 740.457 404.984C727.806 390.411 721.48 372.314 721.48 350.695C721.48 327.153 728.527 307.776 742.619 292.562C747.744 287.117 753.189 282.713 758.954 279.35C764.879 275.827 770.885 273.425 776.97 272.144C783.216 270.863 788.18 270.062 791.864 269.742C795.707 269.421 800.271 269.261 805.556 269.261H821.41V244.279C821.41 241.076 820.049 238.113 817.327 235.391C814.604 232.508 811.081 231.067 806.757 231.067C792.024 231.067 771.285 232.588 744.541 235.631V177.738C770.965 174.696 794.026 173.174 813.723 173.174Z"/>
</mask>
<path d="M821.41 321.869H805.076C797.229 321.869 791.543 324.191 788.02 328.835C784.657 333.319 782.976 340.445 782.976 350.214C782.976 355.659 784.257 360.223 786.819 363.907C789.382 367.43 793.065 369.191 797.869 369.191C803.314 369.191 807.718 367.83 811.081 365.108C814.604 362.385 817.006 358.542 818.288 353.577C819.729 348.453 820.61 344.129 820.93 340.606C821.25 337.082 821.41 332.678 821.41 327.394V321.869ZM813.723 173.174C827.496 173.174 839.587 175.336 849.996 179.66C860.406 183.824 868.973 191.831 875.699 203.682C880.504 212.17 882.906 225.301 882.906 243.077V423H821.41V410.268H819.008C810.04 421.318 798.67 426.843 784.897 426.843C767.922 426.843 753.109 419.557 740.457 404.984C727.806 390.411 721.48 372.314 721.48 350.695C721.48 327.153 728.527 307.776 742.619 292.562C747.744 287.117 753.189 282.713 758.954 279.35C764.879 275.827 770.885 273.425 776.97 272.144C783.216 270.863 788.18 270.062 791.864 269.742C795.707 269.421 800.271 269.261 805.556 269.261H821.41V244.279C821.41 241.076 820.049 238.113 817.327 235.391C814.604 232.508 811.081 231.067 806.757 231.067C792.024 231.067 771.285 232.588 744.541 235.631V177.738C770.965 174.696 794.026 173.174 813.723 173.174Z" fill="#202020"/>
<path d="M821.41 321.869H823.049V320.23H821.41V321.869ZM788.02 328.835L786.715 327.845L786.709 327.852L788.02 328.835ZM786.819 363.907L785.474 364.842L785.484 364.856L785.494 364.87L786.819 363.907ZM811.081 365.108L810.079 363.811L810.065 363.822L810.05 363.834L811.081 365.108ZM818.288 353.577L816.71 353.134L816.705 353.151L816.701 353.168L818.288 353.577ZM849.996 179.66L849.368 181.173L849.378 181.178L849.388 181.182L849.996 179.66ZM875.699 203.682L877.125 202.875L877.124 202.873L875.699 203.682ZM882.906 423V424.639H884.545V423H882.906ZM821.41 423H819.772V424.639H821.41V423ZM821.41 410.268H823.049V408.63H821.41V410.268ZM819.008 410.268V408.63H818.228L817.736 409.236L819.008 410.268ZM740.457 404.984L739.22 406.058L739.22 406.058L740.457 404.984ZM742.619 292.562L741.426 291.439L741.417 291.449L742.619 292.562ZM758.954 279.35L759.78 280.766L759.791 280.759L758.954 279.35ZM776.97 272.144L776.641 270.539L776.633 270.54L776.97 272.144ZM791.864 269.742L791.728 268.109L791.722 268.109L791.864 269.742ZM821.41 269.261V270.9H823.049V269.261H821.41ZM817.327 235.391L816.136 236.516L816.152 236.533L816.168 236.549L817.327 235.391ZM744.541 235.631H742.902V237.466L744.726 237.259L744.541 235.631ZM744.541 177.738L744.354 176.111L742.902 176.278V177.738H744.541ZM821.41 321.869V320.23H805.076V321.869V323.507H821.41V321.869ZM805.076 321.869V320.23C796.907 320.23 790.648 322.661 786.715 327.845L788.02 328.835L789.326 329.825C792.439 325.721 797.55 323.507 805.076 323.507V321.869ZM788.02 328.835L786.709 327.852C783.026 332.763 781.337 340.326 781.337 350.214H782.976H784.614C784.614 340.565 786.288 333.875 789.331 329.818L788.02 328.835ZM782.976 350.214H781.337C781.337 355.921 782.683 360.83 785.474 364.842L786.819 363.907L788.164 362.971C785.831 359.616 784.614 355.397 784.614 350.214H782.976ZM786.819 363.907L785.494 364.87C788.4 368.866 792.603 370.83 797.869 370.83V369.191V367.553C793.527 367.553 790.363 365.994 788.144 362.943L786.819 363.907ZM797.869 369.191V370.83C803.59 370.83 808.389 369.395 812.112 366.381L811.081 365.108L810.05 363.834C807.048 366.265 803.038 367.553 797.869 367.553V369.191ZM811.081 365.108L812.083 366.404C815.937 363.426 818.516 359.248 819.874 353.987L818.288 353.577L816.701 353.168C815.496 357.836 813.272 361.344 810.079 363.811L811.081 365.108ZM818.288 353.577L819.865 354.021C821.321 348.843 822.229 344.413 822.562 340.754L820.93 340.606L819.298 340.457C818.99 343.844 818.137 348.062 816.71 353.134L818.288 353.577ZM820.93 340.606L822.562 340.754C822.888 337.164 823.049 332.706 823.049 327.394H821.41H819.772C819.772 332.65 819.612 337.001 819.298 340.457L820.93 340.606ZM821.41 327.394H823.049V321.869H821.41H819.772V327.394H821.41ZM813.723 173.174V174.813C827.327 174.813 839.196 176.948 849.368 181.173L849.996 179.66L850.625 178.147C839.977 173.724 827.665 171.536 813.723 171.536V173.174ZM849.996 179.66L849.388 181.182C859.382 185.179 867.691 192.891 874.274 204.491L875.699 203.682L877.124 202.873C870.256 190.771 861.429 182.469 850.605 178.139L849.996 179.66ZM875.699 203.682L874.274 204.489C878.866 212.602 881.267 225.386 881.267 243.077H882.906H884.545C884.545 225.217 882.142 211.737 877.125 202.875L875.699 203.682ZM882.906 243.077H881.267V423H882.906H884.545V243.077H882.906ZM882.906 423V421.361H821.41V423V424.639H882.906V423ZM821.41 423H823.049V410.268H821.41H819.772V423H821.41ZM821.41 410.268V408.63H819.008V410.268V411.907H821.41V410.268ZM819.008 410.268L817.736 409.236C809.067 419.917 798.157 425.205 784.897 425.205V426.843V428.482C799.182 428.482 811.013 422.72 820.281 411.301L819.008 410.268ZM784.897 426.843V425.205C768.465 425.205 754.082 418.179 741.695 403.91L740.457 404.984L739.22 406.058C752.135 420.935 767.38 428.482 784.897 428.482V426.843ZM740.457 404.984L741.695 403.91C729.333 389.671 723.119 371.97 723.119 350.695H721.48H719.842C719.842 372.658 726.278 391.15 739.22 406.058L740.457 404.984ZM721.48 350.695H723.119C723.119 327.506 730.047 308.545 743.821 293.676L742.619 292.562L741.417 291.449C727.006 307.007 719.842 326.801 719.842 350.695H721.48ZM742.619 292.562L743.812 293.685C748.842 288.341 754.166 284.04 759.78 280.766L758.954 279.35L758.128 277.935C752.212 281.386 746.646 285.893 741.426 291.439L742.619 292.562ZM758.954 279.35L759.791 280.759C765.579 277.318 771.417 274.987 777.308 273.747L776.97 272.144L776.633 270.54C770.353 271.862 764.18 274.337 758.117 277.942L758.954 279.35ZM776.97 272.144L777.3 273.749C783.521 272.473 788.414 271.686 792.006 271.374L791.864 269.742L791.722 268.109C787.946 268.437 782.911 269.252 776.641 270.539L776.97 272.144ZM791.864 269.742L792 271.374C795.785 271.059 800.301 270.9 805.556 270.9V269.261V267.623C800.241 267.623 795.629 267.784 791.728 268.109L791.864 269.742ZM805.556 269.261V270.9H821.41V269.261V267.623H805.556V269.261ZM821.41 269.261H823.049V244.279H821.41H819.772V269.261H821.41ZM821.41 244.279H823.049C823.049 240.555 821.449 237.195 818.485 234.232L817.327 235.391L816.168 236.549C818.65 239.031 819.772 241.596 819.772 244.279H821.41ZM817.327 235.391L818.518 234.265C815.456 231.024 811.487 229.428 806.757 229.428V231.067V232.705C810.676 232.705 813.752 233.992 816.136 236.516L817.327 235.391ZM806.757 231.067V229.428C791.931 229.428 771.12 230.958 744.356 234.003L744.541 235.631L744.726 237.259C771.45 234.218 792.117 232.705 806.757 232.705V231.067ZM744.541 235.631H746.18V177.738H744.541H742.902V235.631H744.541ZM744.541 177.738L744.728 179.366C771.11 176.328 794.106 174.813 813.723 174.813V173.174V171.536C793.946 171.536 770.82 173.063 744.354 176.111L744.541 177.738Z" fill="#E8ECFF" mask="url(#path-31-outside-5_283_198)"/>
<mask id="path-33-outside-6_283_198" maskUnits="userSpaceOnUse" x="850.629" y="171" width="165" height="258" fill="black">
<rect fill="white" x="850.629" y="171" width="165" height="258"/>
<path d="M952.368 321.869H936.033C928.186 321.869 922.501 324.191 918.978 328.835C915.615 333.319 913.933 340.445 913.933 350.214C913.933 355.659 915.214 360.223 917.777 363.907C920.339 367.43 924.022 369.191 928.827 369.191C934.272 369.191 938.676 367.83 942.039 365.108C945.562 362.385 947.964 358.542 949.245 353.577C950.686 348.453 951.567 344.129 951.887 340.606C952.208 337.082 952.368 332.678 952.368 327.394V321.869ZM944.681 173.174C958.453 173.174 970.544 175.336 980.954 179.66C991.363 183.824 999.931 191.831 1006.66 203.682C1011.46 212.17 1013.86 225.301 1013.86 243.077V423H952.368V410.268H949.966C940.998 421.318 929.627 426.843 915.855 426.843C898.88 426.843 884.066 419.557 871.415 404.984C858.763 390.411 852.438 372.314 852.438 350.695C852.438 327.153 859.484 307.776 873.577 292.562C878.701 287.117 884.146 282.713 889.911 279.35C895.837 275.827 901.842 273.425 907.928 272.144C914.173 270.863 919.138 270.062 922.821 269.742C926.665 269.421 931.229 269.261 936.514 269.261H952.368V244.279C952.368 241.076 951.007 238.113 948.284 235.391C945.562 232.508 942.039 231.067 937.715 231.067C922.981 231.067 902.243 232.588 875.498 235.631V177.738C901.922 174.696 924.983 173.174 944.681 173.174Z"/>
</mask>
<path d="M952.368 321.869H936.033C928.186 321.869 922.501 324.191 918.978 328.835C915.615 333.319 913.933 340.445 913.933 350.214C913.933 355.659 915.214 360.223 917.777 363.907C920.339 367.43 924.022 369.191 928.827 369.191C934.272 369.191 938.676 367.83 942.039 365.108C945.562 362.385 947.964 358.542 949.245 353.577C950.686 348.453 951.567 344.129 951.887 340.606C952.208 337.082 952.368 332.678 952.368 327.394V321.869ZM944.681 173.174C958.453 173.174 970.544 175.336 980.954 179.66C991.363 183.824 999.931 191.831 1006.66 203.682C1011.46 212.17 1013.86 225.301 1013.86 243.077V423H952.368V410.268H949.966C940.998 421.318 929.627 426.843 915.855 426.843C898.88 426.843 884.066 419.557 871.415 404.984C858.763 390.411 852.438 372.314 852.438 350.695C852.438 327.153 859.484 307.776 873.577 292.562C878.701 287.117 884.146 282.713 889.911 279.35C895.837 275.827 901.842 273.425 907.928 272.144C914.173 270.863 919.138 270.062 922.821 269.742C926.665 269.421 931.229 269.261 936.514 269.261H952.368V244.279C952.368 241.076 951.007 238.113 948.284 235.391C945.562 232.508 942.039 231.067 937.715 231.067C922.981 231.067 902.243 232.588 875.498 235.631V177.738C901.922 174.696 924.983 173.174 944.681 173.174Z" fill="#202020"/>
<path d="M952.368 321.869H954.006V320.23H952.368V321.869ZM918.978 328.835L917.672 327.845L917.667 327.852L918.978 328.835ZM917.777 363.907L916.432 364.842L916.441 364.856L916.452 364.87L917.777 363.907ZM942.039 365.108L941.037 363.811L941.022 363.822L941.008 363.834L942.039 365.108ZM949.245 353.577L947.668 353.134L947.663 353.151L947.659 353.168L949.245 353.577ZM980.954 179.66L980.325 181.173L980.335 181.178L980.345 181.182L980.954 179.66ZM1006.66 203.682L1008.08 202.875L1008.08 202.873L1006.66 203.682ZM1013.86 423V424.639H1015.5V423H1013.86ZM952.368 423H950.729V424.639H952.368V423ZM952.368 410.268H954.006V408.63H952.368V410.268ZM949.966 410.268V408.63H949.185L948.693 409.236L949.966 410.268ZM871.415 404.984L870.177 406.058L870.177 406.058L871.415 404.984ZM873.577 292.562L872.384 291.439L872.375 291.449L873.577 292.562ZM889.911 279.35L890.737 280.766L890.749 280.759L889.911 279.35ZM907.928 272.144L907.598 270.539L907.59 270.54L907.928 272.144ZM922.821 269.742L922.685 268.109L922.679 268.109L922.821 269.742ZM952.368 269.261V270.9H954.006V269.261H952.368ZM948.284 235.391L947.093 236.516L947.109 236.533L947.126 236.549L948.284 235.391ZM875.498 235.631H873.86V237.466L875.684 237.259L875.498 235.631ZM875.498 177.738L875.311 176.111L873.86 176.278V177.738H875.498ZM952.368 321.869V320.23H936.033V321.869V323.507H952.368V321.869ZM936.033 321.869V320.23C927.865 320.23 921.605 322.661 917.672 327.845L918.978 328.835L920.283 329.825C923.397 325.721 928.507 323.507 936.033 323.507V321.869ZM918.978 328.835L917.667 327.852C913.984 332.763 912.295 340.326 912.295 350.214H913.933H915.572C915.572 340.565 917.246 333.875 920.289 329.818L918.978 328.835ZM913.933 350.214H912.295C912.295 355.921 913.641 360.83 916.432 364.842L917.777 363.907L919.122 362.971C916.788 359.616 915.572 355.397 915.572 350.214H913.933ZM917.777 363.907L916.452 364.87C919.357 368.866 923.561 370.83 928.827 370.83V369.191V367.553C924.484 367.553 921.321 365.994 919.102 362.943L917.777 363.907ZM928.827 369.191V370.83C934.548 370.83 939.346 369.395 943.07 366.381L942.039 365.108L941.008 363.834C938.005 366.265 933.995 367.553 928.827 367.553V369.191ZM942.039 365.108L943.04 366.404C946.894 363.426 949.474 359.248 950.832 353.987L949.245 353.577L947.659 353.168C946.454 357.836 944.229 361.344 941.037 363.811L942.039 365.108ZM949.245 353.577L950.822 354.021C952.279 348.843 953.187 344.413 953.519 340.754L951.887 340.606L950.256 340.457C949.948 343.844 949.094 348.062 947.668 353.134L949.245 353.577ZM951.887 340.606L953.519 340.754C953.846 337.164 954.006 332.706 954.006 327.394H952.368H950.729C950.729 332.65 950.57 337.001 950.256 340.457L951.887 340.606ZM952.368 327.394H954.006V321.869H952.368H950.729V327.394H952.368ZM944.681 173.174V174.813C958.284 174.813 970.154 176.948 980.325 181.173L980.954 179.66L981.582 178.147C970.935 173.724 958.623 171.536 944.681 171.536V173.174ZM980.954 179.66L980.345 181.182C990.34 185.179 998.649 192.891 1005.23 204.491L1006.66 203.682L1008.08 202.873C1001.21 190.771 992.386 182.469 981.562 178.139L980.954 179.66ZM1006.66 203.682L1005.23 204.489C1009.82 212.602 1012.22 225.386 1012.22 243.077H1013.86H1015.5C1015.5 225.217 1013.1 211.737 1008.08 202.875L1006.66 203.682ZM1013.86 243.077H1012.22V423H1013.86H1015.5V243.077H1013.86ZM1013.86 423V421.361H952.368V423V424.639H1013.86V423ZM952.368 423H954.006V410.268H952.368H950.729V423H952.368ZM952.368 410.268V408.63H949.966V410.268V411.907H952.368V410.268ZM949.966 410.268L948.693 409.236C940.025 419.917 929.115 425.205 915.855 425.205V426.843V428.482C930.14 428.482 941.971 422.72 951.238 411.301L949.966 410.268ZM915.855 426.843V425.205C899.422 425.205 885.04 418.179 872.652 403.91L871.415 404.984L870.177 406.058C883.093 420.935 898.337 428.482 915.855 428.482V426.843ZM871.415 404.984L872.652 403.91C860.291 389.671 854.076 371.97 854.076 350.695H852.438H850.799C850.799 372.658 857.236 391.15 870.177 406.058L871.415 404.984ZM852.438 350.695H854.076C854.076 327.506 861.005 308.545 874.779 293.676L873.577 292.562L872.375 291.449C857.963 307.007 850.799 326.801 850.799 350.695H852.438ZM873.577 292.562L874.77 293.685C879.799 288.341 885.123 284.04 890.737 280.766L889.911 279.35L889.086 277.935C883.17 281.386 877.603 285.893 872.384 291.439L873.577 292.562ZM889.911 279.35L890.749 280.759C896.536 277.318 902.374 274.987 908.265 273.747L907.928 272.144L907.59 270.54C901.31 271.862 895.138 274.337 889.074 277.942L889.911 279.35ZM907.928 272.144L908.257 273.749C914.478 272.473 919.372 271.686 922.963 271.374L922.821 269.742L922.679 268.109C918.904 268.437 913.869 269.252 907.599 270.539L907.928 272.144ZM922.821 269.742L922.957 271.374C926.742 271.059 931.259 270.9 936.514 270.9V269.261V267.623C931.199 267.623 926.587 267.784 922.685 268.109L922.821 269.742ZM936.514 269.261V270.9H952.368V269.261V267.623H936.514V269.261ZM952.368 269.261H954.006V244.279H952.368H950.729V269.261H952.368ZM952.368 244.279H954.006C954.006 240.555 952.406 237.195 949.443 234.232L948.284 235.391L947.126 236.549C949.607 239.031 950.729 241.596 950.729 244.279H952.368ZM948.284 235.391L949.475 234.265C946.414 231.024 942.444 229.428 937.715 229.428V231.067V232.705C941.633 232.705 944.71 233.992 947.093 236.516L948.284 235.391ZM937.715 231.067V229.428C922.888 229.428 902.078 230.958 875.313 234.003L875.498 235.631L875.684 237.259C902.408 234.218 923.074 232.705 937.715 232.705V231.067ZM875.498 235.631H877.137V177.738H875.498H873.86V235.631H875.498ZM875.498 177.738L875.686 179.366C902.068 176.328 925.063 174.813 944.681 174.813V173.174V171.536C924.903 171.536 901.777 173.063 875.311 176.111L875.498 177.738Z" fill="#E8ECFF" mask="url(#path-33-outside-6_283_198)"/>
<rect x="555.91" y="299.416" width="69.5082" height="53.7861" fill="#1939FA" stroke="#A3A3A3" stroke-width="1.65496"/>
<rect x="555.91" y="353.202" width="69.5082" height="52.9586" fill="#1939FA" stroke="#A3A3A3" stroke-width="1.65496"/>
<rect x="555.91" y="406.161" width="69.5082" height="53.7861" fill="#1939FA" stroke="#A3A3A3" stroke-width="1.65496"/>
<path d="M625.419 459.947V512.906H579.083C566.285 512.906 555.91 502.531 555.91 489.733V459.947H625.419Z" fill="#1939FA" stroke="#A3A3A3" stroke-width="1.65496"/>
<rect x="625.418" y="299.416" width="67.8532" height="53.7861" fill="#1939FA" stroke="#A3A3A3" stroke-width="1.65496"/>
<rect x="625.418" y="353.202" width="67.8532" height="52.9586" fill="#202020"/>
<rect x="625.418" y="353.202" width="67.8532" height="52.9586" stroke="#202020" stroke-width="1.65496"/>
<rect x="625.418" y="353.202" width="67.8532" height="52.9586" stroke="#A3A3A3" stroke-width="1.65496"/>
<rect x="625.418" y="406.161" width="67.8532" height="53.7861" fill="#1939FA" stroke="#A3A3A3" stroke-width="1.65496"/>
<rect x="625.418" y="459.947" width="67.8532" height="52.9586" fill="#1939FA" stroke="#A3A3A3" stroke-width="1.65496"/>
<rect x="693.272" y="299.416" width="69.5082" height="53.7861" fill="#202020"/>
<rect x="693.272" y="299.416" width="69.5082" height="53.7861" stroke="#202020" stroke-width="1.65496"/>
<rect x="693.272" y="299.416" width="69.5082" height="53.7861" stroke="#A3A3A3" stroke-width="1.65496"/>
<rect x="693.272" y="353.202" width="69.5082" height="52.9586" fill="#1939FA" stroke="#A3A3A3" stroke-width="1.65496"/>
<rect x="693.272" y="406.161" width="69.5082" height="53.7861" fill="#202020"/>
<rect x="693.272" y="406.161" width="69.5082" height="53.7861" stroke="#202020" stroke-width="1.65496"/>
<rect x="693.272" y="406.161" width="69.5082" height="53.7861" stroke="#A3A3A3" stroke-width="1.65496"/>
<rect x="693.272" y="459.947" width="69.5082" height="52.9586" fill="#1939FA" stroke="#A3A3A3" stroke-width="1.65496"/>
<rect x="762.78" y="299.416" width="70.3357" height="53.7861" fill="#1939FA" stroke="#A3A3A3" stroke-width="1.65496"/>
<rect x="762.78" y="353.202" width="70.3357" height="52.9586" fill="#202020"/>
<rect x="762.78" y="353.202" width="70.3357" height="52.9586" stroke="#202020" stroke-width="1.65496"/>
<rect x="762.78" y="353.202" width="70.3357" height="52.9586" stroke="#A3A3A3" stroke-width="1.65496"/>
<rect x="762.78" y="406.161" width="70.3357" height="53.7861" fill="#202020"/>
<rect x="762.78" y="406.161" width="70.3357" height="53.7861" stroke="#202020" stroke-width="1.65496"/>
<rect x="762.78" y="406.161" width="70.3357" height="53.7861" stroke="#A3A3A3" stroke-width="1.65496"/>
<rect x="762.78" y="459.947" width="70.3357" height="52.9586" fill="#1939FA" stroke="#A3A3A3" stroke-width="1.65496"/>
<rect x="833.115" y="246.457" width="69.5082" height="52.9586" fill="#1939FA" stroke="#A3A3A3" stroke-width="1.65496"/>
<rect x="833.115" y="299.416" width="69.5082" height="53.7861" fill="#202020"/>
<rect x="833.115" y="299.416" width="69.5082" height="53.7861" stroke="#202020" stroke-width="1.65496"/>
<rect x="833.115" y="299.416" width="69.5082" height="53.7861" stroke="#A3A3A3" stroke-width="1.65496"/>
<rect x="833.115" y="353.202" width="69.5082" height="52.9586" fill="#1939FA" stroke="#A3A3A3" stroke-width="1.65496"/>
<rect x="833.115" y="406.161" width="69.5082" height="53.7861" fill="#202020"/>
<rect x="833.115" y="406.161" width="69.5082" height="53.7861" stroke="#202020" stroke-width="1.65496"/>
<rect x="833.115" y="406.161" width="69.5082" height="53.7861" stroke="#A3A3A3" stroke-width="1.65496"/>
<rect x="833.116" y="459.947" width="69.5082" height="52.9586" fill="#1939FA" stroke="#A3A3A3" stroke-width="1.65496"/>
<rect x="900.969" y="459.947" width="69.5082" height="52.9586" fill="#1939FA" stroke="#A3A3A3" stroke-width="1.65496"/>
<path d="M1039.98 459.827V489.733C1039.98 502.531 1029.61 512.906 1016.81 512.906H970.407V459.827H1039.98Z" fill="#1939FA" stroke="#A3A3A3" stroke-width="1.65496"/>
<path d="M970.477 246.457V299.416H902.623V246.457H970.477Z" fill="#1939FA" stroke="#A3A3A3" stroke-width="1.65496"/>
<path d="M970.477 299.416V353.202H902.623V299.416H970.477Z" fill="#202020"/>
<path d="M970.477 299.416V353.202H902.623V299.416H970.477Z" stroke="#202020" stroke-width="1.65496"/>
<path d="M970.477 299.416V353.202H902.623V299.416H970.477Z" stroke="#A3A3A3" stroke-width="1.65496"/>
<path d="M970.477 353.202V406.161H902.623V353.202H970.477Z" fill="#202020"/>
<path d="M970.477 353.202V406.161H902.623V353.202H970.477Z" stroke="#202020" stroke-width="1.65496"/>
<path d="M970.477 353.202V406.161H902.623V353.202H970.477Z" stroke="#A3A3A3" stroke-width="1.65496"/>
<path d="M970.477 406.161V459.947H902.623V406.161H970.477Z" fill="#1939FA" stroke="#A3A3A3" stroke-width="1.65496"/>
<path d="M1039.99 246.457V299.416H970.477V246.457H1039.99Z" fill="#1939FA" stroke="#A3A3A3" stroke-width="1.65496"/>
<path d="M1039.99 299.416V353.202H970.477V299.416H1039.99Z" fill="#1939FA" stroke="#A3A3A3" stroke-width="1.65496"/>
<path d="M1153.07 487.802H1171C1175.14 487.802 1178.5 491.16 1178.5 495.302V505.733C1178.5 509.875 1175.14 513.233 1171 513.233H1153.07C1148.93 513.233 1145.58 509.875 1145.57 505.733V495.302C1145.57 491.289 1148.73 488.012 1152.69 487.812L1153.07 487.802Z" fill="#E8ECFF" stroke="#E8ECFF"/>
<path d="M1110.87 487.802H1128.8C1132.94 487.802 1136.3 491.16 1136.3 495.302V505.733C1136.3 509.875 1132.94 513.233 1128.8 513.233H1110.87C1106.73 513.233 1103.37 509.875 1103.37 505.733V495.302C1103.37 491.289 1106.52 488.012 1110.49 487.812L1110.87 487.802Z" fill="#E8ECFF" stroke="#E8ECFF"/>
<path d="M1068.67 139.385H1171C1175.14 139.385 1178.5 142.743 1178.5 146.885V157.365C1178.5 161.507 1175.14 164.865 1171 164.865H1068.67C1064.53 164.865 1061.17 161.507 1061.17 157.365V146.885C1061.17 142.872 1064.32 139.596 1068.29 139.395L1068.67 139.385Z" fill="#E8ECFF" stroke="#E8ECFF"/>
<path d="M1068.67 172.484H1171C1175.14 172.484 1178.5 175.842 1178.5 179.984V190.464C1178.5 194.606 1175.14 197.964 1171 197.964H1068.67C1064.53 197.964 1061.17 194.606 1061.17 190.464V179.984C1061.17 175.972 1064.32 172.695 1068.29 172.494L1068.67 172.484Z" fill="#E8ECFF" stroke="#E8ECFF"/>
<path d="M1068.67 205.584H1171C1175.14 205.584 1178.5 208.942 1178.5 213.084V223.563C1178.5 227.706 1175.14 231.063 1171 231.063H1068.67C1064.53 231.063 1061.17 227.706 1061.17 223.563V213.084C1061.17 209.071 1064.32 205.795 1068.29 205.594L1068.67 205.584Z" fill="#E8ECFF" stroke="#E8ECFF"/>
<path d="M1068.67 238.683H1171C1175.14 238.683 1178.5 242.041 1178.5 246.183V256.663C1178.5 260.805 1175.14 264.163 1171 264.163H1068.67C1064.53 264.163 1061.17 260.805 1061.17 256.663V246.183C1061.17 242.17 1064.32 238.894 1068.29 238.693L1068.67 238.683Z" fill="#E8ECFF" stroke="#E8ECFF"/>
<path d="M1068.67 271.782H1171C1175.14 271.782 1178.5 275.14 1178.5 279.282V289.762C1178.5 293.904 1175.14 297.262 1171 297.262H1068.67C1064.53 297.262 1061.17 293.904 1061.17 289.762V279.282C1061.17 275.269 1064.32 271.993 1068.29 271.792L1068.67 271.782Z" fill="#E8ECFF" stroke="#E8ECFF"/>
<path d="M1068.67 487.802H1086.6C1090.74 487.802 1094.1 491.16 1094.1 495.302V505.733C1094.1 509.875 1090.74 513.233 1086.6 513.233H1068.67C1064.53 513.233 1061.17 509.875 1061.17 505.733V495.302C1061.17 491.289 1064.32 488.012 1068.29 487.812L1068.67 487.802Z" fill="#E8ECFF" stroke="#E8ECFF"/>
<path d="M563.083 93.874H581.009C585.152 93.8741 588.509 97.2319 588.509 101.374V111.806C588.509 115.948 585.151 119.306 581.009 119.306H563.083C558.941 119.306 555.583 115.948 555.583 111.806V101.374C555.583 97.3613 558.734 94.0846 562.697 93.8838L563.083 93.874Z" fill="#E8ECFF" stroke="#E8ECFF"/>
<path d="M1039.99 353.202V406.161H970.477V353.202H1039.99Z" fill="#1939FA" stroke="#A3A3A3" stroke-width="1.65496"/>
<path d="M1039.99 406.161V459.947H970.477V406.161H1039.99Z" fill="#1939FA" stroke="#A3A3A3" stroke-width="1.65496"/>
<path d="M1240.07 31.019V46.0991H1224.96V31.019H1240.07Z" stroke="#E8ECFF" stroke-width="2"/>
<path d="M1234.63 36.4536V51.5337H1219.52V36.4536H1234.63Z" fill="#1939FA" stroke="#E8ECFF" stroke-width="2"/>
<line y1="-1" x2="31.8971" y2="-1" transform="matrix(0.707738 0.706475 -0.707738 0.706475 1257.06 30)" stroke="#E8ECFF" stroke-width="2"/>
<line y1="-1" x2="31.8971" y2="-1" transform="matrix(-0.707738 0.706475 0.707738 0.706475 1280.18 30)" stroke="#E8ECFF" stroke-width="2"/>
<line x1="1179.81" y1="40.2671" x2="1202.93" y2="40.2671" stroke="#E8ECFF" stroke-width="2"/>
<path d="M1139.5 94.8843V111.188H1123.17V94.8843H1139.5Z" fill="#E8ECFF" stroke="#E8ECFF" stroke-width="0.776389"/>
<path d="M1134.06 100.319V116.623H1117.73V100.319H1134.06Z" fill="#E8ECFF" stroke="#E8ECFF" stroke-width="0.776389"/>
<line y1="-0.388194" x2="31.8971" y2="-0.388194" transform="matrix(0.707738 0.706475 -0.707738 0.706475 1155.88 94.4761)" stroke="#E8ECFF" stroke-width="0.776389"/>
<line y1="-0.388194" x2="31.8971" y2="-0.388194" transform="matrix(-0.707738 0.706475 0.707738 0.706475 1179 94.4761)" stroke="#E8ECFF" stroke-width="0.776389"/>
<line x1="1078.63" y1="105.355" x2="1101.75" y2="105.355" stroke="#E8ECFF" stroke-width="0.776389"/>
<path d="M1152.99 488.753H1170.92C1174.88 488.753 1178.09 491.965 1178.09 495.928V506.359C1178.09 510.322 1174.88 513.534 1170.92 513.534H1152.99C1149.03 513.534 1145.82 510.322 1145.82 506.359V495.928C1145.82 491.965 1149.03 488.753 1152.99 488.753Z" fill="#E8ECFF" stroke="#A3A3A3" stroke-width="1.65"/>
<path d="M1110.79 488.753H1128.72C1132.68 488.753 1135.89 491.965 1135.89 495.928V506.359C1135.89 510.322 1132.68 513.534 1128.72 513.534H1110.79C1106.83 513.534 1103.62 510.322 1103.62 506.359V495.928C1103.62 491.965 1106.83 488.753 1110.79 488.753Z" fill="#E8ECFF" stroke="#A3A3A3" stroke-width="1.65"/>
<path d="M1068.59 140.336H1170.92C1174.88 140.336 1178.09 143.549 1178.09 147.511V157.991C1178.09 161.953 1174.88 165.166 1170.92 165.166H1068.59C1064.63 165.166 1061.41 161.953 1061.41 157.991V147.511C1061.41 143.549 1064.63 140.336 1068.59 140.336Z" fill="#E8ECFF" stroke="#A3A3A3" stroke-width="1.65"/>
<path d="M1068.59 173.436H1170.92C1174.88 173.436 1178.09 176.648 1178.09 180.61V191.09C1178.09 195.052 1174.88 198.265 1170.92 198.265H1068.59C1064.63 198.265 1061.41 195.052 1061.41 191.09V180.61C1061.41 176.648 1064.63 173.436 1068.59 173.436Z" fill="#E8ECFF" stroke="#A3A3A3" stroke-width="1.65"/>
<path d="M1068.59 206.535H1170.92C1174.88 206.535 1178.09 209.747 1178.09 213.71V224.189C1178.09 228.152 1174.88 231.364 1170.92 231.364H1068.59C1064.63 231.364 1061.41 228.152 1061.41 224.189V213.71C1061.41 209.747 1064.63 206.535 1068.59 206.535Z" fill="#E8ECFF" stroke="#A3A3A3" stroke-width="1.65"/>
<path d="M1068.59 239.634H1170.92C1174.88 239.634 1178.09 242.846 1178.09 246.809V257.289C1178.09 261.251 1174.88 264.463 1170.92 264.463H1068.59C1064.63 264.463 1061.41 261.251 1061.41 257.289V246.809C1061.41 242.846 1064.63 239.634 1068.59 239.634Z" fill="#E8ECFF" stroke="#A3A3A3" stroke-width="1.65"/>
<path d="M1068.59 272.733H1170.92C1174.88 272.733 1178.09 275.946 1178.09 279.908V290.388C1178.09 294.35 1174.88 297.562 1170.92 297.562H1068.59C1064.63 297.562 1061.41 294.35 1061.41 290.388V279.908C1061.41 275.946 1064.63 272.733 1068.59 272.733Z" fill="#E8ECFF" stroke="#A3A3A3" stroke-width="1.65"/>
<path d="M1068.59 488.753H1086.52C1090.48 488.753 1093.69 491.965 1093.69 495.928V506.359C1093.69 510.322 1090.48 513.534 1086.52 513.534H1068.59C1064.63 513.534 1061.42 510.322 1061.41 506.359V495.928C1061.41 491.965 1064.63 488.753 1068.59 488.753Z" fill="#E8ECFF" stroke="#A3A3A3" stroke-width="1.65"/>
<path d="M563 94.8252H580.927C584.889 94.8253 588.102 98.0374 588.102 102V112.432C588.101 116.394 584.889 119.606 580.927 119.606H563C559.038 119.606 555.825 116.394 555.825 112.432V102C555.825 98.0374 559.037 94.8252 563 94.8252Z" fill="#E8ECFF" stroke="#A3A3A3" stroke-width="1.65"/>
<path d="M1138.99 95.9468V111.377H1123.52V95.9468H1138.99Z" fill="#E8ECFF" stroke="#A3A3A3" stroke-width="1.65"/>
<path d="M1133.54 101.381V116.812H1118.08V101.381H1133.54Z" fill="#E8ECFF" stroke="#A3A3A3" stroke-width="1.65"/>
<line y1="-0.825" x2="31.8971" y2="-0.825" transform="matrix(0.707738 0.706475 -0.707738 0.706475 1155.79 95.1021)" stroke="#A3A3A3" stroke-width="1.65"/>
<line y1="-0.825" x2="31.8971" y2="-0.825" transform="matrix(-0.707738 0.706475 0.707738 0.706475 1178.92 95.1021)" stroke="#A3A3A3" stroke-width="1.65"/>
<line x1="1078.54" y1="105.545" x2="1101.67" y2="105.545" stroke="#A3A3A3" stroke-width="1.65"/>
</g>
<defs>
<clipPath id="clip0_283_198">
<rect width="1320" height="680" fill="white"/>
</clipPath>
</defs>
</svg>
