<svg width="1320" height="618" viewBox="0 0 1320 618" fill="none" xmlns="http://www.w3.org/2000/svg">
<g clip-path="url(#clip0_281_171)">
<g filter="url(#filter0_d_281_171)">
<path d="M97.2127 613H67.2278V448.083H97.2127L119.116 499.385H120.404L142.19 448.083H172.175V613H142.19V508.053H141.019L126.143 538.038H113.259L98.384 507.584H97.2127V613Z" fill="#1939FA"/>
</g>
<g filter="url(#filter1_d_281_171)">
<path d="M246.526 491.186C252.304 491.186 256.716 494.232 259.761 500.322C265.384 494.232 272.138 491.186 280.025 491.186C288.614 491.186 295.408 494.544 300.405 501.259C302.279 503.836 303.685 506.686 304.622 509.81C305.559 512.933 306.105 515.627 306.261 517.892C306.418 520.078 306.496 523.28 306.496 527.496V613H276.511V527.496C276.511 524.217 275.925 522.069 274.754 521.054C273.426 519.883 271.513 519.297 269.015 519.297C266.516 519.297 264.603 519.883 263.275 521.054C262.104 522.069 261.518 524.217 261.518 527.496V613H246.526V527.496C246.526 524.217 245.94 522.069 244.769 521.054C243.442 519.883 241.528 519.297 239.03 519.297C236.531 519.297 234.618 519.883 233.29 521.054C232.119 522.069 231.533 524.217 231.533 527.496V613H201.549V493.06H231.533V497.16H232.236C236.219 493.178 240.982 491.186 246.526 491.186Z" fill="#E8ECFF"/>
</g>
<rect x="352" y="57" width="645" height="258" rx="15.7347" stroke="#C0C6D2" stroke-width="2"/>
<rect x="1169.44" y="322.498" width="53" height="53" rx="10" fill="#1939FA"/>
<rect x="68" y="114.747" width="53" height="53" rx="10" fill="#1939FA"/>
<rect x="1229.36" y="322.498" width="53" height="53" rx="10" fill="#1939FA"/>
<rect x="68" y="57.249" width="53" height="53" rx="10" fill="#1939FA"/>
<path d="M720.916 424.197C721.052 423.886 721.121 423.546 721.121 423.178C721.121 422.81 721.052 422.473 720.916 422.166C720.779 421.855 720.595 421.6 720.364 421.402C720.222 421.279 720.069 421.18 719.904 421.105C719.743 421.029 719.569 420.978 719.38 420.949C719.191 420.921 719.038 420.904 718.92 420.9C718.802 420.89 718.642 420.886 718.439 420.886H717.384V425.471H718.439C718.703 425.471 718.918 425.466 719.083 425.457C719.248 425.443 719.455 425.396 719.705 425.315C719.96 425.23 720.18 425.11 720.364 424.954C720.595 424.756 720.779 424.504 720.916 424.197ZM718.439 420.036C718.67 420.036 718.859 420.041 719.005 420.05C719.156 420.06 719.356 420.086 719.606 420.128C719.861 420.166 720.102 420.242 720.328 420.355C720.559 420.463 720.774 420.605 720.972 420.779C721.675 421.402 722.027 422.202 722.027 423.178C722.027 424.155 721.675 424.954 720.972 425.577C720.807 425.723 720.623 425.848 720.42 425.952L722.203 430H721.241L719.564 426.242C719.281 426.294 718.906 426.32 718.439 426.32H717.384V430H716.479V420.036H718.439ZM728.595 423.716C728.359 423.565 728.072 423.49 727.732 423.49C727.392 423.49 727.102 423.565 726.862 423.716C726.626 423.867 726.456 424.077 726.352 424.346C726.253 424.572 726.189 424.966 726.161 425.528H729.303C729.275 424.966 729.211 424.572 729.112 424.346C729.008 424.077 728.836 423.867 728.595 423.716ZM726.317 423.037C726.708 422.773 727.18 422.64 727.732 422.64C728.284 422.64 728.753 422.773 729.14 423.037C729.532 423.301 729.805 423.643 729.961 424.063C730.041 424.266 730.1 424.504 730.138 424.778C730.18 425.051 730.204 425.294 730.209 425.506C730.218 425.714 730.223 426.004 730.223 426.377H726.147C726.147 426.698 726.149 426.945 726.154 427.12C726.159 427.29 726.178 427.495 726.211 427.736C726.248 427.976 726.303 428.177 726.373 428.337C726.647 428.955 727.147 429.264 727.874 429.264C728.421 429.264 729.128 429.215 729.996 429.115V429.965C729.138 430.064 728.43 430.113 727.874 430.113C727.289 430.113 726.796 429.976 726.395 429.703C725.994 429.429 725.703 429.073 725.524 428.634C725.401 428.337 725.324 428.019 725.291 427.679C725.258 427.339 725.241 426.905 725.241 426.377C725.241 426.004 725.243 425.714 725.248 425.506C725.258 425.294 725.281 425.051 725.319 424.778C725.361 424.504 725.423 424.266 725.503 424.063C725.659 423.643 725.93 423.301 726.317 423.037ZM735.737 423.815C735.336 424.188 735.136 424.891 735.136 425.924C735.136 426.957 735.336 427.66 735.737 428.033C735.968 428.25 736.259 428.358 736.608 428.358C736.957 428.358 737.247 428.25 737.478 428.033C737.879 427.66 738.08 426.957 738.08 425.924C738.08 424.891 737.879 424.188 737.478 423.815C737.247 423.598 736.957 423.49 736.608 423.49C736.259 423.49 735.968 423.598 735.737 423.815ZM738.08 428.21H738.009C737.58 428.875 737.065 429.207 736.466 429.207C735.909 429.207 735.435 429.016 735.044 428.634C734.501 428.096 734.23 427.193 734.23 425.924C734.23 424.655 734.501 423.751 735.044 423.214C735.435 422.832 735.909 422.64 736.466 422.64C737.065 422.64 737.58 422.973 738.009 423.638H738.08V422.754H738.985V428.868C738.985 429.674 738.842 430.318 738.554 430.8C738.106 431.55 737.4 431.925 736.438 431.925C735.891 431.925 735.334 431.889 734.768 431.819V430.969C735.405 431.04 735.961 431.076 736.438 431.076C737.037 431.076 737.48 430.844 737.768 430.382C737.976 430.047 738.08 429.542 738.08 428.868V428.21ZM745.568 430.113C745.229 430.113 744.917 430.045 744.634 429.908C744.351 429.771 744.118 429.587 743.934 429.356C743.816 429.21 743.721 429.059 743.651 428.903C743.58 428.747 743.53 428.575 743.502 428.387C743.478 428.198 743.462 428.042 743.452 427.92C743.448 427.797 743.445 427.625 743.445 427.403V422.754H744.351V427.403C744.351 427.662 744.354 427.856 744.358 427.983C744.368 428.111 744.396 428.254 744.443 428.415C744.495 428.571 744.571 428.707 744.67 428.825C744.924 429.118 745.271 429.264 745.71 429.264C746.149 429.264 746.495 429.118 746.75 428.825C746.849 428.707 746.922 428.571 746.969 428.415C747.021 428.254 747.05 428.111 747.054 427.983C747.064 427.856 747.069 427.662 747.069 427.403V422.754H747.974V430H747.069V429.207H746.998C746.823 429.481 746.606 429.7 746.347 429.866C746.092 430.031 745.833 430.113 745.568 430.113ZM756.963 430.078C756.515 430.101 756.19 430.113 755.987 430.113C755.482 430.113 755.074 429.953 754.763 429.632C754.602 429.467 754.482 429.276 754.402 429.059C754.321 428.837 754.274 428.663 754.26 428.535C754.251 428.403 754.246 428.233 754.246 428.026V420.036H755.152V428.026C755.152 428.172 755.154 428.285 755.159 428.365C755.164 428.446 755.18 428.542 755.208 428.655C755.241 428.769 755.289 428.868 755.35 428.953C755.506 429.16 755.741 429.264 756.057 429.264C756.378 429.264 756.68 429.252 756.963 429.229V430.078ZM765.046 426.377H763.659C763.485 426.377 763.348 426.382 763.249 426.391C763.155 426.4 763.034 426.436 762.888 426.497C762.742 426.554 762.612 426.641 762.499 426.759C762.235 427.037 762.103 427.403 762.103 427.856C762.103 428.257 762.216 428.592 762.442 428.861C762.673 429.13 762.985 429.264 763.376 429.264C763.603 429.264 763.803 429.231 763.978 429.165C764.157 429.099 764.303 429.016 764.417 428.917C764.535 428.818 764.634 428.688 764.714 428.528C764.799 428.368 764.86 428.219 764.898 428.082C764.94 427.941 764.973 427.773 764.997 427.58C765.02 427.386 765.035 427.228 765.039 427.106C765.044 426.983 765.046 426.837 765.046 426.667V426.377ZM763.914 422.64C764.32 422.64 764.676 422.704 764.983 422.832C765.289 422.954 765.542 423.19 765.74 423.539C765.881 423.789 765.952 424.176 765.952 424.7V430H765.046V429.13H764.976C764.499 429.785 763.909 430.113 763.207 430.113C762.64 430.113 762.164 429.901 761.777 429.476C761.39 429.052 761.197 428.516 761.197 427.87C761.197 427.191 761.404 426.643 761.82 426.228C761.971 426.082 762.131 425.962 762.301 425.867C762.471 425.773 762.648 425.709 762.832 425.676C763.02 425.639 763.166 425.617 763.27 425.613C763.379 425.603 763.513 425.598 763.674 425.598H765.046V424.735C765.046 424.325 765.004 424.046 764.919 423.9C764.839 423.763 764.723 423.662 764.572 423.596C764.426 423.525 764.207 423.49 763.914 423.49C763.348 423.49 762.669 423.539 761.876 423.638V422.775C762.655 422.685 763.334 422.64 763.914 422.64ZM773.667 423.49C773.026 423.49 772.519 423.662 772.146 424.006C771.953 424.186 771.795 424.384 771.672 424.601C771.549 424.818 771.464 425.061 771.417 425.33C771.37 425.594 771.342 425.808 771.332 425.973C771.323 426.139 771.318 426.36 771.318 426.639V430H770.412V422.754H771.318V423.879H771.389C771.681 423.483 772.004 423.178 772.358 422.966C772.717 422.749 773.153 422.64 773.667 422.64C774.017 422.64 774.441 422.671 774.941 422.732V423.582C774.441 423.52 774.017 423.49 773.667 423.49Z" fill="#A3A3A3"/>
<path d="M71.1773 424.565C71.7057 424.565 72.0642 424.542 72.253 424.495C72.6445 424.4 72.9582 424.197 73.1941 423.886C73.43 423.57 73.5479 423.183 73.5479 422.725C73.5479 422.263 73.4276 421.874 73.187 421.558C72.9512 421.242 72.6398 421.041 72.253 420.956C72.0407 420.909 71.6821 420.886 71.1773 420.886H69.8116V424.565H71.1773ZM73.279 424.862C73.8169 425.009 74.2509 425.301 74.5811 425.74C74.9113 426.174 75.0765 426.688 75.0765 427.283C75.0765 427.943 74.9019 428.509 74.5528 428.981C74.2084 429.448 73.7602 429.75 73.2083 429.887C72.9063 429.962 72.4039 430 71.701 430H68.9058V420.036H71.1773C71.7859 420.036 72.2199 420.067 72.4794 420.128C73.0597 420.265 73.5338 420.565 73.9018 421.027C74.2697 421.489 74.4537 422.055 74.4537 422.725C74.4537 423.197 74.3476 423.612 74.1353 423.971C73.9277 424.325 73.6423 424.598 73.279 424.792V424.862ZM69.8116 425.414V429.151H71.701C72.3426 429.151 72.7695 429.123 72.9818 429.066C73.3357 428.972 73.6211 428.764 73.8381 428.443C74.0598 428.122 74.1707 427.736 74.1707 427.283C74.1707 426.825 74.0622 426.436 73.8452 426.115C73.6281 425.79 73.3404 425.584 72.9818 425.499C72.7507 425.443 72.3237 425.414 71.701 425.414H69.8116ZM79.8832 422.945C80.2323 422.742 80.6262 422.64 81.065 422.64C81.5037 422.64 81.8953 422.742 82.2397 422.945C82.5888 423.143 82.8742 423.419 83.0959 423.773C83.2799 424.075 83.4026 424.433 83.4639 424.848C83.5252 425.259 83.5559 425.768 83.5559 426.377C83.5559 426.985 83.5252 427.497 83.4639 427.912C83.4026 428.323 83.2799 428.679 83.0959 428.981C82.8742 429.335 82.5888 429.613 82.2397 429.816C81.8953 430.014 81.5037 430.113 81.065 430.113C80.6262 430.113 80.2323 430.014 79.8832 429.816C79.5388 429.613 79.2558 429.335 79.034 428.981C78.8501 428.679 78.7274 428.323 78.6661 427.912C78.6047 427.497 78.5741 426.985 78.5741 426.377C78.5741 425.768 78.6047 425.259 78.6661 424.848C78.7274 424.433 78.8501 424.075 79.034 423.773C79.2558 423.419 79.5388 423.143 79.8832 422.945ZM82.3104 424.183C82.0368 423.721 81.6217 423.49 81.065 423.49C80.5083 423.49 80.0932 423.721 79.8195 424.183C79.7157 424.358 79.6379 424.577 79.586 424.841C79.5341 425.101 79.5034 425.334 79.494 425.542C79.4846 425.749 79.4799 426.028 79.4799 426.377C79.4799 426.726 79.4846 427.004 79.494 427.212C79.5034 427.419 79.5341 427.655 79.586 427.92C79.6379 428.179 79.7157 428.396 79.8195 428.571C80.0932 429.033 80.5083 429.264 81.065 429.264C81.6217 429.264 82.0368 429.033 82.3104 428.571C82.4142 428.396 82.4921 428.179 82.544 427.92C82.5959 427.655 82.6265 427.419 82.636 427.212C82.6454 427.004 82.6501 426.726 82.6501 426.377C82.6501 426.028 82.6454 425.749 82.636 425.542C82.6265 425.334 82.5959 425.101 82.544 424.841C82.4921 424.577 82.4142 424.358 82.3104 424.183ZM92.3184 430.078C91.8702 430.101 91.5447 430.113 91.3418 430.113C90.8371 430.113 90.429 429.953 90.1176 429.632C89.9572 429.467 89.8369 429.276 89.7567 429.059C89.6765 428.837 89.6293 428.663 89.6152 428.535C89.6058 428.403 89.601 428.233 89.601 428.026V420.036H90.5068V428.026C90.5068 428.172 90.5092 428.285 90.5139 428.365C90.5186 428.446 90.5351 428.542 90.5634 428.655C90.5965 428.769 90.6436 428.868 90.705 428.953C90.8606 429.16 91.0965 429.264 91.4126 429.264C91.7334 429.264 92.0353 429.252 92.3184 429.229V430.078ZM98.7881 422.64C99.1042 422.64 99.3991 422.723 99.6727 422.888C99.9463 423.049 100.166 423.299 100.331 423.638H100.402V420.036H101.307V430H100.402V429.115H100.331C100.166 429.455 99.9463 429.708 99.6727 429.873C99.3991 430.033 99.1042 430.113 98.7881 430.113C98.3211 430.113 97.9059 429.967 97.5427 429.674C97.1794 429.377 96.9152 428.964 96.7501 428.436C96.6888 428.238 96.6416 428.016 96.6086 427.771C96.5803 427.526 96.5638 427.318 96.559 427.148C96.5543 426.974 96.552 426.717 96.552 426.377C96.552 426.037 96.5543 425.782 96.559 425.613C96.5638 425.438 96.5803 425.228 96.6086 424.983C96.6416 424.737 96.6888 424.516 96.7501 424.318C96.9152 423.789 97.1794 423.379 97.5427 423.086C97.9059 422.789 98.3211 422.64 98.7881 422.64ZM99.7293 423.801C99.5123 423.593 99.2457 423.49 98.9297 423.49C98.6136 423.49 98.3447 423.593 98.1229 423.801C97.9059 424.004 97.7455 424.259 97.6417 424.565C97.5191 424.938 97.4577 425.542 97.4577 426.377C97.4577 427.212 97.5191 427.816 97.6417 428.188C97.7455 428.495 97.9059 428.752 98.1229 428.96C98.3447 429.163 98.6136 429.264 98.9297 429.264C99.2457 429.264 99.5123 429.163 99.7293 428.96C99.951 428.752 100.114 428.495 100.218 428.188C100.34 427.816 100.402 427.212 100.402 426.377C100.402 425.542 100.34 424.938 100.218 424.565C100.114 424.259 99.951 424.004 99.7293 423.801Z" fill="#A3A3A3"/>
<rect x="943.5" y="-0.261963" width="176" height="36" rx="10" fill="#E8ECFF"/>
<path d="M1002.44 9.07137C1004.67 9.07137 1006.3 9.89429 1007.32 11.5401C1007.72 12.1651 1007.99 12.8735 1008.12 13.6651C1008.26 14.4568 1008.33 15.37 1008.33 16.4047C1008.33 17.4394 1008.26 18.3526 1008.12 19.1443C1007.99 19.936 1007.72 20.6443 1007.32 21.2693C1006.3 22.9151 1004.67 23.738 1002.44 23.738H998.833V9.07137H1002.44ZM1006.79 19.0193C1006.93 18.304 1007 17.4325 1007 16.4047C1007 15.3769 1006.93 14.5054 1006.79 13.7901C1006.66 13.0748 1006.43 12.4811 1006.09 12.0089C1005.3 10.8839 1004.08 10.3214 1002.44 10.3214H1000.17V22.488H1002.44C1004.08 22.488 1005.3 21.9255 1006.09 20.8005C1006.43 20.3283 1006.66 19.7346 1006.79 19.0193ZM1016.08 14.488C1015.74 14.2658 1015.31 14.1547 1014.81 14.1547C1014.31 14.1547 1013.88 14.2658 1013.53 14.488C1013.18 14.7103 1012.93 15.0193 1012.78 15.4151C1012.63 15.7485 1012.54 16.3283 1012.5 17.1547H1017.12C1017.08 16.3283 1016.99 15.7485 1016.84 15.4151C1016.69 15.0193 1016.44 14.7103 1016.08 14.488ZM1012.73 13.488C1013.3 13.0991 1014 12.9047 1014.81 12.9047C1015.62 12.9047 1016.32 13.0991 1016.88 13.488C1017.46 13.8769 1017.86 14.3804 1018.09 14.9985C1018.21 15.2971 1018.3 15.6478 1018.35 16.0505C1018.42 16.4533 1018.45 16.811 1018.46 17.1235C1018.47 17.429 1018.48 17.8561 1018.48 18.4047H1012.48C1012.48 18.8769 1012.48 19.2415 1012.49 19.4985C1012.5 19.7485 1012.52 20.0505 1012.57 20.4047C1012.63 20.7589 1012.71 21.054 1012.81 21.2901C1013.21 22.1998 1013.95 22.6547 1015.02 22.6547C1015.83 22.6547 1016.87 22.5818 1018.15 22.436V23.686C1016.88 23.8318 1015.84 23.9047 1015.02 23.9047C1014.16 23.9047 1013.43 23.7033 1012.84 23.3005C1012.25 22.8978 1011.83 22.3735 1011.56 21.7276C1011.38 21.2901 1011.27 20.8214 1011.22 20.3214C1011.17 19.8214 1011.15 19.1825 1011.15 18.4047C1011.15 17.8561 1011.15 17.429 1011.16 17.1235C1011.17 16.811 1011.2 16.4533 1011.26 16.0505C1011.32 15.6478 1011.41 15.2971 1011.53 14.9985C1011.76 14.3804 1012.16 13.8769 1012.73 13.488ZM1029.46 23.8526C1028.8 23.8873 1028.32 23.9047 1028.02 23.9047C1027.28 23.9047 1026.68 23.6686 1026.22 23.1964C1025.98 22.9533 1025.8 22.6721 1025.69 22.3526C1025.57 22.0262 1025.5 21.7693 1025.48 21.5818C1025.46 21.3873 1025.46 21.1373 1025.46 20.8318V9.07137H1026.79V20.8318C1026.79 21.0471 1026.79 21.2137 1026.8 21.3318C1026.81 21.4498 1026.83 21.5922 1026.87 21.7589C1026.92 21.9255 1026.99 22.0714 1027.08 22.1964C1027.31 22.5019 1027.66 22.6547 1028.12 22.6547C1028.6 22.6547 1029.04 22.6373 1029.46 22.6026V23.8526ZM1038.71 14.488C1038.36 14.2658 1037.94 14.1547 1037.44 14.1547C1036.94 14.1547 1036.51 14.2658 1036.15 14.488C1035.81 14.7103 1035.56 15.0193 1035.4 15.4151C1035.26 15.7485 1035.16 16.3283 1035.12 17.1547H1039.75C1039.71 16.3283 1039.61 15.7485 1039.47 15.4151C1039.31 15.0193 1039.06 14.7103 1038.71 14.488ZM1035.35 13.488C1035.93 13.0991 1036.62 12.9047 1037.44 12.9047C1038.25 12.9047 1038.94 13.0991 1039.51 13.488C1040.08 13.8769 1040.49 14.3804 1040.72 14.9985C1040.83 15.2971 1040.92 15.6478 1040.98 16.0505C1041.04 16.4533 1041.07 16.811 1041.08 17.1235C1041.1 17.429 1041.1 17.8561 1041.1 18.4047H1035.1C1035.1 18.8769 1035.11 19.2415 1035.11 19.4985C1035.12 19.7485 1035.15 20.0505 1035.2 20.4047C1035.25 20.7589 1035.33 21.054 1035.44 21.2901C1035.84 22.1998 1036.57 22.6547 1037.64 22.6547C1038.45 22.6547 1039.49 22.5818 1040.77 22.436V23.686C1039.51 23.8318 1038.46 23.9047 1037.64 23.9047C1036.78 23.9047 1036.06 23.7033 1035.47 23.3005C1034.88 22.8978 1034.45 22.3735 1034.19 21.7276C1034.01 21.2901 1033.89 20.8214 1033.84 20.3214C1033.79 19.8214 1033.77 19.1825 1033.77 18.4047C1033.77 17.8561 1033.77 17.429 1033.78 17.1235C1033.79 16.811 1033.83 16.4533 1033.88 16.0505C1033.95 15.6478 1034.04 15.2971 1034.15 14.9985C1034.38 14.3804 1034.78 13.8769 1035.35 13.488ZM1052.08 23.7485C1051.34 23.8526 1050.67 23.9047 1050.08 23.9047C1049.53 23.9047 1049.02 23.804 1048.56 23.6026C1048.11 23.4012 1047.74 23.1269 1047.46 22.7797C1047.23 22.5158 1047.07 22.2068 1046.96 21.8526C1046.84 21.4985 1046.78 21.2033 1046.77 20.9672C1046.75 20.7311 1046.75 20.4047 1046.75 19.988V14.3839H1044.08V13.0714H1046.75V10.4047H1048.08V13.0714H1052.08V14.3839H1048.08V19.8839C1048.08 20.2658 1048.08 20.5505 1048.09 20.738C1048.11 20.9255 1048.15 21.1408 1048.22 21.3839C1048.29 21.6269 1048.39 21.8353 1048.53 22.0089C1048.89 22.4394 1049.44 22.6547 1050.19 22.6547C1050.68 22.6547 1051.31 22.6026 1052.08 22.4985V23.7485ZM1061.33 14.488C1060.98 14.2658 1060.56 14.1547 1060.06 14.1547C1059.56 14.1547 1059.13 14.2658 1058.78 14.488C1058.43 14.7103 1058.18 15.0193 1058.03 15.4151C1057.88 15.7485 1057.79 16.3283 1057.75 17.1547H1062.37C1062.33 16.3283 1062.24 15.7485 1062.09 15.4151C1061.94 15.0193 1061.68 14.7103 1061.33 14.488ZM1057.98 13.488C1058.55 13.0991 1059.25 12.9047 1060.06 12.9047C1060.87 12.9047 1061.56 13.0991 1062.13 13.488C1062.71 13.8769 1063.11 14.3804 1063.34 14.9985C1063.46 15.2971 1063.55 15.6478 1063.6 16.0505C1063.66 16.4533 1063.7 16.811 1063.71 17.1235C1063.72 17.429 1063.73 17.8561 1063.73 18.4047H1057.73C1057.73 18.8769 1057.73 19.2415 1057.74 19.4985C1057.74 19.7485 1057.77 20.0505 1057.82 20.4047C1057.88 20.7589 1057.96 21.054 1058.06 21.2901C1058.46 22.1998 1059.2 22.6547 1060.27 22.6547C1061.07 22.6547 1062.11 22.5818 1063.39 22.436V23.686C1062.13 23.8318 1061.09 23.9047 1060.27 23.9047C1059.41 23.9047 1058.68 23.7033 1058.09 23.3005C1057.5 22.8978 1057.07 22.3735 1056.81 21.7276C1056.63 21.2901 1056.51 20.8214 1056.47 20.3214C1056.42 19.8214 1056.39 19.1825 1056.39 18.4047C1056.39 17.8561 1056.4 17.429 1056.4 17.1235C1056.42 16.811 1056.45 16.4533 1056.51 16.0505C1056.57 15.6478 1056.66 15.2971 1056.78 14.9985C1057.01 14.3804 1057.41 13.8769 1057.98 13.488Z" fill="black"/>
<rect x="943.5" y="51.738" width="176" height="36" rx="10" fill="#E8ECFF"/>
<path d="M1010.51 60.9047C1011.51 60.9047 1012.56 60.9811 1013.65 61.1339V62.3839C1012.51 62.2311 1011.46 62.1547 1010.51 62.1547C1009.35 62.1547 1008.42 62.4221 1007.71 62.9568C1007.01 63.4846 1006.53 64.2172 1006.29 65.1547C1006.1 65.9116 1006 66.995 1006 68.4047C1006 69.8144 1006.1 70.8978 1006.29 71.6547C1006.53 72.5922 1006.98 73.3283 1007.62 73.863C1008.27 74.3908 1009.13 74.6547 1010.2 74.6547C1011.01 74.6547 1011.89 74.5714 1012.83 74.4047V68.988H1010.17V67.738H1014.17V75.3839C1012.72 75.7311 1011.39 75.9047 1010.2 75.9047C1008.8 75.9047 1007.66 75.5471 1006.77 74.8318C1005.89 74.1165 1005.3 73.1547 1004.99 71.9464C1004.77 71.0991 1004.67 69.9186 1004.67 68.4047C1004.67 66.8908 1004.77 65.7103 1004.99 64.863C1005.3 63.6547 1005.92 62.6929 1006.86 61.9776C1007.82 61.2623 1009.03 60.9047 1010.51 60.9047ZM1022.27 66.1547C1021.33 66.1547 1020.58 66.4082 1020.03 66.9151C1019.75 67.179 1019.51 67.4707 1019.33 67.7901C1019.15 68.1096 1019.03 68.4672 1018.96 68.863C1018.89 69.2519 1018.85 69.5679 1018.83 69.811C1018.82 70.054 1018.81 70.3804 1018.81 70.7901V75.738H1017.48V65.0714H1018.81V66.7276H1018.92C1019.35 66.1443 1019.82 65.6964 1020.34 65.3839C1020.87 65.0644 1021.51 64.9047 1022.27 64.9047C1022.78 64.9047 1023.41 64.9498 1024.15 65.0401V66.2901C1023.41 66.1998 1022.78 66.1547 1022.27 66.1547ZM1030.38 65.3526C1030.9 65.054 1031.48 64.9047 1032.12 64.9047C1032.77 64.9047 1033.35 65.054 1033.85 65.3526C1034.37 65.6443 1034.79 66.0505 1035.11 66.5714C1035.38 67.0158 1035.56 67.5436 1035.66 68.1547C1035.75 68.7589 1035.79 69.5089 1035.79 70.4047C1035.79 71.3005 1035.75 72.054 1035.66 72.6651C1035.56 73.2693 1035.38 73.7936 1035.11 74.238C1034.79 74.7589 1034.37 75.1686 1033.85 75.4672C1033.35 75.7589 1032.77 75.9047 1032.12 75.9047C1031.48 75.9047 1030.9 75.7589 1030.38 75.4672C1029.88 75.1686 1029.46 74.7589 1029.13 74.238C1028.86 73.7936 1028.68 73.2693 1028.59 72.6651C1028.5 72.054 1028.46 71.3005 1028.46 70.4047C1028.46 69.5089 1028.5 68.7589 1028.59 68.1547C1028.68 67.5436 1028.86 67.0158 1029.13 66.5714C1029.46 66.0505 1029.88 65.6443 1030.38 65.3526ZM1033.96 67.1755C1033.55 66.495 1032.94 66.1547 1032.12 66.1547C1031.3 66.1547 1030.69 66.495 1030.29 67.1755C1030.14 67.4325 1030.02 67.7554 1029.95 68.1443C1029.87 68.5262 1029.83 68.87 1029.81 69.1755C1029.8 69.4811 1029.79 69.8908 1029.79 70.4047C1029.79 70.9186 1029.8 71.3283 1029.81 71.6339C1029.83 71.9394 1029.87 72.2866 1029.95 72.6755C1030.02 73.0575 1030.14 73.3769 1030.29 73.6339C1030.69 74.3144 1031.3 74.6547 1032.12 74.6547C1032.94 74.6547 1033.55 74.3144 1033.96 73.6339C1034.11 73.3769 1034.22 73.0575 1034.3 72.6755C1034.38 72.2866 1034.42 71.9394 1034.44 71.6339C1034.45 71.3283 1034.46 70.9186 1034.46 70.4047C1034.46 69.8908 1034.45 69.4811 1034.44 69.1755C1034.42 68.87 1034.38 68.5262 1034.3 68.1443C1034.22 67.7554 1034.11 67.4325 1033.96 67.1755ZM1043.23 75.9047C1042.73 75.9047 1042.27 75.804 1041.85 75.6026C1041.44 75.4012 1041.09 75.1304 1040.82 74.7901C1040.65 74.5748 1040.51 74.3526 1040.4 74.1235C1040.3 73.8943 1040.23 73.6408 1040.19 73.363C1040.15 73.0853 1040.13 72.8561 1040.11 72.6755C1040.11 72.495 1040.1 72.2415 1040.1 71.9151V65.0714H1041.44V71.9151C1041.44 72.2971 1041.44 72.5818 1041.45 72.7693C1041.46 72.9568 1041.5 73.1686 1041.57 73.4047C1041.65 73.6339 1041.76 73.8353 1041.9 74.0089C1042.28 74.4394 1042.79 74.6547 1043.44 74.6547C1044.08 74.6547 1044.59 74.4394 1044.97 74.0089C1045.11 73.8353 1045.22 73.6339 1045.29 73.4047C1045.37 73.1686 1045.41 72.9568 1045.41 72.7693C1045.43 72.5818 1045.44 72.2971 1045.44 71.9151V65.0714H1046.77V75.738H1045.44V74.5714H1045.33C1045.07 74.9741 1044.76 75.2971 1044.37 75.5401C1044 75.7832 1043.62 75.9047 1043.23 75.9047ZM1055.12 75.9047C1054.23 75.9047 1053.48 75.4151 1052.85 74.436H1052.75V79.738H1051.41V65.0714H1052.75V66.3735H1052.85C1053.48 65.3943 1054.23 64.9047 1055.12 64.9047C1055.81 64.9047 1056.42 65.1235 1056.96 65.561C1057.49 65.9915 1057.88 66.5957 1058.12 67.3735C1058.21 67.6651 1058.28 67.9915 1058.32 68.3526C1058.37 68.7137 1058.4 69.0228 1058.4 69.2797C1058.41 69.5297 1058.41 69.9047 1058.41 70.4047C1058.41 70.9047 1058.41 71.2832 1058.4 71.5401C1058.4 71.7901 1058.37 72.0957 1058.32 72.4568C1058.28 72.8179 1058.21 73.1443 1058.12 73.436C1057.88 74.2137 1057.49 74.8214 1056.96 75.2589C1056.42 75.6894 1055.81 75.9047 1055.12 75.9047ZM1053.73 74.2068C1054.05 74.5054 1054.45 74.6547 1054.91 74.6547C1055.38 74.6547 1055.77 74.5054 1056.09 74.2068C1056.42 73.9012 1056.66 73.5228 1056.81 73.0714C1056.99 72.5228 1057.08 71.6339 1057.08 70.4047C1057.08 69.1755 1056.99 68.2866 1056.81 67.738C1056.66 67.2866 1056.42 66.9116 1056.09 66.613C1055.77 66.3075 1055.38 66.1547 1054.91 66.1547C1054.45 66.1547 1054.05 66.3075 1053.73 66.613C1053.41 66.9116 1053.17 67.2866 1053.02 67.738C1052.84 68.2866 1052.75 69.1755 1052.75 70.4047C1052.75 71.6339 1052.84 72.5228 1053.02 73.0714C1053.17 73.5228 1053.41 73.9012 1053.73 74.2068Z" fill="black"/>
<rect x="943.5" y="155.738" width="176" height="36" rx="10" fill="#E8ECFF"/>
<path d="M994.667 179.738H993.333V165.071H994.656L1001.23 177.134H1001.33V165.071H1002.67V179.738H1001.33L994.771 167.676H994.667V179.738ZM1010.58 170.488C1010.24 170.266 1009.81 170.155 1009.31 170.155C1008.81 170.155 1008.38 170.266 1008.03 170.488C1007.68 170.71 1007.43 171.019 1007.28 171.415C1007.13 171.748 1007.04 172.328 1007 173.155H1011.62C1011.58 172.328 1011.49 171.748 1011.34 171.415C1011.19 171.019 1010.94 170.71 1010.58 170.488ZM1007.23 169.488C1007.8 169.099 1008.5 168.905 1009.31 168.905C1010.12 168.905 1010.82 169.099 1011.38 169.488C1011.96 169.877 1012.36 170.38 1012.59 170.998C1012.71 171.297 1012.8 171.648 1012.85 172.051C1012.92 172.453 1012.95 172.811 1012.96 173.123C1012.97 173.429 1012.98 173.856 1012.98 174.405H1006.98C1006.98 174.877 1006.98 175.242 1006.99 175.498C1007 175.748 1007.02 176.051 1007.07 176.405C1007.13 176.759 1007.21 177.054 1007.31 177.29C1007.71 178.2 1008.45 178.655 1009.52 178.655C1010.33 178.655 1011.37 178.582 1012.65 178.436V179.686C1011.38 179.832 1010.34 179.905 1009.52 179.905C1008.66 179.905 1007.93 179.703 1007.34 179.301C1006.75 178.898 1006.33 178.373 1006.06 177.728C1005.88 177.29 1005.77 176.821 1005.72 176.321C1005.67 175.821 1005.65 175.182 1005.65 174.405C1005.65 173.856 1005.65 173.429 1005.66 173.123C1005.67 172.811 1005.7 172.453 1005.76 172.051C1005.82 171.648 1005.91 171.297 1006.03 170.998C1006.26 170.38 1006.66 169.877 1007.23 169.488ZM1019.98 171.748H1021.27L1022.98 178.28H1023.08C1023.8 175.53 1024.16 172.46 1024.16 169.071H1025.49C1025.49 172.641 1024.97 176.196 1023.94 179.738H1022.33L1020.68 173.623H1020.57L1018.92 179.738H1017.31C1016.28 176.196 1015.76 172.641 1015.76 169.071H1017.09C1017.09 172.46 1017.45 175.53 1018.17 178.28H1018.27L1019.98 171.748ZM1047.91 165.071V166.321H1043.91V179.738H1042.58V166.321H1038.58V165.071H1047.91ZM1056.56 174.405H1054.52C1054.26 174.405 1054.06 174.412 1053.91 174.426C1053.77 174.439 1053.6 174.492 1053.38 174.582C1053.17 174.665 1052.98 174.794 1052.81 174.967C1052.42 175.377 1052.23 175.915 1052.23 176.582C1052.23 177.172 1052.39 177.665 1052.73 178.061C1053.07 178.457 1053.52 178.655 1054.1 178.655C1054.43 178.655 1054.73 178.606 1054.99 178.509C1055.25 178.412 1055.47 178.29 1055.63 178.144C1055.81 177.998 1055.95 177.807 1056.07 177.571C1056.19 177.335 1056.29 177.117 1056.34 176.915C1056.4 176.707 1056.45 176.46 1056.49 176.176C1056.52 175.891 1056.54 175.658 1056.55 175.478C1056.56 175.297 1056.56 175.082 1056.56 174.832V174.405ZM1054.89 168.905C1055.49 168.905 1056.01 168.998 1056.47 169.186C1056.92 169.367 1057.29 169.714 1057.58 170.228C1057.79 170.596 1057.89 171.165 1057.89 171.936V179.738H1056.56V178.457H1056.46C1055.75 179.422 1054.89 179.905 1053.85 179.905C1053.02 179.905 1052.32 179.592 1051.75 178.967C1051.18 178.342 1050.89 177.554 1050.89 176.603C1050.89 175.603 1051.2 174.797 1051.81 174.186C1052.03 173.971 1052.27 173.794 1052.52 173.655C1052.77 173.516 1053.03 173.422 1053.3 173.373C1053.58 173.318 1053.79 173.287 1053.94 173.28C1054.1 173.266 1054.3 173.259 1054.54 173.259H1056.56V171.988C1056.56 171.384 1056.5 170.974 1056.37 170.759C1056.25 170.557 1056.08 170.408 1055.86 170.311C1055.65 170.207 1055.32 170.155 1054.89 170.155C1054.06 170.155 1053.06 170.228 1051.89 170.373V169.103C1053.04 168.971 1054.04 168.905 1054.89 168.905ZM1064.42 170.634C1063.83 171.182 1063.54 172.217 1063.54 173.738C1063.54 175.259 1063.83 176.294 1064.42 176.842C1064.76 177.162 1065.19 177.321 1065.7 177.321C1066.22 177.321 1066.65 177.162 1066.99 176.842C1067.58 176.294 1067.87 175.259 1067.87 173.738C1067.87 172.217 1067.58 171.182 1066.99 170.634C1066.65 170.314 1066.22 170.155 1065.7 170.155C1065.19 170.155 1064.76 170.314 1064.42 170.634ZM1067.87 177.103H1067.77C1067.14 178.082 1066.38 178.571 1065.5 178.571C1064.68 178.571 1063.98 178.29 1063.4 177.728C1062.6 176.936 1062.2 175.606 1062.2 173.738C1062.2 171.87 1062.6 170.54 1063.4 169.748C1063.98 169.186 1064.68 168.905 1065.5 168.905C1066.38 168.905 1067.14 169.394 1067.77 170.373H1067.87V169.071H1069.2V178.071C1069.2 179.259 1068.99 180.207 1068.57 180.915C1067.91 182.019 1066.87 182.571 1065.45 182.571C1064.65 182.571 1063.83 182.519 1063 182.415V181.165C1063.93 181.269 1064.75 181.321 1065.45 181.321C1066.34 181.321 1066.99 180.981 1067.41 180.301C1067.72 179.807 1067.87 179.064 1067.87 178.071V177.103Z" fill="black"/>
<rect x="943.5" y="103.238" width="176" height="36" rx="10" fill="#1939FA"/>
<path d="M1008.17 126.353V127.603C1006.77 127.804 1005.52 127.905 1004.41 127.905C1002.93 127.905 1001.73 127.551 1000.82 126.842C999.92 126.127 999.309 125.162 998.99 123.946C998.774 123.099 998.667 121.919 998.667 120.405C998.667 118.891 998.774 117.71 998.99 116.863C999.316 115.641 999.917 114.676 1000.79 113.967C1001.67 113.259 1002.84 112.905 1004.3 112.905C1005.41 112.905 1006.6 113.005 1007.85 113.207V114.457C1006.55 114.255 1005.36 114.155 1004.3 114.155C1002.15 114.155 1000.81 115.155 1000.29 117.155C1000.1 117.912 1000 118.995 1000 120.405C1000 121.814 1000.1 122.898 1000.29 123.655C1000.83 125.655 1002.2 126.655 1004.41 126.655C1005.47 126.655 1006.72 126.554 1008.17 126.353ZM1018.15 127.853C1017.49 127.887 1017.01 127.905 1016.71 127.905C1015.96 127.905 1015.36 127.669 1014.91 127.196C1014.67 126.953 1014.49 126.672 1014.37 126.353C1014.26 126.026 1014.19 125.769 1014.17 125.582C1014.15 125.387 1014.15 125.137 1014.15 124.832V113.071H1015.48V124.832C1015.48 125.047 1015.48 125.214 1015.49 125.332C1015.5 125.45 1015.52 125.592 1015.56 125.759C1015.61 125.926 1015.68 126.071 1015.77 126.196C1016 126.502 1016.35 126.655 1016.81 126.655C1017.28 126.655 1017.73 126.637 1018.15 126.603V127.853ZM1024.38 117.353C1024.9 117.054 1025.48 116.905 1026.12 116.905C1026.77 116.905 1027.35 117.054 1027.85 117.353C1028.37 117.644 1028.79 118.051 1029.11 118.571C1029.38 119.016 1029.56 119.544 1029.66 120.155C1029.75 120.759 1029.79 121.509 1029.79 122.405C1029.79 123.301 1029.75 124.054 1029.66 124.665C1029.56 125.269 1029.38 125.794 1029.11 126.238C1028.79 126.759 1028.37 127.169 1027.85 127.467C1027.35 127.759 1026.77 127.905 1026.12 127.905C1025.48 127.905 1024.9 127.759 1024.38 127.467C1023.88 127.169 1023.46 126.759 1023.13 126.238C1022.86 125.794 1022.68 125.269 1022.59 124.665C1022.5 124.054 1022.46 123.301 1022.46 122.405C1022.46 121.509 1022.5 120.759 1022.59 120.155C1022.68 119.544 1022.86 119.016 1023.13 118.571C1023.46 118.051 1023.88 117.644 1024.38 117.353ZM1027.96 119.176C1027.55 118.495 1026.94 118.155 1026.12 118.155C1025.3 118.155 1024.69 118.495 1024.29 119.176C1024.14 119.432 1024.02 119.755 1023.95 120.144C1023.87 120.526 1023.83 120.87 1023.81 121.176C1023.8 121.481 1023.79 121.891 1023.79 122.405C1023.79 122.919 1023.8 123.328 1023.81 123.634C1023.83 123.939 1023.87 124.287 1023.95 124.676C1024.02 125.057 1024.14 125.377 1024.29 125.634C1024.69 126.314 1025.3 126.655 1026.12 126.655C1026.94 126.655 1027.55 126.314 1027.96 125.634C1028.11 125.377 1028.22 125.057 1028.3 124.676C1028.38 124.287 1028.42 123.939 1028.44 123.634C1028.45 123.328 1028.46 122.919 1028.46 122.405C1028.46 121.891 1028.45 121.481 1028.44 121.176C1028.42 120.87 1028.38 120.526 1028.3 120.144C1028.22 119.755 1028.11 119.432 1027.96 119.176ZM1037.64 116.905C1038.14 116.905 1038.6 117.005 1039.02 117.207C1039.44 117.408 1039.78 117.679 1040.05 118.019C1040.22 118.235 1040.36 118.457 1040.47 118.686C1040.57 118.915 1040.64 119.169 1040.68 119.446C1040.72 119.724 1040.74 119.953 1040.75 120.134C1040.76 120.314 1040.77 120.568 1040.77 120.894V127.738H1039.44V120.894C1039.44 120.512 1039.43 120.228 1039.41 120.04C1039.41 119.853 1039.37 119.644 1039.29 119.415C1039.22 119.179 1039.11 118.974 1038.97 118.801C1038.59 118.37 1038.08 118.155 1037.44 118.155C1036.79 118.155 1036.28 118.37 1035.9 118.801C1035.76 118.974 1035.65 119.179 1035.57 119.415C1035.5 119.644 1035.46 119.853 1035.45 120.04C1035.44 120.228 1035.44 120.512 1035.44 120.894V127.738H1034.1V117.071H1035.44V118.238H1035.54C1035.8 117.835 1036.11 117.512 1036.49 117.269C1036.87 117.026 1037.26 116.905 1037.64 116.905ZM1050.02 118.488C1049.67 118.266 1049.25 118.155 1048.75 118.155C1048.25 118.155 1047.82 118.266 1047.47 118.488C1047.12 118.71 1046.87 119.019 1046.72 119.415C1046.57 119.748 1046.48 120.328 1046.44 121.155H1051.06C1051.02 120.328 1050.92 119.748 1050.78 119.415C1050.63 119.019 1050.37 118.71 1050.02 118.488ZM1046.66 117.488C1047.24 117.099 1047.94 116.905 1048.75 116.905C1049.56 116.905 1050.25 117.099 1050.82 117.488C1051.4 117.877 1051.8 118.38 1052.03 118.998C1052.15 119.297 1052.23 119.648 1052.29 120.051C1052.35 120.453 1052.39 120.811 1052.39 121.123C1052.41 121.429 1052.41 121.856 1052.41 122.405H1046.41C1046.41 122.877 1046.42 123.242 1046.42 123.498C1046.43 123.748 1046.46 124.051 1046.51 124.405C1046.56 124.759 1046.64 125.054 1046.75 125.29C1047.15 126.2 1047.89 126.655 1048.96 126.655C1049.76 126.655 1050.8 126.582 1052.08 126.436V127.686C1050.82 127.832 1049.78 127.905 1048.96 127.905C1048.09 127.905 1047.37 127.703 1046.78 127.301C1046.19 126.898 1045.76 126.373 1045.5 125.728C1045.32 125.29 1045.2 124.821 1045.15 124.321C1045.11 123.821 1045.08 123.182 1045.08 122.405C1045.08 121.856 1045.08 121.429 1045.09 121.123C1045.11 120.811 1045.14 120.453 1045.2 120.051C1045.26 119.648 1045.35 119.297 1045.47 118.998C1045.7 118.38 1046.09 117.877 1046.66 117.488ZM1061.52 118.155C1060.57 118.155 1059.83 118.408 1059.28 118.915C1058.99 119.179 1058.76 119.471 1058.58 119.79C1058.4 120.11 1058.27 120.467 1058.21 120.863C1058.14 121.252 1058.09 121.568 1058.08 121.811C1058.07 122.054 1058.06 122.38 1058.06 122.79V127.738H1056.73V117.071H1058.06V118.728H1058.16C1058.59 118.144 1059.07 117.696 1059.59 117.384C1060.12 117.064 1060.76 116.905 1061.52 116.905C1062.03 116.905 1062.66 116.95 1063.39 117.04V118.29C1062.66 118.2 1062.03 118.155 1061.52 118.155Z" fill="#E8ECFF"/>
<path d="M1084.94 169.052L1073.09 124.882L1111.72 144.676L1092.33 149.86L1084.94 169.052Z" fill="black" stroke="#E8ECFF" stroke-width="3"/>
<g filter="url(#filter2_d_281_171)">
<path d="M729.571 613H714.578V448.083H729.571L766.466 521.64H767.755L804.533 448.083H819.525V613H804.533V478.302H803.362L773.494 538.038H760.61L730.742 478.302H729.571V613Z" fill="#1939FA"/>
</g>
<g filter="url(#filter3_d_281_171)">
<path d="M882.398 491.186C887.083 491.186 891.261 492.397 894.931 494.817C898.679 497.16 901.646 500.283 903.832 504.188C910.47 495.52 918.317 491.186 927.375 491.186C935.965 491.186 942.758 494.544 947.756 501.259C949.63 503.836 951.035 506.686 951.972 509.81C952.909 512.933 953.456 515.627 953.612 517.892C953.768 520.078 953.846 523.28 953.846 527.496V613H938.854V527.496C938.854 524.139 938.815 521.679 938.737 520.117C938.659 518.555 938.346 516.798 937.8 514.846C937.253 512.894 936.433 511.293 935.34 510.044C932.529 506.843 928.703 505.242 923.861 505.242C919.02 505.242 915.194 506.843 912.383 510.044C911.29 511.293 910.47 512.894 909.923 514.846C909.377 516.798 909.064 518.555 908.986 520.117C908.908 521.679 908.869 524.139 908.869 527.496V613H893.877V527.496C893.877 524.139 893.837 521.679 893.759 520.117C893.681 518.555 893.369 516.798 892.822 514.846C892.276 512.894 891.456 511.293 890.363 510.044C887.552 506.843 883.725 505.242 878.884 505.242C874.043 505.242 870.217 506.843 867.405 510.044C866.312 511.293 865.492 512.894 864.946 514.846C864.399 516.798 864.087 518.555 864.009 520.117C863.931 521.679 863.892 524.139 863.892 527.496V613H848.899V493.06H863.892V501.845H865.063C869.904 494.739 875.683 491.186 882.398 491.186Z" fill="#E8ECFF"/>
</g>
<g filter="url(#filter4_d_281_171)">
<path d="M399.467 574.582C398.921 568.96 398.647 561.776 398.647 553.03C398.647 544.285 398.921 537.101 399.467 531.479C400.092 525.856 401.497 520.586 403.684 515.666C410.79 499.346 424.025 491.186 443.39 491.186C452.214 491.186 463.146 491.889 476.186 493.295V521.406C462.99 520 452.058 519.297 443.39 519.297C440.033 519.297 437.378 520.195 435.426 521.991C433.474 523.787 431.873 526.52 430.623 530.19C429.296 534.251 428.632 541.864 428.632 553.03C428.632 564.196 429.296 571.81 430.623 575.87C431.873 579.54 433.474 582.273 435.426 584.069C437.378 585.865 440.033 586.763 443.39 586.763C452.526 586.763 463.849 585.748 477.358 583.718V611.829C463.927 613.859 452.605 614.874 443.39 614.874C424.025 614.874 410.79 606.714 403.684 590.394C401.497 585.475 400.092 580.204 399.467 574.582Z" fill="#1939FA"/>
</g>
<g filter="url(#filter5_d_281_171)">
<path d="M619.175 583.952V612.063C605.197 613.937 592.821 614.874 582.045 614.874C566.037 614.874 553.114 610.892 543.275 602.927C533.515 594.884 526.917 584.03 523.481 570.365C521.06 560.839 519.85 547.564 519.85 530.542C519.85 513.519 521.06 500.244 523.481 490.718C526.917 476.975 533.398 466.121 542.924 458.156C552.451 450.191 565.1 446.209 580.874 446.209C592.821 446.209 605.002 446.912 617.418 448.317V476.428C601.801 475.023 589.736 474.32 581.225 474.32C565.218 474.32 555.457 483.3 551.943 501.259C550.537 508.599 549.835 518.36 549.835 530.542C549.835 542.723 550.537 552.484 551.943 559.824C555.457 577.783 565.491 586.763 582.045 586.763C591.025 586.763 603.401 585.826 619.175 583.952Z" fill="#1939FA"/>
</g>
<g filter="url(#filter6_d_281_171)">
<path d="M1053.82 574.582C1053.27 568.96 1053 561.776 1053 553.03C1053 544.285 1053.27 537.101 1053.82 531.479C1054.44 525.856 1055.85 520.586 1058.03 515.666C1065.14 499.346 1078.38 491.186 1097.74 491.186C1105.55 491.186 1116.09 491.85 1129.37 493.178V507.233C1115.94 505.906 1105.39 505.242 1097.74 505.242C1091.03 505.242 1085.68 506.53 1081.69 509.107C1077.79 511.606 1074.59 515.432 1072.09 520.586C1070.84 523.241 1069.86 526.559 1069.16 530.542C1068.54 534.524 1068.19 537.96 1068.11 540.849C1068.03 543.66 1067.99 547.72 1067.99 553.03C1067.99 558.34 1068.03 562.44 1068.11 565.329C1068.19 568.14 1068.54 571.537 1069.16 575.519C1069.86 579.501 1070.84 582.82 1072.09 585.475C1074.59 590.628 1077.79 594.494 1081.69 597.071C1085.68 599.569 1091.03 600.819 1097.74 600.819C1106.88 600.819 1118.2 599.804 1131.71 597.773V611.829C1118.28 613.859 1106.96 614.874 1097.74 614.874C1078.38 614.874 1065.14 606.714 1058.03 590.394C1055.85 585.475 1054.44 580.204 1053.82 574.582Z" fill="#E8ECFF"/>
</g>
<g filter="url(#filter7_d_281_171)">
<path d="M1281.02 597.422V611.477C1265.33 613.742 1251.23 614.874 1238.74 614.874C1222.11 614.874 1208.68 610.892 1198.45 602.927C1188.29 594.884 1181.42 584.03 1177.83 570.365C1175.41 560.839 1174.2 547.564 1174.2 530.542C1174.2 513.519 1175.41 500.244 1177.83 490.718C1181.5 476.975 1188.26 466.121 1198.09 458.156C1207.93 450.191 1221.09 446.209 1237.57 446.209C1250.06 446.209 1263.37 447.341 1277.51 449.606V463.661C1262.83 461.397 1249.51 460.264 1237.57 460.264C1213.36 460.264 1198.33 471.509 1192.47 493.997C1190.29 502.509 1189.19 514.69 1189.19 530.542C1189.19 546.393 1190.29 558.574 1192.47 567.086C1198.49 589.574 1213.91 600.819 1238.74 600.819C1250.69 600.819 1264.78 599.686 1281.02 597.422Z" fill="#1939FA"/>
</g>
</g>
<defs>
<filter id="filter0_d_281_171" x="67.2278" y="448.083" width="120.947" height="164.917" filterUnits="userSpaceOnUse" color-interpolation-filters="sRGB">
<feFlood flood-opacity="0" result="BackgroundImageFix"/>
<feColorMatrix in="SourceAlpha" type="matrix" values="0 0 0 0 0 0 0 0 0 0 0 0 0 0 0 0 0 0 127 0" result="hardAlpha"/>
<feOffset dx="16"/>
<feComposite in2="hardAlpha" operator="out"/>
<feColorMatrix type="matrix" values="0 0 0 0 0 0 0 0 0 0 0 0 0 0 0 0 0 0 1 0"/>
<feBlend mode="normal" in2="BackgroundImageFix" result="effect1_dropShadow_281_171"/>
<feBlend mode="normal" in="SourceGraphic" in2="effect1_dropShadow_281_171" result="shape"/>
</filter>
<filter id="filter1_d_281_171" x="201.549" y="491.186" width="120.947" height="121.814" filterUnits="userSpaceOnUse" color-interpolation-filters="sRGB">
<feFlood flood-opacity="0" result="BackgroundImageFix"/>
<feColorMatrix in="SourceAlpha" type="matrix" values="0 0 0 0 0 0 0 0 0 0 0 0 0 0 0 0 0 0 127 0" result="hardAlpha"/>
<feOffset dx="16"/>
<feComposite in2="hardAlpha" operator="out"/>
<feColorMatrix type="matrix" values="0 0 0 0 0 0 0 0 0 0 0 0 0 0 0 0 0 0 1 0"/>
<feBlend mode="normal" in2="BackgroundImageFix" result="effect1_dropShadow_281_171"/>
<feBlend mode="normal" in="SourceGraphic" in2="effect1_dropShadow_281_171" result="shape"/>
</filter>
<filter id="filter2_d_281_171" x="714.578" y="448.083" width="120.947" height="164.917" filterUnits="userSpaceOnUse" color-interpolation-filters="sRGB">
<feFlood flood-opacity="0" result="BackgroundImageFix"/>
<feColorMatrix in="SourceAlpha" type="matrix" values="0 0 0 0 0 0 0 0 0 0 0 0 0 0 0 0 0 0 127 0" result="hardAlpha"/>
<feOffset dx="16"/>
<feComposite in2="hardAlpha" operator="out"/>
<feColorMatrix type="matrix" values="0 0 0 0 0 0 0 0 0 0 0 0 0 0 0 0 0 0 1 0"/>
<feBlend mode="normal" in2="BackgroundImageFix" result="effect1_dropShadow_281_171"/>
<feBlend mode="normal" in="SourceGraphic" in2="effect1_dropShadow_281_171" result="shape"/>
</filter>
<filter id="filter3_d_281_171" x="848.899" y="491.186" width="120.947" height="121.814" filterUnits="userSpaceOnUse" color-interpolation-filters="sRGB">
<feFlood flood-opacity="0" result="BackgroundImageFix"/>
<feColorMatrix in="SourceAlpha" type="matrix" values="0 0 0 0 0 0 0 0 0 0 0 0 0 0 0 0 0 0 127 0" result="hardAlpha"/>
<feOffset dx="16"/>
<feComposite in2="hardAlpha" operator="out"/>
<feColorMatrix type="matrix" values="0 0 0 0 0 0 0 0 0 0 0 0 0 0 0 0 0 0 1 0"/>
<feBlend mode="normal" in2="BackgroundImageFix" result="effect1_dropShadow_281_171"/>
<feBlend mode="normal" in="SourceGraphic" in2="effect1_dropShadow_281_171" result="shape"/>
</filter>
<filter id="filter4_d_281_171" x="398.647" y="491.186" width="94.7104" height="123.688" filterUnits="userSpaceOnUse" color-interpolation-filters="sRGB">
<feFlood flood-opacity="0" result="BackgroundImageFix"/>
<feColorMatrix in="SourceAlpha" type="matrix" values="0 0 0 0 0 0 0 0 0 0 0 0 0 0 0 0 0 0 127 0" result="hardAlpha"/>
<feOffset dx="16"/>
<feComposite in2="hardAlpha" operator="out"/>
<feColorMatrix type="matrix" values="0 0 0 0 0 0 0 0 0 0 0 0 0 0 0 0 0 0 1 0"/>
<feBlend mode="normal" in2="BackgroundImageFix" result="effect1_dropShadow_281_171"/>
<feBlend mode="normal" in="SourceGraphic" in2="effect1_dropShadow_281_171" result="shape"/>
</filter>
<filter id="filter5_d_281_171" x="519.85" y="446.209" width="115.325" height="168.665" filterUnits="userSpaceOnUse" color-interpolation-filters="sRGB">
<feFlood flood-opacity="0" result="BackgroundImageFix"/>
<feColorMatrix in="SourceAlpha" type="matrix" values="0 0 0 0 0 0 0 0 0 0 0 0 0 0 0 0 0 0 127 0" result="hardAlpha"/>
<feOffset dx="16"/>
<feComposite in2="hardAlpha" operator="out"/>
<feColorMatrix type="matrix" values="0 0 0 0 0 0 0 0 0 0 0 0 0 0 0 0 0 0 1 0"/>
<feBlend mode="normal" in2="BackgroundImageFix" result="effect1_dropShadow_281_171"/>
<feBlend mode="normal" in="SourceGraphic" in2="effect1_dropShadow_281_171" result="shape"/>
</filter>
<filter id="filter6_d_281_171" x="1053" y="491.186" width="94.7103" height="123.688" filterUnits="userSpaceOnUse" color-interpolation-filters="sRGB">
<feFlood flood-opacity="0" result="BackgroundImageFix"/>
<feColorMatrix in="SourceAlpha" type="matrix" values="0 0 0 0 0 0 0 0 0 0 0 0 0 0 0 0 0 0 127 0" result="hardAlpha"/>
<feOffset dx="16"/>
<feComposite in2="hardAlpha" operator="out"/>
<feColorMatrix type="matrix" values="0 0 0 0 0 0 0 0 0 0 0 0 0 0 0 0 0 0 1 0"/>
<feBlend mode="normal" in2="BackgroundImageFix" result="effect1_dropShadow_281_171"/>
<feBlend mode="normal" in="SourceGraphic" in2="effect1_dropShadow_281_171" result="shape"/>
</filter>
<filter id="filter7_d_281_171" x="1174.2" y="446.209" width="122.821" height="168.665" filterUnits="userSpaceOnUse" color-interpolation-filters="sRGB">
<feFlood flood-opacity="0" result="BackgroundImageFix"/>
<feColorMatrix in="SourceAlpha" type="matrix" values="0 0 0 0 0 0 0 0 0 0 0 0 0 0 0 0 0 0 127 0" result="hardAlpha"/>
<feOffset dx="16"/>
<feComposite in2="hardAlpha" operator="out"/>
<feColorMatrix type="matrix" values="0 0 0 0 0 0 0 0 0 0 0 0 0 0 0 0 0 0 1 0"/>
<feBlend mode="normal" in2="BackgroundImageFix" result="effect1_dropShadow_281_171"/>
<feBlend mode="normal" in="SourceGraphic" in2="effect1_dropShadow_281_171" result="shape"/>
</filter>
<clipPath id="clip0_281_171">
<rect width="1320" height="618" fill="white"/>
</clipPath>
</defs>
</svg>
