<svg width="1320" height="424" viewBox="0 0 1320 424" fill="none" xmlns="http://www.w3.org/2000/svg">
<g clip-path="url(#clip0_273_168)">
<line x1="68" y1="54.2156" x2="502.792" y2="54.2156" stroke="#1939FA" stroke-width="2" stroke-dasharray="8.7 8.7"/>
<line x1="68" y1="343.365" x2="502.792" y2="343.365" stroke="#1939FA" stroke-width="2" stroke-dasharray="8.7 8.7"/>
<line x1="68" y1="129.464" x2="502.792" y2="129.464" stroke="#1939FA" stroke-width="2" stroke-dasharray="8.7 8.7"/>
<path d="M390.285 225.308H446.348L457.713 235.914L452.409 304.857L426.651 326.071L394.831 338.192L368.314 326.071L352.404 304.857V248.036L390.285 225.308Z" fill="#1939FA"/>
<path d="M98.1133 344.365C110.395 228.721 138.547 131.568 182.57 52.9082H209.48C253.502 131.568 281.654 228.721 293.936 344.365H265.991C263.921 319.387 260.126 292.615 254.606 264.049H137.443C136.753 268.327 135.718 274.675 134.338 283.093C132.958 291.373 131.854 298.204 131.026 303.586C130.198 308.968 129.301 315.454 128.335 323.044C127.369 330.634 126.61 337.741 126.058 344.365H98.1133ZM250.259 239.209C242.255 205.399 234.182 175.729 226.04 150.198C217.898 124.668 208.238 101.139 197.06 79.6112H194.99C183.812 101.139 174.152 124.668 166.01 150.198C157.868 175.729 149.794 205.399 141.79 239.209H250.259ZM447.841 238.381H407.269C402.163 238.381 398.161 238.519 395.263 238.795C392.503 239.071 388.984 240.106 384.706 241.9C380.428 243.556 376.633 246.109 373.321 249.559C365.593 257.701 361.729 268.396 361.729 281.644C361.729 293.374 365.041 303.172 371.665 311.038C378.427 318.904 387.535 322.837 398.989 322.837C405.613 322.837 411.478 321.871 416.584 319.939C421.828 318.007 426.106 315.592 429.418 312.694C432.868 309.796 435.766 306.001 438.112 301.309C440.596 296.617 442.39 292.27 443.494 288.268C444.736 284.128 445.702 279.229 446.392 273.571C447.082 267.913 447.496 263.29 447.634 259.702C447.772 256.114 447.841 251.836 447.841 246.868V238.381ZM414.721 129.084C426.589 129.084 437.008 130.947 445.978 134.673C454.948 138.261 462.331 145.161 468.127 155.373C472.267 162.688 474.337 174.004 474.337 189.322V344.365H447.841V318.904H445.771C431.833 338.086 414.583 347.677 394.021 347.677C377.461 347.677 363.523 341.467 352.207 329.047C340.891 316.627 335.233 300.964 335.233 282.058C335.233 262.186 341.305 246.178 353.449 234.034C357.865 229.756 362.557 226.237 367.525 223.477C372.493 220.717 377.668 218.854 383.05 217.888C388.57 216.784 392.848 216.163 395.884 216.025C399.058 215.749 402.991 215.611 407.683 215.611H447.841V190.357C447.841 178.351 446.599 170.209 444.115 165.931C441.769 161.929 438.388 158.962 433.972 157.029C429.694 154.959 423.277 153.924 414.721 153.924C398.161 153.924 378.289 155.373 355.105 158.271V133.017C377.875 130.395 397.747 129.084 414.721 129.084Z" fill="#E8ECFF"/>
<rect x="661" y="56" width="658" height="287" rx="15.7347" stroke="#C0C6D2" stroke-width="2"/>
<rect x="575" y="33.4368" width="53" height="53" rx="10" fill="#1939FA"/>
<rect x="575" y="175.365" width="53" height="53" rx="10" fill="#1939FA"/>
<rect x="575" y="91.3652" width="53" height="53" rx="10" fill="#1939FA"/>
<rect x="575" y="233.365" width="53" height="53" rx="10" fill="#1939FA"/>
<rect x="575" y="291.365" width="53" height="53" rx="10" fill="#1939FA"/>
<path d="M85.2521 33.1727V24.9782H85.1814L80.7232 33.1727H79.8174V23.2091H80.7232V31.4036H80.794L85.2592 23.2091H86.1579V33.1727H85.2521ZM93.3848 29.1887C94.1066 29.5378 94.4675 30.1393 94.4675 30.9932C94.4675 31.6678 94.2269 32.2198 93.7457 32.6491C93.2645 33.0737 92.6512 33.286 91.9058 33.286C91.2595 33.286 90.5283 33.2624 89.7121 33.2152V32.366C90.5519 32.4132 91.2831 32.4368 91.9058 32.4368C92.4012 32.4368 92.7998 32.307 93.1018 32.0476C93.4084 31.7881 93.5617 31.4366 93.5617 30.9932C93.5617 30.6394 93.4603 30.3398 93.2574 30.0945C93.0546 29.8444 92.7904 29.684 92.4649 29.6133C92.2715 29.5708 91.9813 29.5496 91.5945 29.5496H90.6179V28.7004H91.6016C92.012 28.7004 92.3257 28.6792 92.5427 28.6367C92.8022 28.5848 93.0239 28.474 93.2079 28.3041C93.3966 28.1296 93.491 27.9196 93.491 27.6743C93.491 27.4007 93.3518 27.1648 93.0735 26.9667C92.7998 26.7638 92.413 26.6624 91.9129 26.6624C91.4553 26.6624 90.7689 26.7001 89.8537 26.7756V25.9264C90.6604 25.851 91.3468 25.8132 91.9129 25.8132C92.6489 25.8132 93.2457 25.9925 93.7033 26.351C94.1656 26.7096 94.3968 27.1507 94.3968 27.6743C94.3968 28.3584 94.0594 28.8396 93.3848 29.1179V29.1887ZM99.5856 26.2307C99.9678 25.9524 100.428 25.8132 100.966 25.8132C101.503 25.8132 101.961 25.9524 102.338 26.2307C102.721 26.5091 102.999 26.8676 103.173 27.3063C103.296 27.6083 103.374 27.9267 103.407 28.2617C103.44 28.5966 103.456 29.0259 103.456 29.5496C103.456 30.0732 103.44 30.5025 103.407 30.8375C103.374 31.1724 103.296 31.4909 103.173 31.7928C102.999 32.2316 102.721 32.5901 102.338 32.8684C101.961 33.1468 101.503 33.286 100.966 33.286C100.428 33.286 99.9678 33.1468 99.5856 32.8684C99.2082 32.5901 98.9322 32.2316 98.7577 31.7928C98.635 31.4909 98.5572 31.1724 98.5242 30.8375C98.4912 30.5025 98.4746 30.0732 98.4746 29.5496C98.4746 29.0259 98.4912 28.5966 98.5242 28.2617C98.5572 27.9267 98.635 27.6083 98.7577 27.3063C98.9322 26.8676 99.2082 26.5091 99.5856 26.2307ZM102.324 27.5894C102.074 26.9714 101.621 26.6624 100.966 26.6624C100.31 26.6624 99.8569 26.9714 99.6069 27.5894C99.4559 27.9668 99.3804 28.6202 99.3804 29.5496C99.3804 30.479 99.4559 31.1323 99.6069 31.5098C99.8569 32.1278 100.31 32.4368 100.966 32.4368C101.621 32.4368 102.074 32.1278 102.324 31.5098C102.475 31.1323 102.551 30.479 102.551 29.5496C102.551 28.6202 102.475 27.9668 102.324 27.5894ZM107.69 25.9264H112.219V26.7756H108.596V33.1727H107.69V25.9264ZM116.679 25.9264H117.585V28.7004H120.302V25.9264H121.208V33.1727H120.302V29.5496H117.585V33.1727H116.679V25.9264ZM128.138 31.4744C128.586 30.0968 129.088 28.2475 129.645 25.9264H130.572C130.548 26.0161 130.492 26.2402 130.402 26.5987C130.317 26.9525 130.263 27.1813 130.239 27.2851C130.216 27.3842 130.164 27.5941 130.084 27.9149C130.003 28.231 129.944 28.4551 129.907 28.5872C129.874 28.7146 129.819 28.9245 129.744 29.217C129.668 29.5048 129.605 29.7312 129.553 29.8963C129.506 30.0614 129.442 30.2808 129.362 30.5544C129.282 30.8281 129.206 31.071 129.135 31.2833C129.069 31.4956 128.991 31.7338 128.902 31.998C128.817 32.2622 128.73 32.5241 128.64 32.7835C128.527 33.1043 128.437 33.3449 128.371 33.5053C128.31 33.6704 128.22 33.8568 128.102 34.0644C127.984 34.2719 127.857 34.43 127.72 34.5385C127.277 34.9112 126.593 35.0975 125.668 35.0975V34.2484C126.343 34.2484 126.805 34.1516 127.055 33.9582C127.163 33.878 127.262 33.7554 127.352 33.5902C127.446 33.4251 127.52 33.2718 127.571 33.1303C127.628 32.9887 127.732 32.701 127.883 32.2669H127.515C127.005 31.3423 126.578 30.3657 126.234 29.3373C125.894 28.3088 125.583 27.1719 125.3 25.9264H126.227C126.718 28.1815 127.331 30.0308 128.067 31.4744H128.138ZM140.092 25.9264V26.7756H137.374V33.1727H136.468V26.7756H133.751V25.9264H140.092ZM143.646 25.9264H144.552V28.7004H147.269V25.9264H148.175V33.1727H147.269V29.5496H144.552V33.1727H143.646V25.9264ZM153.548 28.6721H153.951C154.328 28.6721 154.623 28.7004 154.836 28.757C155.303 28.8797 155.678 29.1344 155.961 29.5213C156.244 29.9034 156.385 30.3705 156.385 30.9224C156.385 31.4744 156.244 31.9438 155.961 32.3306C155.678 32.7128 155.303 32.9652 154.836 33.0878C154.623 33.1444 154.328 33.1727 153.951 33.1727H152.635V25.9264H153.548V28.6721ZM153.541 29.5213V32.3236H153.951C154.22 32.3236 154.432 32.3047 154.588 32.2669C154.866 32.1962 155.083 32.0405 155.239 31.7999C155.399 31.5593 155.479 31.2668 155.479 30.9224C155.479 30.578 155.399 30.2855 155.239 30.0449C155.083 29.8043 154.866 29.6487 154.588 29.5779C154.432 29.5401 154.22 29.5213 153.951 29.5213H153.541ZM158.069 25.9264V33.1727H157.164V25.9264H158.069ZM165.388 23.2091H166.294C166.294 23.7893 166.063 24.2564 165.601 24.6102C165.143 24.9593 164.572 25.1339 163.888 25.1339C163.204 25.1339 162.631 24.9593 162.169 24.6102C161.711 24.2564 161.482 23.7893 161.482 23.2091H162.388C162.388 23.5299 162.515 23.7893 162.77 23.9875C163.03 24.1856 163.402 24.2847 163.888 24.2847C164.374 24.2847 164.744 24.1856 164.999 23.9875C165.259 23.7893 165.388 23.5299 165.388 23.2091ZM165.247 33.1727V27.6955H165.176L162.529 33.1727H161.624V25.9264H162.529V31.4036H162.6L165.254 25.9264H166.153V33.1727H165.247ZM178.696 33.1727V25.9264H179.602V32.3236H181.413V25.9264H182.319V32.3236H184.131V25.9264H185.036V33.1727H178.696ZM194.025 25.9264V26.7756H191.308V33.1727H190.402V26.7756H187.685V25.9264H194.025ZM200.099 33.286C199.495 33.286 198.981 32.9534 198.556 32.2882H198.485V35.8901H197.579V25.9264H198.485V26.811H198.556C198.981 26.1458 199.495 25.8132 200.099 25.8132C200.566 25.8132 200.981 25.9618 201.344 26.259C201.707 26.5515 201.972 26.962 202.137 27.4903C202.198 27.6885 202.243 27.9102 202.271 28.1555C202.304 28.4008 202.323 28.6108 202.328 28.7853C202.333 28.9552 202.335 29.2099 202.335 29.5496C202.335 29.8893 202.333 30.1464 202.328 30.3209C202.323 30.4908 202.304 30.6983 202.271 30.9436C202.243 31.189 202.198 31.4107 202.137 31.6088C201.972 32.1372 201.707 32.55 201.344 32.8472C200.981 33.1397 200.566 33.286 200.099 33.286ZM199.15 32.1325C199.372 32.3353 199.641 32.4368 199.957 32.4368C200.273 32.4368 200.54 32.3353 200.757 32.1325C200.979 31.9249 201.141 31.6678 201.245 31.3612C201.368 30.9885 201.429 30.3846 201.429 29.5496C201.429 28.7146 201.368 28.1107 201.245 27.738C201.141 27.4314 200.979 27.1766 200.757 26.9737C200.54 26.7662 200.273 26.6624 199.957 26.6624C199.641 26.6624 199.372 26.7662 199.15 26.9737C198.933 27.1766 198.773 27.4314 198.669 27.738C198.547 28.1107 198.485 28.7146 198.485 29.5496C198.485 30.3846 198.547 30.9885 198.669 31.3612C198.773 31.6678 198.933 31.9249 199.15 32.1325ZM210.192 33.1727V27.6955H210.121L207.474 33.1727H206.568V25.9264H207.474V31.4036H207.545L210.199 25.9264H211.097V33.1727H210.192ZM217.786 28.6155H217.857L219.435 25.9264H220.617L218.346 29.2028V29.2736L220.773 33.1727H219.584L217.857 29.8609H217.786L216.06 33.1727H214.871L217.298 29.2736V29.2028L215.027 25.9264H216.208L217.786 28.6155Z" fill="#A3A3A3"/>
<path d="M326.434 371.799C326.963 371.799 327.321 371.776 327.51 371.728C327.902 371.634 328.215 371.431 328.451 371.12C328.687 370.804 328.805 370.417 328.805 369.959C328.805 369.497 328.685 369.108 328.444 368.792C328.208 368.476 327.897 368.275 327.51 368.19C327.298 368.143 326.939 368.119 326.434 368.119H325.069V371.799H326.434ZM328.536 372.096C329.074 372.243 329.508 372.535 329.838 372.974C330.168 373.408 330.334 373.922 330.334 374.517C330.334 375.177 330.159 375.743 329.81 376.215C329.465 376.682 329.017 376.984 328.465 377.121C328.163 377.196 327.661 377.234 326.958 377.234H324.163V367.27H326.434C327.043 367.27 327.477 367.301 327.736 367.362C328.317 367.499 328.791 367.799 329.159 368.261C329.527 368.723 329.711 369.289 329.711 369.959C329.711 370.431 329.605 370.846 329.392 371.205C329.185 371.559 328.899 371.832 328.536 372.026V372.096ZM325.069 372.648V376.385H326.958C327.6 376.385 328.027 376.356 328.239 376.3C328.593 376.205 328.878 375.998 329.095 375.677C329.317 375.356 329.428 374.969 329.428 374.517C329.428 374.059 329.319 373.67 329.102 373.349C328.885 373.023 328.597 372.818 328.239 372.733C328.008 372.677 327.581 372.648 326.958 372.648H325.069ZM334.058 369.988H334.963V372.762H337.681V369.988H338.587V377.234H337.681V373.611H334.963V377.234H334.058V369.988ZM345.516 375.536C345.964 374.158 346.467 372.309 347.024 369.988H347.951C347.927 370.077 347.87 370.301 347.781 370.66C347.696 371.014 347.642 371.242 347.618 371.346C347.594 371.445 347.542 371.655 347.462 371.976C347.382 372.292 347.323 372.516 347.285 372.648C347.252 372.776 347.198 372.986 347.123 373.278C347.047 373.566 346.983 373.792 346.932 373.957C346.884 374.123 346.821 374.342 346.74 374.616C346.66 374.889 346.585 375.132 346.514 375.344C346.448 375.557 346.37 375.795 346.28 376.059C346.196 376.323 346.108 376.585 346.019 376.845C345.905 377.165 345.816 377.406 345.75 377.566C345.688 377.732 345.599 377.918 345.481 378.126C345.363 378.333 345.236 378.491 345.099 378.6C344.655 378.972 343.971 379.159 343.047 379.159V378.31C343.721 378.31 344.183 378.213 344.434 378.019C344.542 377.939 344.641 377.817 344.731 377.651C344.825 377.486 344.898 377.333 344.95 377.191C345.007 377.05 345.111 376.762 345.261 376.328H344.894C344.384 375.403 343.957 374.427 343.613 373.398C343.273 372.37 342.962 371.233 342.679 369.988H343.606C344.096 372.243 344.71 374.092 345.445 375.536H345.516ZM357.47 369.988V370.837H354.753V377.234H353.847V370.837H351.13V369.988H357.47ZM363.544 377.347C362.94 377.347 362.426 377.015 362.001 376.349H361.93V379.951H361.024V369.988H361.93V370.872H362.001C362.426 370.207 362.94 369.874 363.544 369.874C364.011 369.874 364.426 370.023 364.789 370.32C365.152 370.613 365.417 371.023 365.582 371.551C365.643 371.75 365.688 371.971 365.716 372.217C365.749 372.462 365.768 372.672 365.773 372.846C365.777 373.016 365.78 373.271 365.78 373.611C365.78 373.95 365.777 374.208 365.773 374.382C365.768 374.552 365.749 374.759 365.716 375.005C365.688 375.25 365.643 375.472 365.582 375.67C365.417 376.198 365.152 376.611 364.789 376.908C364.426 377.201 364.011 377.347 363.544 377.347ZM362.595 376.194C362.817 376.397 363.086 376.498 363.402 376.498C363.718 376.498 363.985 376.397 364.202 376.194C364.423 375.986 364.586 375.729 364.69 375.422C364.813 375.05 364.874 374.446 364.874 373.611C364.874 372.776 364.813 372.172 364.69 371.799C364.586 371.493 364.423 371.238 364.202 371.035C363.985 370.827 363.718 370.724 363.402 370.724C363.086 370.724 362.817 370.827 362.595 371.035C362.378 371.238 362.218 371.493 362.114 371.799C361.992 372.172 361.93 372.776 361.93 373.611C361.93 374.446 361.992 375.05 362.114 375.422C362.218 375.729 362.378 375.986 362.595 376.194ZM373.637 377.234V371.757H373.566L370.919 377.234H370.013V369.988H370.919V375.465H370.99L373.644 369.988H374.542V377.234H373.637ZM381.267 370.724C380.922 370.724 380.625 370.806 380.375 370.971C380.13 371.136 379.965 371.363 379.88 371.651C379.748 372.089 379.682 372.743 379.682 373.611C379.682 373.913 379.684 374.153 379.689 374.333C379.698 374.512 379.719 374.719 379.752 374.955C379.785 375.191 379.837 375.396 379.908 375.571C380.021 375.859 380.196 376.085 380.432 376.25C380.668 376.415 380.946 376.498 381.267 376.498C381.597 376.498 381.885 376.415 382.13 376.25C382.375 376.08 382.541 375.854 382.625 375.571C382.776 375.066 382.852 374.413 382.852 373.611C382.852 372.738 382.776 372.085 382.625 371.651C382.526 371.363 382.359 371.136 382.123 370.971C381.892 370.806 381.606 370.724 381.267 370.724ZM381.408 369.874C381.927 369.874 382.371 370.016 382.739 370.299C383.107 370.577 383.361 370.933 383.503 371.368C383.673 371.886 383.758 372.634 383.758 373.611C383.758 373.969 383.753 374.248 383.744 374.446C383.739 374.639 383.713 374.868 383.666 375.132C383.623 375.392 383.56 375.632 383.475 375.854C383.083 376.849 382.3 377.347 381.125 377.347C380.658 377.347 380.238 377.206 379.866 376.923C379.493 376.635 379.224 376.279 379.059 375.854C378.87 375.359 378.776 374.762 378.776 374.064C378.776 373.12 378.778 372.429 378.783 371.99C378.788 371.547 378.802 371.089 378.825 370.617C378.849 370.141 378.884 369.797 378.932 369.584C379.101 368.844 379.432 368.292 379.922 367.928C380.224 367.702 380.538 367.539 380.863 367.44C381.194 367.341 381.481 367.294 381.727 367.299C381.977 367.299 382.274 367.291 382.618 367.277C382.963 367.258 383.267 367.214 383.531 367.143V368.013C383.258 368.065 382.899 368.098 382.456 368.112C382.012 368.126 381.632 368.162 381.316 368.218C381.005 368.275 380.734 368.395 380.503 368.579C379.993 368.98 379.724 369.7 379.696 370.738H379.767C380.021 370.445 380.274 370.228 380.524 370.087C380.774 369.945 381.069 369.874 381.408 369.874ZM390.461 375.536C390.909 374.158 391.412 372.309 391.968 369.988H392.895C392.872 370.077 392.815 370.301 392.725 370.66C392.641 371.014 392.586 371.242 392.563 371.346C392.539 371.445 392.487 371.655 392.407 371.976C392.327 372.292 392.268 372.516 392.23 372.648C392.197 372.776 392.143 372.986 392.067 373.278C391.992 373.566 391.928 373.792 391.876 373.957C391.829 374.123 391.765 374.342 391.685 374.616C391.605 374.889 391.529 375.132 391.459 375.344C391.393 375.557 391.315 375.795 391.225 376.059C391.14 376.323 391.053 376.585 390.963 376.845C390.85 377.165 390.761 377.406 390.694 377.566C390.633 377.732 390.544 377.918 390.426 378.126C390.308 378.333 390.18 378.491 390.043 378.6C389.6 378.972 388.916 379.159 387.991 379.159V378.31C388.666 378.31 389.128 378.213 389.378 378.019C389.487 377.939 389.586 377.817 389.675 377.651C389.77 377.486 389.843 377.333 389.895 377.191C389.951 377.05 390.055 376.762 390.206 376.328H389.838C389.329 375.403 388.902 374.427 388.557 373.398C388.218 372.37 387.906 371.233 387.623 369.988H388.55C389.041 372.243 389.654 374.092 390.39 375.536H390.461ZM397.886 377.234H396.98V369.988H397.886V372.938L400.717 369.988H401.927L399.358 372.67L402.259 377.234H401.155L398.771 373.271L397.886 374.156V377.234ZM406.875 372.733H408.573C408.8 372.733 408.958 372.721 409.047 372.698C409.241 372.651 409.394 372.547 409.507 372.387C409.621 372.226 409.677 372.026 409.677 371.785C409.677 371.544 409.621 371.344 409.507 371.184C409.394 371.023 409.241 370.919 409.047 370.872C408.948 370.849 408.79 370.837 408.573 370.837H406.875V372.733ZM406.875 376.385H408.29C408.559 376.385 408.771 376.366 408.927 376.328C409.205 376.257 409.422 376.102 409.578 375.861C409.739 375.62 409.819 375.328 409.819 374.984C409.819 374.634 409.739 374.34 409.578 374.099C409.418 373.858 409.201 373.705 408.927 373.639C408.771 373.601 408.559 373.582 408.29 373.582H406.875V376.385ZM405.969 377.234V369.988H408.573C408.866 369.988 409.099 370.009 409.274 370.051C409.661 370.146 409.974 370.348 410.215 370.66C410.46 370.967 410.583 371.342 410.583 371.785C410.583 372.087 410.51 372.361 410.364 372.606C410.222 372.846 410.031 373.04 409.79 373.186C410.413 373.634 410.725 374.233 410.725 374.984C410.725 375.536 410.583 376.005 410.3 376.392C410.017 376.774 409.642 377.026 409.175 377.149C408.963 377.206 408.668 377.234 408.29 377.234H405.969ZM418.086 370.95C417.85 370.799 417.562 370.724 417.223 370.724C416.883 370.724 416.593 370.799 416.352 370.95C416.116 371.101 415.946 371.311 415.843 371.58C415.744 371.806 415.68 372.2 415.652 372.762H418.794C418.765 372.2 418.702 371.806 418.602 371.58C418.499 371.311 418.326 371.101 418.086 370.95ZM415.807 370.271C416.199 370.006 416.671 369.874 417.223 369.874C417.775 369.874 418.244 370.006 418.631 370.271C419.022 370.535 419.296 370.877 419.452 371.297C419.532 371.5 419.591 371.738 419.629 372.011C419.671 372.285 419.695 372.528 419.699 372.74C419.709 372.948 419.713 373.238 419.713 373.611H415.637C415.637 373.932 415.64 374.179 415.645 374.354C415.649 374.524 415.668 374.729 415.701 374.969C415.739 375.21 415.793 375.411 415.864 375.571C416.138 376.189 416.638 376.498 417.364 376.498C417.911 376.498 418.619 376.448 419.487 376.349V377.199C418.628 377.298 417.921 377.347 417.364 377.347C416.779 377.347 416.286 377.21 415.885 376.937C415.484 376.663 415.194 376.307 415.015 375.868C414.892 375.571 414.814 375.252 414.781 374.913C414.748 374.573 414.732 374.139 414.732 373.611C414.732 373.238 414.734 372.948 414.739 372.74C414.748 372.528 414.772 372.285 414.809 372.011C414.852 371.738 414.913 371.5 414.993 371.297C415.149 370.877 415.42 370.535 415.807 370.271ZM423.947 369.988H424.853V372.762H427.57V369.988H428.476V377.234H427.57V373.611H424.853V377.234H423.947V369.988ZM432.936 369.988H433.842V372.762H436.559V369.988H437.465V377.234H436.559V373.611H433.842V377.234H432.936V369.988ZM442.838 372.733H443.241C443.619 372.733 443.913 372.762 444.126 372.818C444.593 372.941 444.968 373.196 445.251 373.582C445.534 373.965 445.675 374.432 445.675 374.984C445.675 375.536 445.534 376.005 445.251 376.392C444.968 376.774 444.593 377.026 444.126 377.149C443.913 377.206 443.619 377.234 443.241 377.234H441.925V369.988H442.838V372.733ZM442.831 373.582V376.385H443.241C443.51 376.385 443.722 376.366 443.878 376.328C444.156 376.257 444.373 376.102 444.529 375.861C444.689 375.62 444.77 375.328 444.77 374.984C444.77 374.639 444.689 374.347 444.529 374.106C444.373 373.865 444.156 373.71 443.878 373.639C443.722 373.601 443.51 373.582 443.241 373.582H442.831ZM447.36 369.988V377.234H446.454V369.988H447.36ZM454.679 367.27H455.584C455.584 367.85 455.353 368.318 454.891 368.671C454.433 369.02 453.862 369.195 453.178 369.195C452.494 369.195 451.921 369.02 451.459 368.671C451.001 368.318 450.772 367.85 450.772 367.27H451.678C451.678 367.591 451.806 367.85 452.06 368.049C452.32 368.247 452.692 368.346 453.178 368.346C453.664 368.346 454.035 368.247 454.289 368.049C454.549 367.85 454.679 367.591 454.679 367.27ZM454.537 377.234V371.757H454.466L451.82 377.234H450.914V369.988H451.82V375.465H451.89L454.544 369.988H455.443V377.234H454.537ZM325.069 383.988H329.598V391.234H328.692V384.837H325.974V391.234H325.069V383.988ZM336.577 391.347C335.973 391.347 335.459 391.015 335.034 390.349H334.963V393.951H334.058V383.988H334.963V384.872H335.034C335.459 384.207 335.973 383.874 336.577 383.874C337.044 383.874 337.459 384.023 337.822 384.32C338.186 384.613 338.45 385.023 338.615 385.551C338.676 385.75 338.721 385.971 338.749 386.217C338.782 386.462 338.801 386.672 338.806 386.846C338.811 387.016 338.813 387.271 338.813 387.611C338.813 387.95 338.811 388.208 338.806 388.382C338.801 388.552 338.782 388.759 338.749 389.005C338.721 389.25 338.676 389.472 338.615 389.67C338.45 390.198 338.186 390.611 337.822 390.908C337.459 391.201 337.044 391.347 336.577 391.347ZM335.629 390.194C335.85 390.397 336.119 390.498 336.435 390.498C336.751 390.498 337.018 390.397 337.235 390.194C337.457 389.986 337.619 389.729 337.723 389.422C337.846 389.05 337.907 388.446 337.907 387.611C337.907 386.776 337.846 386.172 337.723 385.799C337.619 385.493 337.457 385.238 337.235 385.035C337.018 384.827 336.751 384.724 336.435 384.724C336.119 384.724 335.85 384.827 335.629 385.035C335.412 385.238 335.251 385.493 335.147 385.799C335.025 386.172 334.963 386.776 334.963 387.611C334.963 388.446 335.025 389.05 335.147 389.422C335.251 389.729 335.412 389.986 335.629 390.194ZM343.931 384.292C344.313 384.014 344.773 383.874 345.311 383.874C345.849 383.874 346.306 384.014 346.684 384.292C347.066 384.57 347.344 384.929 347.519 385.368C347.642 385.669 347.719 385.988 347.752 386.323C347.785 386.658 347.802 387.087 347.802 387.611C347.802 388.134 347.785 388.564 347.752 388.899C347.719 389.234 347.642 389.552 347.519 389.854C347.344 390.293 347.066 390.651 346.684 390.93C346.306 391.208 345.849 391.347 345.311 391.347C344.773 391.347 344.313 391.208 343.931 390.93C343.554 390.651 343.278 390.293 343.103 389.854C342.98 389.552 342.903 389.234 342.87 388.899C342.837 388.564 342.82 388.134 342.82 387.611C342.82 387.087 342.837 386.658 342.87 386.323C342.903 385.988 342.98 385.669 343.103 385.368C343.278 384.929 343.554 384.57 343.931 384.292ZM346.67 385.651C346.42 385.033 345.967 384.724 345.311 384.724C344.655 384.724 344.202 385.033 343.952 385.651C343.801 386.028 343.726 386.681 343.726 387.611C343.726 388.54 343.801 389.194 343.952 389.571C344.202 390.189 344.655 390.498 345.311 390.498C345.967 390.498 346.42 390.189 346.67 389.571C346.821 389.194 346.896 388.54 346.896 387.611C346.896 386.681 346.821 386.028 346.67 385.651ZM351.859 388.913C351.826 388.573 351.809 388.139 351.809 387.611C351.809 387.082 351.826 386.648 351.859 386.309C351.896 385.969 351.981 385.651 352.113 385.353C352.543 384.367 353.342 383.874 354.512 383.874C354.984 383.874 355.621 383.914 356.423 383.995V384.844C355.611 384.764 354.975 384.724 354.512 384.724C354.107 384.724 353.783 384.801 353.543 384.957C353.307 385.108 353.113 385.339 352.963 385.651C352.887 385.811 352.828 386.011 352.786 386.252C352.748 386.493 352.727 386.7 352.722 386.875C352.717 387.045 352.715 387.29 352.715 387.611C352.715 387.932 352.717 388.179 352.722 388.354C352.727 388.524 352.748 388.729 352.786 388.969C352.828 389.21 352.887 389.411 352.963 389.571C353.113 389.882 353.307 390.116 353.543 390.271C353.783 390.422 354.107 390.498 354.512 390.498C355.064 390.498 355.748 390.437 356.564 390.314V391.163C355.753 391.286 355.069 391.347 354.512 391.347C353.342 391.347 352.543 390.854 352.113 389.868C351.981 389.571 351.896 389.252 351.859 388.913ZM361.93 386.733H363.629C363.855 386.733 364.013 386.721 364.103 386.698C364.296 386.651 364.449 386.547 364.563 386.387C364.676 386.226 364.732 386.026 364.732 385.785C364.732 385.544 364.676 385.344 364.563 385.184C364.449 385.023 364.296 384.919 364.103 384.872C364.004 384.849 363.846 384.837 363.629 384.837H361.93V386.733ZM361.93 390.385H363.346C363.614 390.385 363.827 390.366 363.982 390.328C364.261 390.257 364.478 390.102 364.633 389.861C364.794 389.62 364.874 389.328 364.874 388.984C364.874 388.634 364.794 388.34 364.633 388.099C364.473 387.858 364.256 387.705 363.982 387.639C363.827 387.601 363.614 387.582 363.346 387.582H361.93V390.385ZM361.024 391.234V383.988H363.629C363.921 383.988 364.155 384.009 364.329 384.051C364.716 384.146 365.03 384.348 365.27 384.66C365.516 384.967 365.638 385.342 365.638 385.785C365.638 386.087 365.565 386.361 365.419 386.606C365.277 386.846 365.086 387.04 364.846 387.186C365.468 387.634 365.78 388.233 365.78 388.984C365.78 389.536 365.638 390.005 365.355 390.392C365.072 390.774 364.697 391.026 364.23 391.149C364.018 391.206 363.723 391.234 363.346 391.234H361.024ZM373.141 384.95C372.905 384.799 372.618 384.724 372.278 384.724C371.938 384.724 371.648 384.799 371.407 384.95C371.172 385.101 371.002 385.311 370.898 385.58C370.799 385.806 370.735 386.2 370.707 386.762H373.849C373.821 386.2 373.757 385.806 373.658 385.58C373.554 385.311 373.382 385.101 373.141 384.95ZM370.863 384.271C371.254 384.006 371.726 383.874 372.278 383.874C372.83 383.874 373.299 384.006 373.686 384.271C374.078 384.535 374.351 384.877 374.507 385.297C374.587 385.5 374.646 385.738 374.684 386.011C374.726 386.285 374.75 386.528 374.755 386.74C374.764 386.948 374.769 387.238 374.769 387.611H370.693C370.693 387.932 370.695 388.179 370.7 388.354C370.705 388.524 370.723 388.729 370.756 388.969C370.794 389.21 370.848 389.411 370.919 389.571C371.193 390.189 371.693 390.498 372.419 390.498C372.967 390.498 373.674 390.448 374.542 390.349V391.199C373.684 391.298 372.976 391.347 372.419 391.347C371.834 391.347 371.341 391.21 370.94 390.937C370.539 390.663 370.249 390.307 370.07 389.868C369.947 389.571 369.869 389.252 369.836 388.913C369.803 388.573 369.787 388.139 369.787 387.611C369.787 387.238 369.789 386.948 369.794 386.74C369.803 386.528 369.827 386.285 369.865 386.011C369.907 385.738 369.969 385.5 370.049 385.297C370.204 384.877 370.476 384.535 370.863 384.271ZM384.437 383.988V384.837H381.72V391.234H380.814V384.837H378.097V383.988H384.437ZM397.886 386.733H399.584C399.811 386.733 399.969 386.721 400.058 386.698C400.252 386.651 400.405 386.547 400.518 386.387C400.632 386.226 400.688 386.026 400.688 385.785C400.688 385.544 400.632 385.344 400.518 385.184C400.405 385.023 400.252 384.919 400.058 384.872C399.959 384.849 399.801 384.837 399.584 384.837H397.886V386.733ZM397.886 390.385H399.301C399.57 390.385 399.782 390.366 399.938 390.328C400.217 390.257 400.434 390.102 400.589 389.861C400.75 389.62 400.83 389.328 400.83 388.984C400.83 388.634 400.75 388.34 400.589 388.099C400.429 387.858 400.212 387.705 399.938 387.639C399.782 387.601 399.57 387.582 399.301 387.582H397.886V390.385ZM396.98 391.234V383.988H399.584C399.877 383.988 400.11 384.009 400.285 384.051C400.672 384.146 400.985 384.348 401.226 384.66C401.471 384.967 401.594 385.342 401.594 385.785C401.594 386.087 401.521 386.361 401.375 386.606C401.233 386.846 401.042 387.04 400.802 387.186C401.424 387.634 401.736 388.233 401.736 388.984C401.736 389.536 401.594 390.005 401.311 390.392C401.028 390.774 400.653 391.026 400.186 391.149C399.974 391.206 399.679 391.234 399.301 391.234H396.98ZM415.864 386.733H417.562C417.789 386.733 417.947 386.721 418.036 386.698C418.23 386.651 418.383 386.547 418.496 386.387C418.61 386.226 418.666 386.026 418.666 385.785C418.666 385.544 418.61 385.344 418.496 385.184C418.383 385.023 418.23 384.919 418.036 384.872C417.937 384.849 417.779 384.837 417.562 384.837H415.864V386.733ZM415.864 390.385H417.279C417.548 390.385 417.76 390.366 417.916 390.328C418.194 390.257 418.411 390.102 418.567 389.861C418.727 389.62 418.808 389.328 418.808 388.984C418.808 388.634 418.727 388.34 418.567 388.099C418.407 387.858 418.19 387.705 417.916 387.639C417.76 387.601 417.548 387.582 417.279 387.582H415.864V390.385ZM414.958 391.234V383.988H417.562C417.855 383.988 418.088 384.009 418.263 384.051C418.65 384.146 418.963 384.348 419.204 384.66C419.449 384.967 419.572 385.342 419.572 385.785C419.572 386.087 419.499 386.361 419.353 386.606C419.211 386.846 419.02 387.04 418.779 387.186C419.402 387.634 419.713 388.233 419.713 388.984C419.713 389.536 419.572 390.005 419.289 390.392C419.006 390.774 418.631 391.026 418.164 391.149C417.951 391.206 417.657 391.234 417.279 391.234H414.958ZM427.57 391.234V385.757H427.499L424.853 391.234H423.947V383.988H424.853V389.465H424.924L427.577 383.988H428.476V391.234H427.57ZM433.587 390.385H436.559V384.837H434.748C434.743 385.393 434.712 385.952 434.656 386.514C434.599 387.075 434.479 387.719 434.295 388.446C434.115 389.172 433.88 389.819 433.587 390.385ZM432.66 390.385C433.141 389.436 433.457 388.465 433.608 387.469C433.764 386.474 433.842 385.313 433.842 383.988H437.465V390.385H438.371V393.045H437.465V391.234H432.936V393.045H432.03V390.385H432.66ZM445.053 384.95C444.817 384.799 444.529 384.724 444.189 384.724C443.85 384.724 443.56 384.799 443.319 384.95C443.083 385.101 442.913 385.311 442.809 385.58C442.71 385.806 442.647 386.2 442.618 386.762H445.76C445.732 386.2 445.668 385.806 445.569 385.58C445.466 385.311 445.293 385.101 445.053 384.95ZM442.774 384.271C443.166 384.006 443.637 383.874 444.189 383.874C444.741 383.874 445.211 384.006 445.598 384.271C445.989 384.535 446.263 384.877 446.418 385.297C446.499 385.5 446.558 385.738 446.595 386.011C446.638 386.285 446.661 386.528 446.666 386.74C446.676 386.948 446.68 387.238 446.68 387.611H442.604C442.604 387.932 442.607 388.179 442.611 388.354C442.616 388.524 442.635 388.729 442.668 388.969C442.706 389.21 442.76 389.411 442.831 389.571C443.104 390.189 443.604 390.498 444.331 390.498C444.878 390.498 445.586 390.448 446.454 390.349V391.199C445.595 391.298 444.888 391.347 444.331 391.347C443.746 391.347 443.253 391.21 442.852 390.937C442.451 390.663 442.161 390.307 441.982 389.868C441.859 389.571 441.781 389.252 441.748 388.913C441.715 388.573 441.698 388.139 441.698 387.611C441.698 387.238 441.701 386.948 441.706 386.74C441.715 386.528 441.739 386.285 441.776 386.011C441.819 385.738 441.88 385.5 441.96 385.297C442.116 384.877 442.387 384.535 442.774 384.271ZM460.809 391.234H459.903V383.988H460.809V386.938L463.639 383.988H464.849L462.281 386.67L465.182 391.234H464.078L461.693 387.271L460.809 388.156V391.234ZM472.515 387.611H471.128C470.953 387.611 470.817 387.615 470.718 387.625C470.623 387.634 470.503 387.67 470.357 387.731C470.21 387.788 470.081 387.875 469.967 387.993C469.703 388.271 469.571 388.637 469.571 389.09C469.571 389.491 469.684 389.826 469.911 390.095C470.142 390.363 470.453 390.498 470.845 390.498C471.071 390.498 471.272 390.465 471.446 390.399C471.626 390.333 471.772 390.25 471.885 390.151C472.003 390.052 472.102 389.922 472.182 389.762C472.267 389.602 472.329 389.453 472.366 389.316C472.409 389.175 472.442 389.007 472.465 388.814C472.489 388.62 472.503 388.462 472.508 388.34C472.513 388.217 472.515 388.071 472.515 387.901V387.611ZM471.383 383.874C471.788 383.874 472.145 383.938 472.451 384.065C472.758 384.188 473.01 384.424 473.208 384.773C473.35 385.023 473.421 385.41 473.421 385.934V391.234H472.515V390.363H472.444C471.968 391.019 471.378 391.347 470.675 391.347C470.109 391.347 469.632 391.135 469.246 390.71C468.859 390.286 468.665 389.75 468.665 389.104C468.665 388.425 468.873 387.877 469.288 387.462C469.439 387.316 469.599 387.196 469.769 387.101C469.939 387.007 470.116 386.943 470.3 386.91C470.489 386.872 470.635 386.851 470.739 386.846C470.847 386.837 470.982 386.832 471.142 386.832H472.515V385.969C472.515 385.559 472.472 385.28 472.388 385.134C472.307 384.997 472.192 384.896 472.041 384.83C471.895 384.759 471.675 384.724 471.383 384.724C470.817 384.724 470.137 384.773 469.345 384.872V384.009C470.123 383.919 470.802 383.874 471.383 383.874ZM477.881 383.988H482.41V391.234H481.504V384.837H478.787V391.234H477.881V383.988ZM491.399 383.988V391.234H490.493V384.837H488.681V388.941C488.681 389.352 488.627 389.703 488.518 389.996C488.41 390.288 488.231 390.545 487.981 390.767C487.735 390.984 487.457 391.135 487.146 391.22C486.839 391.305 486.445 391.347 485.964 391.347V390.498C486.308 390.498 486.589 390.474 486.806 390.427C487.023 390.38 487.207 390.288 487.358 390.151C487.518 390.005 487.627 389.842 487.683 389.663C487.745 389.479 487.775 389.238 487.775 388.941V383.988H491.399ZM499.482 391.234V385.757H499.411L496.764 391.234H495.859V383.988H496.764V389.465H496.835L499.489 383.988H500.388V391.234H499.482Z" fill="#A3A3A3"/>
<g clip-path="url(#clip1_273_168)">
<path d="M182.601 52.9082C138.579 131.568 110.427 228.721 98.1449 344.365H126.09C126.642 337.741 127.401 330.634 128.367 323.044C129.333 315.454 130.23 308.968 131.058 303.586C131.886 298.204 132.99 291.373 134.37 283.093C135.75 274.675 136.785 268.327 137.475 264.049C138.771 256.414 141.454 240.758 141.822 239.209C149.826 205.399 157.899 175.729 166.041 150.199C174.183 124.668 183.843 101.139 195.021 79.6113L182.601 52.9082Z" fill="#1939FA"/>
</g>
<line x1="150.412" y1="157.624" x2="68.0745" y2="157.624" stroke="#1939FA" stroke-width="2"/>
<line x1="69" y1="156.624" x2="69" y2="28.1727" stroke="#1939FA" stroke-width="2"/>
<line x1="308.975" y1="379.234" x2="308.975" y2="280.278" stroke="#1939FA" stroke-width="2"/>
<line x1="367.781" y1="281.278" x2="308.115" y2="281.278" stroke="#1939FA" stroke-width="2"/>
</g>
<defs>
<clipPath id="clip0_273_168">
<rect width="1320" height="424" fill="white"/>
</clipPath>
<clipPath id="clip1_273_168">
<rect width="202" height="295" fill="white" transform="translate(97.5562 53)"/>
</clipPath>
</defs>
</svg>
